<svg id="レイヤー_1" data-name="レイヤー 1" xmlns="http://www.w3.org/2000/svg" viewBox="0 0 2153.52 726.71"><defs><style>.cls-1{fill:none;stroke:#231815;stroke-linecap:round;stroke-miterlimit:10;stroke-width:22.12px;}</style></defs><title>アートボード 1 のコピー 5</title><path d="M998.06,232.43c17.45.11,31.16,7.61,41.65,21.27,1.44,1.87,2,1.91,3.46,0,14.24-18.22,32.88-24.92,55.25-19.54,28,6.73,41.43,36.38,29.47,63.74-6.09,13.93-16.67,24-28.65,32.72-9.75,7.08-19.9,13.62-29.84,20.43a75.77,75.77,0,0,0-10.73,8.61c-2.79,2.78-4.85,5.76-5.21,10-.47,5.57-5.39,9-11.87,9-6.71,0-11.68-3.35-12.15-9-.37-4.47-2.62-7.55-5.59-10.38-6-5.74-13-10.18-20-14.74-12.32-8.13-24.79-16.07-35.15-26.77-11.75-12.14-18.88-26.17-17.9-43.57a44.21,44.21,0,0,1,41.55-41.51Zm.29,21.93c-14.87-.06-24.75,8.17-25.6,21.77-.58,9.26,3.46,16.93,9.37,23.74,6.38,7.34,14.16,13,22.08,18.52,12.32,8.57,25.63,15.79,36.36,26.54.85.85,1.3.48,1.94-.17,7.92-8,17.43-13.89,26.73-20.06s18.86-12.3,27-20.12c5.66-5.41,10.5-11.39,12.77-19.07,3.44-11.63-.77-23.5-10.63-28.05-10.73-5-21.37-4.45-31.09,2.84-6.92,5.19-11.12,12.39-14.13,20.35-2,5.17-5.65,7.64-11.45,7.66-6.34,0-10-2.27-12-7.62a49.34,49.34,0,0,0-10.09-16.77A28.66,28.66,0,0,0,998.34,254.36Z"/><path d="M1196.37,116a10.64,10.64,0,0,1-2.5,7q-21.19,26.93-42.38,53.86c-4.22,5.34-11,6.21-16,2.19-4.8-3.87-5.44-10.48-1.37-15.66q21.14-27,42.36-53.87c3.31-4.2,8.05-5.58,12.72-3.86A10.77,10.77,0,0,1,1196.37,116Z"/><path d="M1006.76,544a10.83,10.83,0,0,1-10.87-12.56q4.8-34.2,9.84-68.36c1-6.46,6.56-10.66,12.42-9.69,6.54,1.08,10.27,6.64,9.27,13.48q-4.83,33.1-9.51,66.22C1017,539.87,1012.86,544,1006.76,544Z"/><path d="M921.19,198.3c-.23,4.26-2.07,7.7-6.06,9.69-4.39,2.18-8.52,1.47-12.34-1.53L852.1,166.58c-1.06-.83-2.13-1.66-3.17-2.51-5-4.13-5.86-10.76-2-15.59a11,11,0,0,1,15.65-1.63q19.14,15,38.19,30l16.12,12.68A11.28,11.28,0,0,1,921.19,198.3Z"/><path d="M948.85,430.58a10.41,10.41,0,0,1-2.43,7q-21.35,27.15-42.71,54.29a10.93,10.93,0,0,1-15.61,1.92,10.79,10.79,0,0,1-1.69-15.42q21.35-27.32,42.86-54.51a10.94,10.94,0,0,1,19.58,6.75Z"/><path d="M1205.38,313.2c10.06,1.43,21.1,3,32.13,4.56,12,1.72,24,3.52,36,5.21,6.51.91,11,6.24,10.14,12.33-.87,6.38-6.45,10.37-13.08,9.41-22.69-3.28-45.38-6.5-68.07-9.82a10.77,10.77,0,0,1-9.48-12C1193.59,317.2,1198.4,313.09,1205.38,313.2Z"/><path d="M1235.85,446.14a10.26,10.26,0,0,1-6,9.34c-4.37,2.19-8.52,1.49-12.33-1.51q-20.78-16.36-41.57-32.7c-4-3.17-8.08-6.31-12.08-9.51-5.19-4.15-6.11-10.81-2.25-15.77s10.6-5.6,15.84-1.49q27,21.13,53.88,42.35A11.15,11.15,0,0,1,1235.85,446.14Z"/><path d="M954.16,71.52a9.91,9.91,0,0,1,8.8,6.59q13.14,32.51,26.07,65.1a11,11,0,0,1-20.44,7.89q-13.1-32.38-25.94-64.86C939.75,78.9,945.2,71.45,954.16,71.52Z"/><path d="M1257.91,202.28c5.91.14,10.28,3.83,11.22,8.86a10.94,10.94,0,0,1-7,12.33q-31.9,12.82-63.83,25.57a11.07,11.07,0,0,1-15.49-9.16,10.55,10.55,0,0,1,6.27-10.73q32.86-13.31,65.83-26.35A11.58,11.58,0,0,1,1257.91,202.28Z"/><path d="M1073.62,57.05c6.83,0,11.75,5.44,10.81,12.53-2.12,16-4.51,31.87-6.79,47.8-1,6.94-2,13.89-3,20.83-.89,6-6.44,10.29-12.09,9.49-6.31-.9-10.53-6.15-9.65-12.42q4.87-34.59,9.92-69.16A10.68,10.68,0,0,1,1073.62,57.05Z"/><path d="M822.86,398.78c-6.07,0-10.42-3.53-11.51-8.8a10.76,10.76,0,0,1,6.81-12.38q27-10.89,54.06-21.66c3.42-1.37,6.81-2.81,10.27-4.1a11,11,0,0,1,14.31,6.07,10.8,10.8,0,0,1-6.14,14.26q-32.12,13-64.32,25.79A19.41,19.41,0,0,1,822.86,398.78Z"/><path d="M875.13,287.86c-11.41-1.62-23.61-3.34-35.8-5.09-10.86-1.55-21.7-3.18-32.56-4.69-6.64-.92-10.82-6.17-9.94-12.69.83-6.12,6.51-10,13.05-9,22.77,3.3,45.56,6.52,68.33,9.87A10.68,10.68,0,0,1,887.34,278C886.71,284,882,288,875.13,287.86Z"/><path d="M1138.5,518.42a11,11,0,0,1-8.66,10.94,10.83,10.83,0,0,1-12.59-6.91c-6.3-15.59-12.52-31.21-18.77-46.81-2.24-5.59-4.51-11.17-6.71-16.78-2.47-6.3-.06-12.5,5.72-14.87,6-2.45,12.08.28,14.65,6.67q12.67,31.53,25.29,63.09A11.57,11.57,0,0,1,1138.5,518.42Z"/><path d="M1431.86,627.2l-78.07-45.07a15.67,15.67,0,0,0-23.5,13.57v90.14a15.67,15.67,0,0,0,23.5,13.57l78.07-45.07A15.67,15.67,0,0,0,1431.86,627.2Z"/><line class="cls-1" x1="1360.14" y1="640.77" x2="682.57" y2="640.77"/><circle class="cls-1" cx="201.01" cy="404.88" r="75.81"/><path class="cls-1" d="M11.06,715.65c0-104.91,85-190,190-190s190,85,190,190"/><circle class="cls-1" cx="1911.7" cy="404.88" r="75.81"/><path class="cls-1" d="M1783.31,711.43,1678.54,288.72A35.19,35.19,0,0,1,1705.83,245h0A35.18,35.18,0,0,1,1747,272.54c11.86,58.51,36,173.44,46.21,193.31,13.84,26.86,30,60.78,114.86,60.78h3.63c84.88,0,101-33.92,114.86-60.78,10.23-19.87,34.35-134.8,46.21-193.31A35.18,35.18,0,0,1,2113.95,245h0a35.19,35.19,0,0,1,27.28,43.73L2034.6,711.43"/><line class="cls-1" x1="1802.98" y1="142.46" x2="1761.07" y2="55.2"/><line class="cls-1" x1="1909.89" y1="120.58" x2="1909.89" y2="11.06"/><line class="cls-1" x1="2016.17" y1="137.67" x2="2069.49" y2="49.11"/></svg>