<svg id="レイヤー_1" data-name="レイヤー 1" xmlns="http://www.w3.org/2000/svg" viewBox="0 0 288.12 500"><defs><style>.cls-1{fill:#e7404c;}</style></defs><title>アートボード 1</title><path class="cls-1" d="M282.85,138.49a138.81,138.81,0,0,0-277.61.32c0,.28,0,.55,0,.82V350.36c0,5.22,3.91,9.9,9.12,10.18a9.64,9.64,0,0,0,10.16-9.63V235.69c0-7.84,9.74-11.58,14.89-5.68l.54.62a8.58,8.58,0,0,1,2.18,5.67V350.36c0,5.22,3.91,9.9,9.13,10.17a9.64,9.64,0,0,0,10.16-9.63V266.18a8.55,8.55,0,0,1,12.95-7.3l.27.16a8.64,8.64,0,0,1,4.4,7.46v83.86c0,5.22,3.91,9.9,9.13,10.17a9.64,9.64,0,0,0,10.16-9.63V281.39A8.51,8.51,0,0,1,109,273.15l.55.14a8.51,8.51,0,0,1,6.39,8.24v68.82c0,5.22,3.91,9.9,9.13,10.17a9.64,9.64,0,0,0,10.16-9.63V286.15a8.59,8.59,0,0,1,8.7-8.53h.22a8.59,8.59,0,0,1,8.7,8.53v64.21c0,5.22,3.91,9.9,9.13,10.17a9.64,9.64,0,0,0,10.16-9.63V281.52a8.51,8.51,0,0,1,6.39-8.24l.55-.14a8.51,8.51,0,0,1,10.68,8.24v69c0,5.22,3.91,9.9,9.13,10.17a9.64,9.64,0,0,0,10.16-9.63V266.47a8.64,8.64,0,0,1,4.39-7.46l.27-.16a8.55,8.55,0,0,1,13,7.3v84.2c0,5.22,3.91,9.9,9.13,10.17A9.64,9.64,0,0,0,246,350.9V236.26a8.58,8.58,0,0,1,2.18-5.67l.54-.62c5.15-5.91,14.89-2.17,14.89,5.67V350.36c0,5.22,3.91,9.9,9.13,10.17a9.64,9.64,0,0,0,10.16-9.63V138.81C282.88,138.7,282.85,138.6,282.85,138.49Z"/><path class="cls-1" d="M30.22,421.65A30.25,30.25,0,0,0,0,451.87v17.92a30.21,30.21,0,0,0,60.43,0V451.87A30.25,30.25,0,0,0,30.22,421.65Zm19.71,48.13a19.72,19.72,0,1,1-39.44,0V451.87a19.72,19.72,0,1,1,39.44,0Z"/><path class="cls-1" d="M108.84,432.31a19.75,19.75,0,0,1,22.1,16.61,3.4,3.4,0,0,0,3.35,2.94H138a3.42,3.42,0,0,0,3.4-3.82,30.26,30.26,0,0,0-32.89-26.26c-15.65,1.48-27.3,15.24-27.3,31V468.9c0,15.72,11.64,29.49,27.3,31A30.26,30.26,0,0,0,141.4,473.6a3.42,3.42,0,0,0-3.4-3.82h-3.72a3.4,3.4,0,0,0-3.35,2.94,19.75,19.75,0,0,1-22.1,16.61c-9.94-1.28-17.12-10.22-17.12-20.24V452.55C91.71,442.53,98.9,433.59,108.84,432.31Z"/><path class="cls-1" d="M257.91,421.65a30.25,30.25,0,0,0-30.21,30.21v17.92a30.21,30.21,0,1,0,60.43,0V451.87A30.25,30.25,0,0,0,257.91,421.65Zm19.71,48.13a19.72,19.72,0,1,1-39.44,0V451.87a19.72,19.72,0,0,1,39.44,0Z"/><path class="cls-1" d="M164.11,433.16H177a3.4,3.4,0,0,1,3.4,3.4v58.95a3.4,3.4,0,0,0,3.4,3.4h3.69a3.4,3.4,0,0,0,3.4-3.4V436.56a3.4,3.4,0,0,1,3.4-3.4h12.92a3.4,3.4,0,0,0,3.4-3.4v-3.69a3.4,3.4,0,0,0-3.4-3.4H164.11a3.4,3.4,0,0,0-3.4,3.4v3.69A3.4,3.4,0,0,0,164.11,433.16Z"/></svg>