<svg id="レイヤー_1" data-name="レイヤー 1" xmlns="http://www.w3.org/2000/svg" viewBox="0 0 611.8 794.48"><defs><style>.cls-1{fill:#e8404d;}</style></defs><title>アートボード 1 のコピー 17</title><path class="cls-1" d="M611.73,305.17C611.35,136.57,474.57,0,305.87,0,136.94,0,0,136.94,0,305.87c0,.61,0,1.21,0,1.81V772c0,11.51,8.62,21.82,20.11,22.42a21.25,21.25,0,0,0,22.4-21.22V519.36c0-17.27,21.46-25.52,32.81-12.51l1.19,1.36a18.9,18.9,0,0,1,4.81,12.5V772c0,11.51,8.62,21.82,20.11,22.42a21.25,21.25,0,0,0,22.39-21.22V586.54c0-14.64,15.86-23.44,28.53-16.09l.6.35a19,19,0,0,1,9.69,16.44V772c0,11.51,8.62,21.82,20.11,22.42a21.25,21.25,0,0,0,22.39-21.22V620.06a18.76,18.76,0,0,1,23.54-18.16l1.2.31A18.75,18.75,0,0,1,244,620.37V772c0,11.51,8.62,21.82,20.11,22.42a21.25,21.25,0,0,0,22.39-21.22V630.54a18.92,18.92,0,0,1,19.17-18.8h.48a18.92,18.92,0,0,1,19.17,18.8V772c0,11.51,8.62,21.82,20.11,22.42a21.25,21.25,0,0,0,22.39-21.22V620.35a18.75,18.75,0,0,1,14.07-18.16l1.2-.31A18.76,18.76,0,0,1,406.65,620V772c0,11.51,8.62,21.82,20.11,22.42a21.25,21.25,0,0,0,22.39-21.22v-186a19,19,0,0,1,9.68-16.44l.6-.35C472.1,563,488,571.84,488,586.49V772c0,11.51,8.62,21.82,20.11,22.42a21.25,21.25,0,0,0,22.39-21.22V520.6a18.9,18.9,0,0,1,4.81-12.49l1.19-1.36c11.35-13,32.82-4.77,32.82,12.5V772c0,11.51,8.62,21.82,20.11,22.42a21.25,21.25,0,0,0,22.39-21.22V305.87C611.8,305.63,611.73,305.41,611.73,305.17Z"/></svg>