<svg id="レイヤー_1" data-name="レイヤー 1" xmlns="http://www.w3.org/2000/svg" viewBox="0 0 611.93 872.49"><defs><style>.cls-1{fill:#e8404d;}</style></defs><title>アートボード 1 のコピー 16</title><path class="cls-1" d="M605.08,241.91c-15-67.61-48.35-124.66-101.51-169C428.32,10.09,341.5-12.27,245.48,6.35c-78.64,15.24-141.6,57-188.45,122C20.78,178.61,1.09,235.11.43,297.23c-.83,77.55-.2,155.1-.2,232.66H.15c0,67.82,0,213.61,0,281.43,0,13.34-.2,26.69.16,40,.24,8.9,5.13,15.32,13,19.08,7.42,3.53,14.71,2.39,21.34-2.32,7.06-5,9.23-12.28,9.23-20.55,0-81.48,0-240.92,0-322.4,0-2.67-.06-5.34.1-8,.57-9.91,10.81-17.85,20.52-16,10,1.93,16.7,10.29,16.7,20.9q0,65.46,0,130.93c0,39.24,0,156.46,0,195.71,0,7.56,2.61,13.9,8.36,18.65,6.91,5.72,14.8,6.48,22.85,2.75,8.57-4,12.48-11.25,12.53-20.44.14-23.87,0-125.69.05-149.56q0-56.51,0-113c0-5.47,1.46-10.22,5.56-13.94,6-5.43,12.94-6.31,20.11-3.2,7.34,3.18,11.59,8.93,11.59,17.25,0,59.65,0,197.28,0,256.93,0,2.36-.07,4.72.11,7.06,1.25,16.7,18.91,26.4,33,18,7.73-4.59,10.78-11.79,10.77-20.61,0-49.92,0-177.81,0-227.73,0-11.28,7.5-19.29,18-19.29,11.36,0,19.19,7.78,19.22,19.24,0,16,0,32,0,48,0,33.75,0,145.47,0,179.22,0,11.48,7,21.25,16.63,23.55,14.14,3.36,27-6.68,27.09-21.32.09-33.28,0-144.54,0-177.81,0-14-.1-27.95,0-41.92a18.42,18.42,0,0,1,19-18.6c10.5.1,18.18,7.82,18.3,18.55.09,8.32,0,16.64,0,25,0,38,0,154,0,191.94,0,12,6.7,21.88,16.51,24.14,16.67,3.85,27.45-9.54,27.37-21.56-.32-47.88-.12-173.73-.12-221.61,0-2.67-.1-5.34,0-8,.66-13.82,13.93-22.68,26.28-17.42,8.21,3.49,11.18,10.09,11.15,18.85-.14,48.19-.08,174.36,0,222.55a48.65,48.65,0,0,0,.77,9.82c1.77,8.47,6.73,14.68,15.06,17.13,8,2.35,15.42.63,21.6-5.41,5.53-5.41,6.53-12.19,6.53-19.45,0-58.87,0-195.71,0-254.58a58.54,58.54,0,0,1,.4-8.45c1.11-7.5,8.26-14,16.1-15,8.75-1.06,16.68,3.1,19.34,10.8A34.66,34.66,0,0,1,487,590.34c.09,58.24.06,194.46.08,252.69a72.18,72.18,0,0,0,.26,9.41c1.14,8.56,5.55,14.92,13.64,18.26s15.39,1.77,22-3.62c6.24-5.1,7.89-12.09,7.89-19.79,0-81.48,0-240.92,0-322.4,0-2.19-.06-4.4.13-6.59,1-11.73,13.53-20.11,24.64-16.5,8.08,2.62,12.62,9.55,12.62,19.39,0,80.38,0,238.72,0,319.1,0,3.77-.12,7.54.11,11.3a21.8,21.8,0,0,0,25.77,20.21c11.13-2.07,17.84-10.87,17.84-23.6,0-154,0-386,0-540A305.57,305.57,0,0,0,605.08,241.91Z"/></svg>