<svg id="レイヤー_1" data-name="レイヤー 1" xmlns="http://www.w3.org/2000/svg" viewBox="0 0 611.94 703.26"><defs><style>.cls-1{fill:#e8404d;}</style></defs><title>アートボード 1 のコピー 18</title><path class="cls-1" d="M605.08,241.91c-15-67.61-48.35-124.66-101.51-169C428.31,10.09,341.5-12.27,245.48,6.35c-78.64,15.24-141.6,57-188.45,122C20.78,178.61,1.09,235.11.43,297.23c-.83,77.55-.2,155.1-.2,232.66H.15c0,67.82-.19,138.89.17,152.22.24,8.9,5.13,15.33,13,19.09,7.42,3.52,14.71,2.38,21.34-2.32,7.06-5,9.23-12.28,9.23-20.55,0-81.48,0-71.69,0-153.17,0-2.67-.06-5.34.1-8,.57-9.91,10.81-17.85,20.52-16,10,1.93,16.7,10.29,16.7,20.89q0,65.47,0,130.94c0,6,0,9.71,0,12.09,0,1.78,0,5.85,0,14.39,0,7.56,2.61,13.89,8.36,18.65,6.91,5.71,14.8,6.48,22.85,2.74,8.57-4,12.48-11.25,12.53-20.44.14-23.86.08-55.68,0-93.35,0-5.47,1.46-10.22,5.56-13.94,6-5.43,12.94-6.31,20.11-3.2,7.35,3.19,11.59,8.93,11.59,17.25,0,59.66,0,28,0,87.71,0,2.35-.07,4.72.11,7.06,1.25,16.69,18.91,26.4,33,18,7.73-4.58,10.78-11.79,10.77-20.6,0-49.93,0-8.58,0-58.5,0-11.28,7.5-19.29,18-19.29,11.36,0,19.19,7.78,19.22,19.23,0,16,0,32,0,48v.34c0,1.52,0,4.38,0,9.65,0,11.48,7,21.25,16.63,23.54,14.14,3.37,27.05-6.68,27.09-21.32,0-6.28,0-9.3,0-10.31,0-13.4-.1-26.79,0-40.19a18.42,18.42,0,0,1,19-18.6c10.5.1,18.18,7.81,18.3,18.55.09,8.32,0,16.64,0,25v9.76c0,1.91,0,5.83,0,12.95,0,12,6.7,21.87,16.51,24.14,16.67,3.85,27.45-9.54,27.37-21.56-.32-47.88-.12-4.5-.12-52.38,0-2.67-.1-5.34,0-8,.66-13.82,13.92-22.68,26.28-17.42,8.21,3.49,11.18,10.09,11.16,18.84-.14,48.2-.09,5.12,0,53.32a48.67,48.67,0,0,0,.77,9.83c1.77,8.46,6.73,14.68,15.06,17.13,8,2.34,15.42.63,21.6-5.41,5.54-5.4,6.53-12.19,6.53-19.45,0-58.87,0-26.48,0-85.35a58.3,58.3,0,0,1,.4-8.45c1.11-7.5,8.26-14,16.1-15,8.75-1.06,16.68,3.1,19.34,10.81A34.66,34.66,0,0,1,487,590.33c.09,58.24.06,25.22.08,83.47a72.07,72.07,0,0,0,.26,9.4c1.14,8.57,5.55,14.92,13.64,18.26s15.39,1.77,22-3.61c6.24-5.11,7.89-12.09,7.89-19.8,0-81.48,0-71.69,0-153.17,0-2.19-.06-4.4.13-6.59,1-11.73,13.53-20.11,24.64-16.5,8.08,2.63,12.62,9.56,12.62,19.4,0,80.38,0,69.49,0,149.87,0,3.77-.12,7.55.11,11.3a21.8,21.8,0,0,0,25.77,20.21c11.13-2.07,17.84-10.86,17.84-23.6,0-154,0-216.74,0-370.75A305.45,305.45,0,0,0,605.08,241.91Z"/></svg>