<svg xmlns="http://www.w3.org/2000/svg" viewBox="988 1013 62.4 16"><defs><style>.a{fill:#fff;}</style></defs><g transform="translate(988 1013)"><path class="a" d="M4.8.1H7.04V15.46H4.16V3.62L1.6,5.86,0,3.94Z" transform="translate(0 0.22)"/><path class="a" d="M9.66,8.64c.64-.64,1.92-1.92,1.92-3.52A2.187,2.187,0,0,0,9.34,2.88,3.129,3.129,0,0,0,6.46,5.12L3.9,3.84A5.256,5.256,0,0,1,9.02,0a4.529,4.529,0,0,1,4.8,4.8,7.526,7.526,0,0,1-1.28,3.84L9.02,13.12h5.12v2.56H3.9Z" transform="translate(8.58)"/><path class="a" d="M10.2,1.6a1.512,1.512,0,0,1,1.6,1.6,1.512,1.512,0,0,1-1.6,1.6A1.512,1.512,0,0,1,8.6,3.2,1.512,1.512,0,0,1,10.2,1.6Zm0,7.36a1.512,1.512,0,0,1,1.6,1.6,1.792,1.792,0,0,1-1.6,1.92c-.96,0-1.6-.64-1.6-1.92S9.24,8.96,10.2,8.96Z" transform="translate(18.92 3.52)"/><path class="a" d="M22.52,8c0,4.16-1.92,8-5.76,8S11,12.16,11,8s1.92-8,5.76-8S22.52,3.84,22.52,8ZM19.96,8c0-2.88-.96-5.44-3.2-5.44S13.56,5.12,13.56,8s.96,5.44,3.2,5.44S19.96,10.88,19.96,8Z" transform="translate(24.2)"/><path class="a" d="M27.42,8c0,4.16-1.92,8-5.76,8S15.9,12.16,15.9,8s1.92-8,5.76-8S27.42,3.84,27.42,8ZM24.86,8c0-2.88-.96-5.44-3.2-5.44S18.46,5.12,18.46,8s.96,5.44,3.2,5.44S24.86,10.88,24.86,8Z" transform="translate(34.98)"/></g></svg>