<svg xmlns="http://www.w3.org/2000/svg" viewBox="0 0 23.79 7.23"><defs><style>.cls-1{fill:#fff;}</style></defs><title>2017</title><g id="レイヤー_2" data-name="レイヤー 2"><g id="レイヤー_1-2" data-name="レイヤー 1"><path class="cls-1" d="M3.9,3.83a2.79,2.79,0,0,0,.6-1.69A2,2,0,0,0,2.3,0,2.36,2.36,0,0,0,0,1.72l1.05.38a1.29,1.29,0,0,1,1.23-1,1,1,0,0,1,1,1.06,2.59,2.59,0,0,1-.8,1.63L0,7H4.53V5.87H2.32Z"/><path class="cls-1" d="M9,0C7.28,0,6.44,1.69,6.44,3.56S7.28,7.11,9,7.11,11.6,5.42,11.6,3.56,10.78,0,9,0ZM9,6C8.08,6,7.61,4.9,7.61,3.56S8.08,1.1,9,1.1s1.39,1.11,1.39,2.46S10,6,9,6Z"/><polygon class="cls-1" points="13.14 1.79 13.82 2.65 15.02 1.69 15.02 6.99 16.2 6.99 16.2 0.12 15.23 0.12 13.14 1.79"/><polygon class="cls-1" points="18.88 0.12 18.88 1.24 21.93 1.24 19.1 6.71 20.11 7.23 23.79 0.12 18.88 0.12"/></g></g></svg>