<svg xmlns="http://www.w3.org/2000/svg" viewBox="0 0 144.22 178.33"><defs><style>.cls-1{fill:#3f3b3a;}.cls-2,.cls-3{fill:#fff;}.cls-3{stroke:#3f3b3a;stroke-miterlimit:10;stroke-width:0.5px;}.cls-4{fill:#e8414d;}</style></defs><title>map</title><g id="レイヤー_2" data-name="レイヤー 2"><g id="レイヤー_1-2" data-name="レイヤー 1"><path class="cls-1" d="M144,153.73H.65a.65.65,0,0,1-.65-.65v-2.5a.65.65,0,0,1,.65-.65H144c.49,0,0,.39,0,.88v2.05C144,153.34,144.48,153.73,144,153.73Z"/><rect class="cls-2" x="2.36" y="150.38" width="8.53" height="2.85" rx="0.75" ry="0.75"/><path class="cls-2" d="M136.08,153.24h-9a.76.76,0,0,1-.75-.76v-1.34a.76.76,0,0,1,.75-.76h9a.76.76,0,0,1,.76.76v1.34A.76.76,0,0,1,136.08,153.24Zm-21,0h-9a.76.76,0,0,1-.75-.76v-1.34a.76.76,0,0,1,.75-.76h9a.76.76,0,0,1,.76.76v1.34A.76.76,0,0,1,115.09,153.24Zm-21,0h-9a.76.76,0,0,1-.75-.76v-1.34a.76.76,0,0,1,.75-.76h9a.76.76,0,0,1,.76.76v1.34A.76.76,0,0,1,94.1,153.24Zm-21,0h-9a.76.76,0,0,1-.75-.76v-1.34a.76.76,0,0,1,.75-.76h9a.76.76,0,0,1,.76.76v1.34A.76.76,0,0,1,73.11,153.24Zm-21,0h-9a.76.76,0,0,1-.75-.76v-1.34a.76.76,0,0,1,.75-.76h9a.76.76,0,0,1,.76.76v1.34A.76.76,0,0,1,52.12,153.24Zm-21,0h-9a.76.76,0,0,1-.75-.76v-1.34a.76.76,0,0,1,.75-.76h9a.75.75,0,0,1,.75.76v1.34A.75.75,0,0,1,31.13,153.24Z"/><rect class="cls-3" x="97.11" y="82.9" width="28.75" height="16.79" rx="2.44" ry="2.44"/><path class="cls-1" d="M34.22,38h1.1v.3h-1.1v1.22H33.9V36.86h1.5v.3H34.22Z"/><path class="cls-1" d="M37.28,38.36v1.16H37v-.26a.72.72,0,0,1-.59.3.6.6,0,1,1,0-1.18,1,1,0,0,1,.53.14v-.09a.41.41,0,0,0-.45-.42,1.21,1.21,0,0,0-.52.15l-.14-.27a1.39,1.39,0,0,1,.66-.17C37,37.72,37.28,38,37.28,38.36ZM37,39v-.25a.84.84,0,0,0-.46-.13c-.28,0-.45.14-.45.32s.21.32.4.32A.68.68,0,0,0,37,39Z"/><path class="cls-1" d="M40.23,38.39v1.13h-.32V38.44c0-.29-.15-.43-.38-.43a.46.46,0,0,0-.38.28v1.23h-.32V38.44c0-.29-.14-.43-.37-.43a.46.46,0,0,0-.38.28v1.23h-.32V37.76h.3V38a.58.58,0,0,1,1,0,.58.58,0,0,1,.53-.32A.59.59,0,0,1,40.23,38.39Z"/><path class="cls-1" d="M40.93,37a.22.22,0,1,1-.22.22A.22.22,0,0,1,40.93,37Zm-.16.78h.32v1.76h-.32Z"/><path class="cls-1" d="M41.7,36.64H42v2.88H41.7Z"/><path class="cls-1" d="M42.57,40.05a.41.41,0,0,0,.21.09c.14,0,.21-.1.28-.27l.13-.35-.82-1.76h.36l.62,1.39.52-1.39h.35l-.92,2.32a.53.53,0,0,1-.49.36.61.61,0,0,1-.37-.13Z"/><path class="cls-1" d="M37.12,41.61,38,43.1l.91-1.49h.31v2.66h-.32V42.19L38,43.67l-.9-1.48v2.08H36.8V41.61Z"/><path class="cls-1" d="M41.27,43.12v1.15H41V44a.75.75,0,0,1-.6.3.62.62,0,0,1-.65-.6.63.63,0,0,1,.69-.59,1,1,0,0,1,.53.14v-.09a.4.4,0,0,0-.45-.41,1.27,1.27,0,0,0-.52.14l-.13-.26a1.27,1.27,0,0,1,.65-.18A.68.68,0,0,1,41.27,43.12Zm-.32.65v-.25a.89.89,0,0,0-.46-.12c-.27,0-.45.13-.45.32s.21.32.41.32A.67.67,0,0,0,41,43.77Z"/><path class="cls-1" d="M42.8,42.52l-.12.28a.55.55,0,0,0-.2,0,.47.47,0,0,0-.4.29v1.21h-.32V42.52h.29v.26a.59.59,0,0,1,.49-.31A.69.69,0,0,1,42.8,42.52Z"/><path class="cls-1" d="M42.9,42.52h.34V42h.32v.54h.55v.28h-.55v1c0,.17.08.27.25.27A.41.41,0,0,0,44,44l.12.26a.76.76,0,0,1-.36.11.52.52,0,0,1-.53-.55v-1H42.9Z"/><path class="cls-1" d="M74.91,83.67h.32V86h1.19v.31H74.91Z"/><path class="cls-1" d="M78.16,85.18v1.16h-.3v-.26a.72.72,0,0,1-.59.3.6.6,0,1,1,0-1.18,1,1,0,0,1,.53.14v-.1a.4.4,0,0,0-.45-.41,1.21,1.21,0,0,0-.52.15l-.14-.27a1.33,1.33,0,0,1,.66-.18A.68.68,0,0,1,78.16,85.18Zm-.32.65v-.24a.84.84,0,0,0-.46-.13c-.28,0-.45.14-.45.32s.21.32.41.32A.67.67,0,0,0,77.84,85.83Z"/><path class="cls-1" d="M78.48,84.58h.36V84a.53.53,0,0,1,.54-.56.66.66,0,0,1,.37.1l-.12.26a.41.41,0,0,0-.2-.07.25.25,0,0,0-.27.28v.59h.46v.29h-.46v1.47h-.32V84.87h-.36Z"/><path class="cls-1" d="M81.64,85.46a.91.91,0,1,1-.91-.93A.9.9,0,0,1,81.64,85.46Zm-.32,0a.59.59,0,0,0-.59-.63.63.63,0,1,0,.59.63Z"/><path class="cls-1" d="M83,84.58l-.11.29a.45.45,0,0,0-.21,0c-.27,0-.4.3-.4.3v1.21H82V84.58h.3v.27a.58.58,0,0,1,.49-.32A.67.67,0,0,1,83,84.58Z"/><path class="cls-1" d="M84.91,85.47a.38.38,0,0,1,0,.1H83.49a.58.58,0,0,0,.6.51.7.7,0,0,0,.53-.25l.2.21a1,1,0,0,1-.73.34.9.9,0,0,1-.92-.92.88.88,0,0,1,.88-.93A.86.86,0,0,1,84.91,85.47Zm-.32-.16a.53.53,0,0,0-.54-.48.54.54,0,0,0-.56.48Z"/><path class="cls-1" d="M85.12,84.58h.34V84h.32v.54h.55v.29h-.55v.94a.24.24,0,0,0,.26.27.46.46,0,0,0,.2-.07l.12.26a.71.71,0,0,1-.37.11.51.51,0,0,1-.53-.55v-1h-.34Z"/><path class="cls-1" d="M77.58,63.63h-.76v-.3h1.85v.3H77.9V66h-.32Z"/><path class="cls-1" d="M80.65,65.11a.91.91,0,1,1-.9-.92A.9.9,0,0,1,80.65,65.11Zm-.32,0a.59.59,0,1,0-.58.63A.58.58,0,0,0,80.33,65.11Z"/><path class="cls-1" d="M81.41,65.14V66h-.32V63.12h.32V65l.75-.77h.42l-.83.82.89.93H82.2Z"/><path class="cls-1" d="M82.89,66.52a.41.41,0,0,0,.21.09c.14,0,.21-.09.27-.27l.14-.34-.82-1.76h.36l.62,1.38.52-1.38h.35s-.88,2.21-.93,2.32a.51.51,0,0,1-.48.35.64.64,0,0,1-.37-.12Z"/><path class="cls-1" d="M84.8,65.36V64.24h.32v1.07a.39.39,0,0,0,.42.43.53.53,0,0,0,.44-.29V64.24h.31V66H86v-.27a.62.62,0,0,1-.54.32A.64.64,0,0,1,84.8,65.36Z"/><path class="cls-1" d="M78.22,68.08h.69a.79.79,0,0,1,.9.81c0,.51-.35.8-.9.8h-.37v1h-.32Zm.67,1.3c.36,0,.61-.16.61-.49s-.25-.5-.61-.5h-.35v1Z"/><path class="cls-1" d="M80.23,67.87h.32v2.87h-.32Z"/><path class="cls-1" d="M82.56,69.59v1.15h-.29v-.25a.75.75,0,0,1-.6.3.62.62,0,0,1-.65-.6.63.63,0,0,1,.69-.59.94.94,0,0,1,.53.15v-.1a.4.4,0,0,0-.44-.41,1.22,1.22,0,0,0-.53.15l-.13-.27a1.29,1.29,0,0,1,.66-.18A.68.68,0,0,1,82.56,69.59Zm-.32.65V70a.8.8,0,0,0-.46-.13c-.27,0-.44.14-.44.32s.2.32.4.32A.67.67,0,0,0,82.24,70.24Z"/><path class="cls-1" d="M84.5,69l-1,1.46h1v.29H82.93l1-1.45H83V69Z"/><path class="cls-1" d="M86.3,69.59v1.15H86v-.25a.72.72,0,0,1-.59.3.63.63,0,0,1-.66-.6.63.63,0,0,1,.7-.59,1,1,0,0,1,.53.15v-.1a.4.4,0,0,0-.45-.41,1.21,1.21,0,0,0-.52.15l-.14-.27a1.33,1.33,0,0,1,.66-.18A.68.68,0,0,1,86.3,69.59Zm-.32.65V70a.84.84,0,0,0-.46-.13c-.28,0-.45.14-.45.32s.21.32.4.32A.68.68,0,0,0,86,70.24Z"/><path class="cls-1" d="M74.56,48.4h.32v2.36h1.2v.3H74.56Z"/><path class="cls-1" d="M77.81,49.91v1.15h-.29v-.25a.75.75,0,0,1-.6.3.62.62,0,0,1-.65-.6.63.63,0,0,1,.69-.59,1,1,0,0,1,.53.14V50a.4.4,0,0,0-.44-.41,1.28,1.28,0,0,0-.53.14l-.13-.26a1.29,1.29,0,0,1,.66-.18A.68.68,0,0,1,77.81,49.91Zm-.32.65v-.25a.85.85,0,0,0-.46-.12c-.27,0-.44.13-.44.32s.2.32.4.32A.67.67,0,0,0,77.49,50.56Z"/><path class="cls-1" d="M78.43,49.31l.47,1.13.46-1.13h.22l.47,1.13.47-1.13h.32L80,51.14l-.58-1.32-.57,1.32-.81-1.83Z"/><path class="cls-1" d="M81.23,50.53a.66.66,0,0,0,.53.29c.18,0,.38-.08.38-.22s-.13-.23-.4-.28-.64-.22-.64-.56a.58.58,0,0,1,.64-.5.89.89,0,0,1,.65.27l-.21.21a.63.63,0,0,0-.44-.19c-.22,0-.33.11-.33.22s.13.21.42.27.62.2.62.55-.35.52-.69.52a1,1,0,0,1-.76-.37Z"/><path class="cls-1" d="M84.54,50.18a.91.91,0,1,1-.91-.92A.91.91,0,0,1,84.54,50.18Zm-.32,0a.59.59,0,1,0-.59.63A.59.59,0,0,0,84.22,50.18Z"/><path class="cls-1" d="M86.4,49.93v1.13h-.32V50a.38.38,0,0,0-.42-.42.55.55,0,0,0-.44.29v1.21H84.9V49.31h.3v.24a.63.63,0,0,1,.54-.29A.64.64,0,0,1,86.4,49.93Z"/><path class="cls-1" d="M53,63.49l1.43,2.13V63.49h.32v2.66h-.33L53,64v2.12h-.32V63.49Z"/><path class="cls-1" d="M56.91,65.29a.38.38,0,0,1,0,.1H55.48a.59.59,0,0,0,.61.51.7.7,0,0,0,.53-.26l.2.21a1,1,0,0,1-.73.35.9.9,0,0,1-.92-.92.88.88,0,0,1,.88-.93A.86.86,0,0,1,56.91,65.29Zm-.32-.17a.53.53,0,0,0-.54-.47.54.54,0,0,0-.56.47Z"/><path class="cls-1" d="M57.4,64.4l.48,1.13.46-1.13h.22L59,65.53l.47-1.13h.33L59,66.23l-.58-1.32-.58,1.32-.8-1.83Z"/><path class="cls-1" d="M54.4,70a.88.88,0,0,1-.85.92.71.71,0,0,1-.6-.3v.26h-.29V68H53v1.34a.71.71,0,0,1,.57-.26A.88.88,0,0,1,54.4,70ZM53,70.35a.63.63,0,0,0,.52.31.63.63,0,0,0,0-1.26.63.63,0,0,0-.52.31Z"/><path class="cls-1" d="M56.22,69.75v1.16h-.29v-.26a.74.74,0,0,1-.59.3.6.6,0,1,1,0-1.18,1,1,0,0,1,.53.14v-.09a.41.41,0,0,0-.45-.42,1.21,1.21,0,0,0-.52.15l-.14-.27a1.39,1.39,0,0,1,.66-.17C56,69.11,56.22,69.42,56.22,69.75Zm-.31.66v-.25a.84.84,0,0,0-.46-.13c-.28,0-.45.14-.45.32s.21.32.4.32A.68.68,0,0,0,55.91,70.41Z"/><path class="cls-1" d="M56.78,68h.32v2.88h-.32Z"/><path class="cls-1" d="M59.12,69.75v1.16h-.3v-.26a.74.74,0,0,1-.59.3.6.6,0,1,1,0-1.18,1,1,0,0,1,.53.14v-.09a.41.41,0,0,0-.45-.42,1.21,1.21,0,0,0-.52.15l-.14-.27a1.39,1.39,0,0,1,.66-.17C58.87,69.11,59.12,69.42,59.12,69.75Zm-.32.66v-.25a.84.84,0,0,0-.46-.13c-.28,0-.45.14-.45.32s.21.32.4.32A.68.68,0,0,0,58.8,70.41Z"/><path class="cls-1" d="M61.1,69.78v1.13h-.32V69.83a.39.39,0,0,0-.42-.43.55.55,0,0,0-.44.3v1.21H59.6V69.15h.3v.25a.66.66,0,0,1,1.2.38Z"/><path class="cls-1" d="M63.09,70.61a1,1,0,0,1-.72.34.92.92,0,0,1,0-1.84.94.94,0,0,1,.7.31l-.22.19a.65.65,0,0,0-.48-.21.63.63,0,0,0,0,1.26.64.64,0,0,0,.51-.25Z"/><path class="cls-1" d="M65,70v.1H63.59a.6.6,0,0,0,.61.52.67.67,0,0,0,.52-.26l.21.21a1,1,0,0,1-.73.34.89.89,0,0,1-.92-.92.87.87,0,0,1,.88-.92A.85.85,0,0,1,65,70Zm-.31-.16a.53.53,0,0,0-.54-.48.54.54,0,0,0-.56.48Z"/><path class="cls-1" d="M65.78,130.12h1v1.16a1.56,1.56,0,0,1-1.05.35,1.38,1.38,0,0,1,0-2.75,1.25,1.25,0,0,1,1,.37l-.23.23a1,1,0,1,0-.75,1.84,1.23,1.23,0,0,0,.73-.19v-.7h-.66Z"/><path class="cls-1" d="M68.68,130.43v1.15h-.3v-.25a.72.72,0,0,1-.59.3.6.6,0,1,1,0-1.19,1,1,0,0,1,.53.15v-.1a.4.4,0,0,0-.45-.41,1.27,1.27,0,0,0-.52.14l-.14-.26a1.33,1.33,0,0,1,.66-.18A.68.68,0,0,1,68.68,130.43Zm-.32.65v-.25a.89.89,0,0,0-.46-.12c-.28,0-.45.13-.45.32s.21.32.4.32A.68.68,0,0,0,68.36,131.08Z"/><path class="cls-1" d="M69.46,129.83v.25a.68.68,0,0,1,.59-.3.93.93,0,0,1,0,1.85.75.75,0,0,1-.57-.26v1.09h-.32v-2.63Zm0,1.2a.63.63,0,0,0,.52.3.63.63,0,0,0,0-1.25.63.63,0,0,0-.52.3Z"/><path class="cls-1" d="M100.49,85.84l1.38,2.23,1.37-2.23h.46v4h-.48V86.7l-1.36,2.22-1.37-2.21v3.12H100v-4Z"/><path class="cls-1" d="M107,88.53a.81.81,0,0,1,0,.15h-2.12a.89.89,0,0,0,.9.77,1,1,0,0,0,.8-.38l.3.31a1.47,1.47,0,0,1-1.1.52,1.35,1.35,0,0,1-1.37-1.39,1.3,1.3,0,0,1,1.32-1.38A1.28,1.28,0,0,1,107,88.53Zm-.47-.25a.78.78,0,0,0-.81-.71.82.82,0,0,0-.84.71Z"/><path class="cls-1" d="M107.82,86a.32.32,0,0,1,.33.32.33.33,0,1,1-.65,0A.32.32,0,0,1,107.82,86Zm-.24,1.17h.48v2.63h-.48Z"/><path class="cls-1" d="M108.55,90.69a.52.52,0,0,0,.2.07c.13,0,.3,0,.3-.4V87.2h.48v3.2a.71.71,0,0,1-.71.81.79.79,0,0,1-.44-.12Zm.74-4.66a.32.32,0,0,1,.33.32.33.33,0,0,1-.33.33.32.32,0,0,1-.32-.33A.32.32,0,0,1,109.29,86Z"/><path class="cls-1" d="M110.67,86a.32.32,0,0,1,.33.32.33.33,0,0,1-.33.33.32.32,0,0,1-.32-.33A.32.32,0,0,1,110.67,86Zm-.24,1.17h.48v2.63h-.48Z"/><path class="cls-1" d="M111.4,90.69a.52.52,0,0,0,.2.07c.13,0,.3,0,.3-.4V87.2h.48v3.2a.71.71,0,0,1-.71.81.79.79,0,0,1-.44-.12Zm.74-4.66a.32.32,0,0,1,.32.32.33.33,0,1,1-.65,0A.32.32,0,0,1,112.14,86Z"/><path class="cls-1" d="M113.52,86a.32.32,0,0,1,.32.32.33.33,0,1,1-.65,0A.32.32,0,0,1,113.52,86Zm-.24,1.17h.48v2.63h-.48Z"/><path class="cls-1" d="M116.82,88.14v1.69h-.48V88.22a.59.59,0,0,0-.63-.65.84.84,0,0,0-.66.45v1.81h-.48V87.2H115v.37a.94.94,0,0,1,.81-.44A1,1,0,0,1,116.82,88.14Z"/><path class="cls-1" d="M119.49,89.5a1,1,0,0,1-.84.4,1.39,1.39,0,0,1,0-2.77,1,1,0,0,1,.88.45V87.2H120v2.64a1.29,1.29,0,0,1-1.38,1.37,1.59,1.59,0,0,1-1.15-.5l.29-.36a1.17,1.17,0,0,0,.86.41.81.81,0,0,0,.9-.9Zm0-1.48a.93.93,0,0,0-.77-.45.94.94,0,0,0,0,1.88.93.93,0,0,0,.77-.44Z"/><path class="cls-1" d="M120.71,88.89V87.2h.47v1.61a.58.58,0,0,0,.64.64.79.79,0,0,0,.65-.43V87.2H123v2.63h-.44v-.41a.93.93,0,0,1-.81.48A1,1,0,0,1,120.71,88.89Z"/><path class="cls-1" d="M103.61,94.79v1.69h-.48V94.87c0-.43-.22-.64-.57-.64a.67.67,0,0,0-.56.42v1.83h-.48V94.87c0-.43-.22-.64-.56-.64a.7.7,0,0,0-.57.42v1.83h-.48V93.85h.45v.39a.8.8,0,0,1,.73-.46.83.83,0,0,1,.82.49.86.86,0,0,1,.78-.49A.89.89,0,0,1,103.61,94.79Z"/><path class="cls-1" d="M106.53,94.75v1.73h-.44V96.1a1.13,1.13,0,0,1-.9.45.94.94,0,0,1-1-.9,1,1,0,0,1,1.05-.88,1.46,1.46,0,0,1,.79.22v-.14a.6.6,0,0,0-.67-.62,1.79,1.79,0,0,0-.78.22l-.2-.4a1.94,1.94,0,0,1,1-.27A1,1,0,0,1,106.53,94.75Zm-.48,1v-.37a1.24,1.24,0,0,0-.69-.19c-.41,0-.67.21-.67.48s.31.48.61.48A1,1,0,0,0,106.05,95.73Z"/><path class="cls-1" d="M109.68,95.18a.86.86,0,0,1,0,.16h-2.13a.9.9,0,0,0,.91.77,1,1,0,0,0,.79-.39l.31.31a1.47,1.47,0,0,1-1.1.52,1.34,1.34,0,0,1-1.37-1.38,1.31,1.31,0,0,1,1.31-1.39A1.29,1.29,0,0,1,109.68,95.18Zm-.47-.24a.8.8,0,0,0-.82-.71.81.81,0,0,0-.83.71Z"/><path class="cls-1" d="M113,94.69c-.59-.27-1.1-.54-1.1-1.22a1.09,1.09,0,0,1,1.15-1,1.42,1.42,0,0,1,1.14.58l-.36.29a1,1,0,0,0-.78-.42.62.62,0,0,0-.67.59c0,.41.34.57.89.82s1,.54,1,1.18A1.12,1.12,0,0,1,113,96.55a1.39,1.39,0,0,1-1.27-.83l.4-.24a1,1,0,0,0,.87.62.67.67,0,0,0,.75-.63C113.76,95.05,113.43,94.89,113,94.69Z"/><path class="cls-1" d="M114.69,93.85h.51v-.8h.48v.8h.82v.43h-.82V95.7c0,.26.12.41.38.41a.6.6,0,0,0,.3-.11l.18.39a1,1,0,0,1-.55.16.77.77,0,0,1-.79-.82V94.28h-.51Z"/><path class="cls-1" d="M119.25,94.75v1.73h-.44V96.1a1.13,1.13,0,0,1-.9.45.94.94,0,0,1-1-.9,1,1,0,0,1,1-.88,1.46,1.46,0,0,1,.79.22v-.14a.6.6,0,0,0-.67-.62,1.79,1.79,0,0,0-.78.22l-.2-.4a1.94,1.94,0,0,1,1-.27A1,1,0,0,1,119.25,94.75Zm-.48,1v-.37a1.24,1.24,0,0,0-.69-.19c-.41,0-.67.21-.67.48s.31.48.61.48A1,1,0,0,0,118.77,95.73Z"/><path class="cls-1" d="M120.27,95.9a.33.33,0,1,1,0,.65.33.33,0,0,1,0-.65Z"/><path class="cls-1" d="M54.59,91.32V90.18h.46V93h-.46V91.8H51.06v-.48Z"/><path class="cls-1" d="M52.79,95.59H51.06v-.44h.38a1.13,1.13,0,0,1-.45-.9.9.9,0,1,1,1.78.06,1.48,1.48,0,0,1-.22.8h.14a.61.61,0,0,0,.63-.67,1.8,1.8,0,0,0-.23-.79l.4-.2a2,2,0,0,1,.27,1A1,1,0,0,1,52.79,95.59Zm-1-.48h.37a1.29,1.29,0,0,0,.19-.69c0-.41-.21-.67-.48-.67s-.48.31-.48.6A1,1,0,0,0,51.81,95.11Z"/><path class="cls-1" d="M52.34,96.9H51.06v-.48h4.31v.48H52.52L53.69,98v.62l-1.24-1.23-1.39,1.34v-.67Z"/><path class="cls-1" d="M52.36,101.55H52.2V99.42a.89.89,0,0,0-.77.91,1,1,0,0,0,.39.79l-.31.3a1.47,1.47,0,0,1-.52-1.09A1.35,1.35,0,0,1,52.37,99a1.32,1.32,0,0,1,1.39,1.32A1.28,1.28,0,0,1,52.36,101.55Zm.24-.47a.79.79,0,0,0,.72-.81.82.82,0,0,0-.72-.84Z"/><path class="cls-1" d="M51.85,102.26a1,1,0,0,0-.43.8c0,.27.12.57.33.57s.34-.19.42-.6c.11-.56.34-1,.83-1a.88.88,0,0,1,.76,1,1.35,1.35,0,0,1-.4,1L53,103.7a1,1,0,0,0,.29-.66c0-.34-.17-.51-.34-.51s-.31.21-.4.64-.29.93-.83.93-.77-.53-.77-1a1.45,1.45,0,0,1,.55-1.13Z"/><path class="cls-1" d="M52.75,107.05H51.06v-.48h1.61a.59.59,0,0,0,.65-.64.83.83,0,0,0-.45-.65H51.06v-.48h4.31v.48h-2a.91.91,0,0,1,.39.77A1,1,0,0,1,52.75,107.05Z"/><path class="cls-1" d="M53.69,107.86v.48H51.06v-.48Zm1.17.24a.33.33,0,1,1-.32-.32A.33.33,0,0,1,54.86,108.1Z"/><path class="cls-1" d="M53.69,108.93v.51h.81v.48h-.81v.82h-.43v-.82H51.84c-.26,0-.41.13-.41.38a.66.66,0,0,0,.11.31l-.39.17a1,1,0,0,1-.16-.54.77.77,0,0,1,.83-.8h1.44v-.51Z"/><path class="cls-1" d="M52.79,113.49H51.06v-.44h.38a1.1,1.1,0,0,1-.45-.89.93.93,0,0,1,.9-1,.94.94,0,0,1,.88,1,1.42,1.42,0,0,1-.22.79h.14a.6.6,0,0,0,.63-.66,1.8,1.8,0,0,0-.23-.79l.4-.2a2,2,0,0,1,.27,1A1,1,0,0,1,52.79,113.49Zm-1-.48h.37a1.24,1.24,0,0,0,.19-.69c0-.41-.21-.66-.48-.66s-.48.3-.48.6A1,1,0,0,0,51.81,113Z"/><path class="cls-1" d="M52.85,117c.27-.58.54-1.09,1.22-1.09a1.09,1.09,0,0,1,1,1.15,1.41,1.41,0,0,1-.58,1.13l-.29-.35a1,1,0,0,0,.41-.78.62.62,0,0,0-.59-.67c-.41,0-.57.34-.82.89s-.53,1-1.18,1A1.13,1.13,0,0,1,51,117a1.39,1.39,0,0,1,.83-1.27l.24.4a1,1,0,0,0-.61.87.67.67,0,0,0,.62.75C52.49,117.76,52.65,117.43,52.85,117Z"/><path class="cls-1" d="M53.69,118.68v.52h.81v.48h-.81v.82h-.43v-.82H51.84c-.26,0-.41.12-.41.38a.6.6,0,0,0,.11.3l-.39.18A1.06,1.06,0,0,1,51,120a.76.76,0,0,1,.83-.79h1.44v-.52Z"/><path class="cls-1" d="M51.64,121.35a.33.33,0,1,1-.33-.33A.33.33,0,0,1,51.64,121.35Z"/><path class="cls-1" d="M112.1,27.42A1.47,1.47,0,0,0,111,27a1.62,1.62,0,0,0,0,3.22,1.58,1.58,0,0,0,1.15-.53l.32.33a2,2,0,0,1-1.47.65,2.07,2.07,0,0,1,0-4.13,1.93,1.93,0,0,1,1.43.61Z"/><path class="cls-1" d="M115.14,28.82v1.73h-.44v-.38a1.1,1.1,0,0,1-.89.45.93.93,0,0,1-1-.9.94.94,0,0,1,1-.88,1.42,1.42,0,0,1,.79.22v-.14a.59.59,0,0,0-.66-.62,1.86,1.86,0,0,0-.79.22l-.2-.4a2,2,0,0,1,1-.27A1,1,0,0,1,115.14,28.82Zm-.48,1v-.37a1.24,1.24,0,0,0-.69-.19c-.41,0-.66.21-.66.48s.3.48.6.48A1,1,0,0,0,114.66,29.8Z"/><path class="cls-1" d="M115.64,27.92h.52v-.8h.48v.8h.82v.43h-.82v1.42c0,.26.12.41.38.41a.6.6,0,0,0,.3-.11l.18.39a1.06,1.06,0,0,1-.55.16.76.76,0,0,1-.79-.83V28.35h-.52Z"/><path class="cls-1" d="M118.18,29.76a1,1,0,0,0,.8.43c.26,0,.57-.12.57-.33s-.2-.34-.6-.42c-.57-.11-1-.34-1-.83a.88.88,0,0,1,1-.76,1.39,1.39,0,0,1,1,.4l-.32.32a1,1,0,0,0-.66-.29c-.33,0-.5.17-.5.34s.21.31.64.4.93.3.93.83-.54.77-1,.77a1.43,1.43,0,0,1-1.13-.55Z"/><path class="cls-1" d="M123.37,28.76c-.58-.27-1.09-.54-1.09-1.22a1.1,1.1,0,0,1,1.15-1.05,1.41,1.41,0,0,1,1.13.59l-.36.29a1,1,0,0,0-.77-.42.62.62,0,0,0-.67.59c0,.41.34.57.89.82s1,.53,1,1.18a1.13,1.13,0,0,1-1.24,1.08,1.38,1.38,0,0,1-1.27-.83l.4-.24a1,1,0,0,0,.87.62.68.68,0,0,0,.75-.63C124.15,29.12,123.82,29,123.37,28.76Z"/><path class="cls-1" d="M125.07,27.92h.52v-.8h.48v.8h.82v.43h-.82v1.42c0,.26.12.41.38.41a.6.6,0,0,0,.3-.11l.18.39a1.06,1.06,0,0,1-.55.16.76.76,0,0,1-.79-.83V28.35h-.52Z"/><path class="cls-1" d="M127.74,30a.33.33,0,1,1-.33.33A.33.33,0,0,1,127.74,30Z"/><path class="cls-1" d="M13.22,81.54l1.37,2.23L16,81.54h.46v4h-.48V82.4l-1.36,2.22-1.36-2.21v3.12h-.48v-4Z"/><path class="cls-1" d="M19.67,84.23v.15H17.54a.89.89,0,0,0,.91.77,1,1,0,0,0,.79-.39l.3.32a1.47,1.47,0,0,1-1.09.52,1.35,1.35,0,0,1-1.37-1.39,1.31,1.31,0,0,1,1.31-1.39A1.29,1.29,0,0,1,19.67,84.23ZM19.21,84a.8.8,0,0,0-.82-.71.82.82,0,0,0-.84.71Z"/><path class="cls-1" d="M20.55,81.72a.33.33,0,0,1,.32.33.33.33,0,0,1-.65,0A.33.33,0,0,1,20.55,81.72Zm-.24,1.17h.48v2.64h-.48Z"/><path class="cls-1" d="M21.27,86.39a.52.52,0,0,0,.2.07c.13,0,.3,0,.3-.4V82.89h.48V86.1a.71.71,0,0,1-.7.81,1,1,0,0,1-.45-.12ZM22,81.72a.33.33,0,0,1,.33.33.33.33,0,0,1-.65,0A.33.33,0,0,1,22,81.72Z"/><path class="cls-1" d="M23.4,81.72a.33.33,0,0,1,.32.33.33.33,0,0,1-.65,0A.33.33,0,0,1,23.4,81.72Zm-.24,1.17h.47v2.64h-.47Z"/><path class="cls-1" d="M27.21,83.73c-.58-.27-1.09-.53-1.09-1.21a1.09,1.09,0,0,1,1.15-1,1.41,1.41,0,0,1,1.13.58l-.36.29a1,1,0,0,0-.77-.42.62.62,0,0,0-.67.6c0,.4.34.56.88.81s1,.54,1,1.18a1.13,1.13,0,0,1-1.24,1.09A1.38,1.38,0,0,1,26,84.76l.4-.24a1,1,0,0,0,.87.62.68.68,0,0,0,.75-.63C28,84.1,27.66,83.94,27.21,83.73Z"/><path class="cls-1" d="M28.91,82.89h.51v-.8h.48v.8h.82v.44H29.9v1.42a.36.36,0,0,0,.39.4.65.65,0,0,0,.3-.11l.17.4a1.11,1.11,0,0,1-.54.16.78.78,0,0,1-.8-.83V83.33h-.51Z"/><path class="cls-1" d="M31.57,85a.32.32,0,0,1,.33.32.33.33,0,1,1-.65,0A.32.32,0,0,1,31.57,85Z"/><path class="cls-1" d="M144,18h0V17H95.69a1,1,0,0,1-1-1V1A1,1,0,0,0,93.79,0H90.94a1,1,0,0,0-1,1V16.08A1,1,0,0,1,89,17H72.75l-.21,0L31,7.59a.94.94,0,0,1-.45-.24L23.11.26a1,1,0,0,0-1.35,0h0a1,1,0,0,0,0,1.35l7.83,7.45a.91.91,0,0,0,.44.24L46.23,13a1,1,0,0,1,.74.93V30.86a1,1,0,0,1-.95.95H33.82l-.34-.06-31.86-12a.94.94,0,0,0-1.22.55l-.34.89a.94.94,0,0,0,.56,1.22l10.85,4.09a.94.94,0,0,1,.62.88v4.37a1,1,0,0,1-.95.95H1a1,1,0,0,0-.95.95H0a1,1,0,0,0,1,1H11.14a1,1,0,0,1,.95,1V64.83a1,1,0,0,1-1.26.9l-9.58-3.2a1,1,0,0,0-1.2.6h0a.94.94,0,0,0,.6,1.2l27.83,9.36a1,1,0,0,1-.3,1.85H1a1,1,0,0,0-.95.95v2.85a1,1,0,0,0,1,1H46a1,1,0,0,1,.95.95v53.94a1,1,0,0,1-.95.95H1a1,1,0,0,0-.95,1V139a1,1,0,0,0,1,1H46a1,1,0,0,1,.95.95v4.86h2.85v-4.86a1,1,0,0,1,1-.95H68a1,1,0,0,1,1,.95v4.86h2.85v-4.86a1,1,0,0,1,1-.95H90.91a1,1,0,0,1,.77.39l27.55,38h4.7L95.78,139.51a5.68,5.68,0,0,1-1.07-3.3l0-55a1,1,0,0,1,1-.95H144c.53,0,0-.42,0-1V76.49c0-.53.53-.95,0-.95H95.69a1,1,0,0,1-1-1V46.43a1,1,0,0,1,1-1H144v-.95H95.69a1,1,0,0,1-1-1v-8a1,1,0,0,1,1-1H144V31.81H95.69a1,1,0,0,1-1-.95v-11a1,1,0,0,1,1-.95H144Zm-128.71,10,7.79,2.93a1,1,0,0,1-.34,1.84H14.94a1,1,0,0,1-.95-.95V28.83A1,1,0,0,1,15.28,27.94ZM14,35.56a1,1,0,0,1,.95-1H33l.12,0H46a1,1,0,0,1,.95,1V46.34a1,1,0,0,1-.95,1H20.51a1,1,0,0,0-1,1v19.1a.94.94,0,0,1-1.25.9L14.64,67a1,1,0,0,1-.65-.9ZM38.68,75.12,21.16,69.21a1,1,0,0,1-.65-.9V49.2a1,1,0,0,1,1-1H46a1,1,0,0,1,.95,1V74.59a1,1,0,0,1-.95,1H41.21A7.81,7.81,0,0,1,38.68,75.12Zm50.36,61H50.77a1,1,0,0,1-1-.95V81.24a1,1,0,0,1,1-.95H89a1,1,0,0,1,.95.95v53.94A1,1,0,0,1,89,136.13Zm0-60.59H50.77a1,1,0,0,1-1-1V46.43a1,1,0,0,1,1-1H89a1,1,0,0,1,.95,1V74.59A1,1,0,0,1,89,75.54Zm0-31H50.77a1,1,0,0,1-1-1v-8a1,1,0,0,1,1-1H89a1,1,0,0,1,.95,1v8A1,1,0,0,1,89,44.53Zm0-12.72H50.77a1,1,0,0,1-1-.95V15A1,1,0,0,1,51,14.07l21.35,4.84.1,0H89a1,1,0,0,1,.95.95v11A1,1,0,0,1,89,31.81Z"/><circle class="cls-1" cx="45.09" cy="36.5" r="0.85"/><circle class="cls-1" cx="87.68" cy="47.77" r="0.85"/><circle class="cls-1" cx="87.68" cy="73.37" r="0.85"/><circle class="cls-1" cx="87.68" cy="82.46" r="0.85"/><path class="cls-1" d="M72.65,106c-.39-.18-.73-.36-.73-.81a.72.72,0,0,1,.76-.7,1,1,0,0,1,.76.38l-.24.2a.68.68,0,0,0-.52-.28.41.41,0,0,0-.44.4c0,.27.22.37.59.54s.66.36.66.79a.75.75,0,0,1-.83.72.91.91,0,0,1-.84-.56l.26-.16a.66.66,0,0,0,.58.41c.26,0,.5-.14.5-.41S72.94,106.09,72.65,106Z"/><path class="cls-1" d="M75.62,106.27a.91.91,0,1,1-.91-.92A.91.91,0,0,1,75.62,106.27Zm-.32,0a.59.59,0,1,0-.59.63A.59.59,0,0,0,75.3,106.27Z"/><path class="cls-1" d="M75.82,105.4h.36v-.61a.54.54,0,0,1,.54-.56.67.67,0,0,1,.37.11l-.12.26a.41.41,0,0,0-.2-.07.25.25,0,0,0-.27.28v.59H77v.29H76.5v1.46h-.32v-1.46h-.36Z"/><path class="cls-1" d="M77.14,105.4h.34v-.54h.32v.54h.55v.29H77.8v.94c0,.17.08.27.25.27a.47.47,0,0,0,.21-.07l.11.26a.66.66,0,0,1-.36.11.51.51,0,0,1-.53-.55v-1h-.34Z"/><path class="cls-1" d="M80.53,106.27a.89.89,0,0,1-.86.93.68.68,0,0,1-.59-.3v.25h-.29v-2.87h.32v1.33a.7.7,0,0,1,.56-.26A.89.89,0,0,1,80.53,106.27Zm-1.42.33a.61.61,0,0,0,.51.3.63.63,0,0,0,0-1.25.61.61,0,0,0-.51.3Z"/><path class="cls-1" d="M82.35,106v1.15h-.29v-.25a.75.75,0,0,1-.6.3.62.62,0,0,1-.65-.6.63.63,0,0,1,.69-.59.94.94,0,0,1,.53.15v-.1a.4.4,0,0,0-.44-.41,1.22,1.22,0,0,0-.53.15l-.13-.27a1.29,1.29,0,0,1,.66-.18A.68.68,0,0,1,82.35,106Zm-.32.65v-.25a.85.85,0,0,0-.46-.12c-.27,0-.44.14-.44.32s.2.32.4.32A.67.67,0,0,0,82,106.65Z"/><path class="cls-1" d="M84.34,106v1.13H84v-1.07a.39.39,0,0,0-.43-.43.54.54,0,0,0-.43.29v1.21h-.32V105.4h.29v.24a.63.63,0,0,1,.54-.29A.65.65,0,0,1,84.34,106Z"/><path class="cls-1" d="M85.21,106.3v.85h-.32v-2.87h.32v1.9l.75-.78h.42l-.82.83.89.92H86Z"/><circle class="cls-1" cx="87.68" cy="103.27" r="0.85"/><path class="cls-1" d="M101.19,120.8l-1.49,2.35h1.42v.31h-2l1.49-2.36H99.26v-.3Z"/><path class="cls-1" d="M103.19,122.58a.91.91,0,1,1-.9-.92A.89.89,0,0,1,103.19,122.58Zm-.32,0a.59.59,0,0,0-.58-.63.63.63,0,0,0,0,1.26A.59.59,0,0,0,102.87,122.58Z"/><path class="cls-1" d="M104,121.7h.72v-.6a.54.54,0,0,1,.54-.56.76.76,0,0,1,.37.1l-.12.26a.51.51,0,0,0-.2-.06.25.25,0,0,0-.27.28v.58h.46V122h-.46v1.47h-.32V122H104v1.47h-.32V122h-.33v-.29h.33v-.6a.54.54,0,0,1,.54-.56.76.76,0,0,1,.37.1l-.12.26a.52.52,0,0,0-.21-.06.25.25,0,0,0-.26.28Z"/><circle class="cls-1" cx="97.41" cy="125.3" r="0.85"/><circle class="cls-1" cx="71.87" cy="133.85" r="0.85"/><path class="cls-1" d="M32.57,124.15h.31v2.66h-.31v-1.22H31.23v1.22h-.32v-2.66h.32v1.14h1.34Z"/><path class="cls-1" d="M35.13,125.93a.91.91,0,1,1-.91-.92A.9.9,0,0,1,35.13,125.93Zm-.32,0a.59.59,0,1,0-.59.63A.59.59,0,0,0,34.81,125.93Z"/><path class="cls-1" d="M35.6,126.28a.69.69,0,0,0,.53.28c.18,0,.38-.07.38-.21s-.13-.23-.4-.28-.64-.23-.64-.56a.59.59,0,0,1,.65-.5.93.93,0,0,1,.65.26l-.21.22a.65.65,0,0,0-.44-.2c-.23,0-.34.11-.34.23s.14.2.43.26.62.2.62.56-.36.51-.7.51a1,1,0,0,1-.75-.37Z"/><path class="cls-1" d="M38.79,125.68v1.13h-.32v-1.08a.39.39,0,0,0-.42-.43.57.57,0,0,0-.44.3v1.21h-.32v-2.88h.32v1.33a.66.66,0,0,1,.52-.25A.63.63,0,0,1,38.79,125.68Z"/><path class="cls-1" d="M39.5,124.27a.22.22,0,0,1,.21.22.21.21,0,0,1-.21.21.21.21,0,0,1-.22-.21A.22.22,0,0,1,39.5,124.27Zm-.16.78h.32v1.76h-.32Z"/><path class="cls-1" d="M41.7,125.68v1.13h-.32v-1.08a.39.39,0,0,0-.42-.43.55.55,0,0,0-.44.3v1.21H40.2v-1.76h.3v.25a.66.66,0,0,1,1.2.38Z"/><path class="cls-1" d="M43.87,125.93A.91.91,0,1,1,43,125,.89.89,0,0,1,43.87,125.93Zm-.32,0a.59.59,0,1,0-1.17,0,.59.59,0,1,0,1.17,0Z"/><path class="cls-1" d="M35.35,129.47a1,1,0,0,0-.73-.31,1.07,1.07,0,0,0,0,2.14,1,1,0,0,0,.76-.35l.22.22a1.34,1.34,0,0,1-1,.44,1.38,1.38,0,0,1,0-2.76,1.27,1.27,0,0,1,1,.41Z"/><path class="cls-1" d="M37.61,130.68a.91.91,0,1,1-.91-.92A.91.91,0,0,1,37.61,130.68Zm-.32,0a.59.59,0,1,0-.59.63A.59.59,0,0,0,37.29,130.68Z"/><path class="cls-1" d="M38.45,129.8h.73v-.6a.54.54,0,0,1,.54-.56.73.73,0,0,1,.36.1L40,129a.47.47,0,0,0-.21-.07.25.25,0,0,0-.26.28v.58H40v.29H39.5v1.47h-.32v-1.47h-.73v1.47h-.31v-1.47h-.33v-.29h.33v-.6a.53.53,0,0,1,.53-.56.74.74,0,0,1,.37.1l-.11.27a.47.47,0,0,0-.21-.07.25.25,0,0,0-.27.28Z"/><path class="cls-1" d="M41.9,130.69a.45.45,0,0,1,0,.11H40.47a.6.6,0,0,0,.61.51.7.7,0,0,0,.53-.26l.2.21a1,1,0,0,1-.73.35.91.91,0,0,1-.92-.93.87.87,0,0,1,.88-.92A.86.86,0,0,1,41.9,130.69Zm-.32-.16a.52.52,0,0,0-.54-.47.54.54,0,0,0-.56.47Z"/><path class="cls-1" d="M43.87,130.69v.11H42.45a.59.59,0,0,0,.61.51.67.67,0,0,0,.52-.26l.21.21a1,1,0,0,1-.73.35.9.9,0,0,1-.92-.93.87.87,0,0,1,.88-.92A.85.85,0,0,1,43.87,130.69Zm-.31-.16a.52.52,0,0,0-.54-.47.54.54,0,0,0-.56.47Z"/><circle class="cls-1" cx="44.85" cy="133.85" r="0.85"/><circle class="cls-1" cx="51.74" cy="73.37" r="0.85"/><path class="cls-1" d="M78.1,27.93,79,26.84h.35l-1,1.13,1.09,1.19h-.37l-1-1.11v1.11h-.28V26.84h.28Z"/><path class="cls-1" d="M81.2,28.4a.8.8,0,1,1-.8-.81A.79.79,0,0,1,81.2,28.4Zm-.28,0a.52.52,0,1,0-.52.55A.52.52,0,0,0,80.92,28.4Z"/><path class="cls-1" d="M83.1,28.4a.77.77,0,0,1-.75.8.6.6,0,0,1-.52-.26v.22h-.25V26.65h.28v1.17a.59.59,0,0,1,.49-.23A.78.78,0,0,1,83.1,28.4Zm-1.24.28a.53.53,0,0,0,.45.27.55.55,0,0,0,0-1.1.53.53,0,0,0-.45.26Z"/><path class="cls-1" d="M84.69,28.15v1h-.25v-.22a.67.67,0,0,1-.53.26.55.55,0,0,1-.57-.52.55.55,0,0,1,.61-.51.89.89,0,0,1,.46.12v-.08a.35.35,0,0,0-.39-.36,1,1,0,0,0-.45.13l-.12-.23a1.12,1.12,0,0,1,.57-.16C84.48,27.59,84.69,27.87,84.69,28.15Zm-.28.58v-.22a.72.72,0,0,0-.4-.11c-.24,0-.39.12-.39.28s.18.28.35.28A.58.58,0,0,0,84.41,28.73Z"/><path class="cls-1" d="M86.43,28.18v1h-.28v-.94a.34.34,0,0,0-.37-.37.48.48,0,0,0-.38.26v1.05h-.28V27.63h.26v.21a.55.55,0,0,1,.47-.25A.56.56,0,0,1,86.43,28.18Z"/><circle class="cls-1" cx="87.87" cy="25.79" r="0.85"/><path class="cls-1" d="M109.56,2.23l2.14,3.19V2.23h.48v4h-.5L109.54,3v3.2h-.47v-4Z"/><path class="cls-1" d="M124,3.82a.34.34,0,0,1-.34-.34V.06h-1V3.48a.34.34,0,0,1-.34.34h-3.24a.19.19,0,0,1-.1-.36l2.51-1.57-.51-.8-4.91,3.05a.34.34,0,0,0,.18.63h6.07a.34.34,0,0,1,.34.34v3.4h1V5.11a.34.34,0,0,1,.34-.34h4.17V3.81Z"/><path class="cls-4" d="M26.18,37.28a4.32,4.32,0,1,0-8.64,0v6.59a.3.3,0,1,0,.6,0V40.31a.26.26,0,0,1,.46-.18l0,0a.28.28,0,0,1,.07.17v3.56a.3.3,0,1,0,.6,0V41.26a.26.26,0,0,1,.4-.23h0a.29.29,0,0,1,.14.23v2.62a.3.3,0,1,0,.6,0V41.73a.26.26,0,0,1,.33-.26h0a.27.27,0,0,1,.2.25v2.15a.3.3,0,1,0,.6,0v-2a.27.27,0,0,1,.27-.27h0a.27.27,0,0,1,.27.27v2a.31.31,0,0,0,.29.31.3.3,0,0,0,.32-.3V41.73a.26.26,0,0,1,.19-.25h0a.26.26,0,0,1,.33.26v2.15a.31.31,0,0,0,.29.31.3.3,0,0,0,.32-.3V41.26A.28.28,0,0,1,24,41h0a.26.26,0,0,1,.4.22v2.63a.31.31,0,0,0,.29.31.3.3,0,0,0,.32-.3V40.32a.27.27,0,0,1,.06-.17l0,0a.26.26,0,0,1,.46.17v3.58a.31.31,0,0,0,.29.31.29.29,0,0,0,.31-.3v-6.6Z"/><path class="cls-4" d="M91.84,77.44H48.79V33.72a.87.87,0,0,0-.87-.87H29.69l-.32-.65L27.62,33a.27.27,0,0,0,0,.47l1.75.77.32-.65H47.56a.51.51,0,0,1,.51.51V145.74h.72V78.16H91.48a.51.51,0,0,1,.52.51V91.3h.71v-13A.87.87,0,0,0,91.84,77.44Z"/><path class="cls-3" d="M38.4,145.74h36A2.54,2.54,0,0,1,77,148.29v8.47A2.25,2.25,0,0,1,74.73,159H38.4a2.25,2.25,0,0,1-2.25-2.25V148A2.25,2.25,0,0,1,38.4,145.74Z"/><path class="cls-1" d="M43.29,149.91h.48v4h-.48v-1.82h-2v1.82h-.47v-4h.47v1.72h2Z"/><path class="cls-1" d="M46.79,152.17v1.74h-.44v-.39a1.13,1.13,0,0,1-.9.45.94.94,0,0,1-1-.9,1,1,0,0,1,1.05-.88,1.46,1.46,0,0,1,.79.22v-.14a.6.6,0,0,0-.67-.62,1.79,1.79,0,0,0-.78.22l-.2-.4a1.94,1.94,0,0,1,1-.27A1,1,0,0,1,46.79,152.17Zm-.48,1v-.37a1.24,1.24,0,0,0-.69-.19c-.41,0-.67.21-.67.48s.31.48.61.48A1,1,0,0,0,46.31,153.15Z"/><path class="cls-1" d="M49.08,151.27l-.17.43a.81.81,0,0,0-.31,0,.73.73,0,0,0-.6.44v1.82h-.48v-2.64H48v.41a.9.9,0,0,1,.74-.48A1,1,0,0,1,49.08,151.27Z"/><path class="cls-1" d="M51.65,152.17v1.74h-.44v-.39a1.13,1.13,0,0,1-.9.45.94.94,0,0,1-1-.9,1,1,0,0,1,1.05-.88,1.46,1.46,0,0,1,.79.22v-.14a.6.6,0,0,0-.67-.62,1.79,1.79,0,0,0-.78.22l-.2-.4a1.94,1.94,0,0,1,1-.27A1,1,0,0,1,51.65,152.17Zm-.48,1v-.37a1.24,1.24,0,0,0-.69-.19c-.41,0-.67.21-.67.48s.31.48.61.48A1,1,0,0,0,51.17,153.15Z"/><path class="cls-1" d="M52.05,154.77a.52.52,0,0,0,.2.07c.13,0,.3,0,.3-.4v-3.17H53v3.21a.7.7,0,0,1-.71.8.79.79,0,0,1-.44-.12Zm.74-4.67a.33.33,0,1,1,0,.65.33.33,0,0,1,0-.65Z"/><path class="cls-1" d="M53.85,153v-1.69h.48v1.61a.58.58,0,0,0,.63.65.79.79,0,0,0,.65-.43v-1.83h.48v2.64h-.44v-.41a.93.93,0,0,1-.81.47A1,1,0,0,1,53.85,153Z"/><path class="cls-1" d="M57.41,152.63v1.28h-.48V149.6h.48v2.84l1.12-1.17h.63l-1.23,1.24,1.33,1.4H58.6Z"/><path class="cls-1" d="M59.64,153v-1.69h.48v1.61a.59.59,0,0,0,.63.65.79.79,0,0,0,.66-.43v-1.83h.48v2.64h-.45v-.41a.93.93,0,0,1-.81.47A1,1,0,0,1,59.64,153Z"/><path class="cls-1" d="M65.38,152.11c-.58-.27-1.1-.54-1.1-1.21a1.1,1.1,0,0,1,1.16-1.05,1.41,1.41,0,0,1,1.13.58l-.36.29a1,1,0,0,0-.77-.42.63.63,0,0,0-.68.6c0,.4.35.56.89.81s1,.54,1,1.18A1.12,1.12,0,0,1,65.41,154a1.38,1.38,0,0,1-1.27-.83l.4-.24a1,1,0,0,0,.87.62.67.67,0,0,0,.74-.63C66.15,152.47,65.82,152.31,65.38,152.11Z"/><path class="cls-1" d="M67.08,151.27h.51v-.8h.48v.8h.82v.43h-.82v1.42c0,.26.13.41.38.41a.66.66,0,0,0,.31-.11l.17.39a1,1,0,0,1-.54.16.77.77,0,0,1-.8-.82V151.7h-.51Z"/><path class="cls-1" d="M71.64,152.17v1.74H71.2v-.39a1.1,1.1,0,0,1-.89.45.93.93,0,0,1-1-.9.94.94,0,0,1,1-.88,1.42,1.42,0,0,1,.79.22v-.14a.59.59,0,0,0-.66-.62,1.86,1.86,0,0,0-.79.22l-.2-.4a2,2,0,0,1,1-.27A1,1,0,0,1,71.64,152.17Zm-.48,1v-.37a1.24,1.24,0,0,0-.69-.19c-.41,0-.66.21-.66.48s.3.48.6.48A1,1,0,0,0,71.16,153.15Z"/><path class="cls-1" d="M72.66,153.32a.33.33,0,0,1,.33.33.33.33,0,0,1-.65,0A.33.33,0,0,1,72.66,153.32Z"/></g></g></svg>