<svg xmlns="http://www.w3.org/2000/svg" viewBox="1549.748 437.874 334.6 12.822"><defs><style>.a{fill:#00554d;stroke:rgba(0,0,0,0);}</style></defs><path class="a" d="M-162.672-7.788V-8.952a15.719,15.719,0,0,1-3.336.336,18.107,18.107,0,0,1-2.9-.228l.216,1.176c.444.036.852.072,1.968.072A34.443,34.443,0,0,0-162.672-7.788Zm1.116,7.5-.108-1.272a10.838,10.838,0,0,1-1.3.264,24.309,24.309,0,0,1-3.228.216c-.6,0-2.424,0-2.424-1a2.287,2.287,0,0,1,.852-1.332l-.768-.684a3.023,3.023,0,0,0-1.224,2.1c0,1.68,1.92,1.9,4.38,1.9C-164.136-.1-163.452-.144-161.556-.288Zm15.432-4.524A4.263,4.263,0,0,0-147.2-7.68a4.821,4.821,0,0,0-3.768-1.5,5.09,5.09,0,0,0-3.936,1.692,4.739,4.739,0,0,0-1.308,3.3A4.145,4.145,0,0,0-154.752-.96a1.573,1.573,0,0,0,1.02.408c.684,0,1.284-1.3,1.512-1.788a20.249,20.249,0,0,0,1.5-5.82,3.152,3.152,0,0,1,1.644.348A3.1,3.1,0,0,1-147.216-5a4.291,4.291,0,0,1-.912,2.688,5.017,5.017,0,0,1-2.664,1.38l.912,1A4.92,4.92,0,0,0-146.124-4.812Zm-5.688-3.252a17.04,17.04,0,0,1-1.3,5.028c-.144.324-.456,1.044-.876,1.044-.5,0-1.164-1.128-1.164-2.2a3.949,3.949,0,0,1,3.024-3.84Zm20.724,4.332a8.913,8.913,0,0,1-2.256-.432,6.883,6.883,0,0,1-2.58-1.368A26.833,26.833,0,0,0-133.488-8.3l-.408-.468c-1.392.084-1.7.1-2.2.1h-1.344c.12-.144.144-.192.4-.528.144-.012.48-.048.48-.24,0-.1-.108-.144-.18-.18l-1.212-.5a6.149,6.149,0,0,1-3.924,3.336l.96.972a9.867,9.867,0,0,0,2.124-1.428A7.766,7.766,0,0,0-137.544-5.5a9.207,9.207,0,0,1-4.944,1.824l.828,1.152a11.441,11.441,0,0,0,2.772-.936A12.671,12.671,0,0,0-136.764-4.8a8.885,8.885,0,0,0,2.232,1.416,11.438,11.438,0,0,0,2.664.828Zm-4.368-4.032a6.5,6.5,0,0,1-1.3,1.524,4.588,4.588,0,0,1-.936-1.524ZM-135.5-2.7a6.857,6.857,0,0,0-2.2-1.068l-.672,1a4.352,4.352,0,0,1,2.2,1.1Zm1.536,2.652a22.977,22.977,0,0,0-5.76-1.716l-.5,1.116A14.653,14.653,0,0,1-134.484,1Zm9.72-.252a11.584,11.584,0,0,0-2.58-2.292l-.828.816a7.962,7.962,0,0,1,2.484,2.46Zm20.7-2.544a2.859,2.859,0,0,0-.684-1.848,3.121,3.121,0,0,0-1.644-.948c.144-.48.168-.528.216-.708l-1.212-.168a2.61,2.61,0,0,1-.108.72,3.606,3.606,0,0,0-1.512.18,5.618,5.618,0,0,1,.132-1.14,33.827,33.827,0,0,0,3.444-.732l.084-1.14a11.79,11.79,0,0,1-3.348.912c.132-.636.192-.876.288-1.224.324-.2.36-.228.36-.36,0-.084-.024-.1-.24-.156l-1.248-.336a21.032,21.032,0,0,0-.324,2.232c-.288.024-.528.036-.9.036a5.368,5.368,0,0,1-1.608-.168l.432,1.152a17.849,17.849,0,0,0,1.992-.108,6.429,6.429,0,0,0-.084,1.332,4.134,4.134,0,0,0-2.916,3.732A1.434,1.434,0,0,0-110.94.06a3.191,3.191,0,0,0,1.992-.9,4.953,4.953,0,0,0,.24.6l.984-.66a4.163,4.163,0,0,1-.288-.744,9.484,9.484,0,0,0,1.836-3.084,1.809,1.809,0,0,1,1.512,1.848c0,1.32-1.2,2.3-2.916,2.544l.732.948A3.87,3.87,0,0,0-103.548-2.844Zm-3.7-2.052a6.663,6.663,0,0,1-1.092,2.064c-.084-.576-.12-.828-.192-1.872A3.112,3.112,0,0,1-107.244-4.9Zm-2,3.024a2.878,2.878,0,0,1-.768.636,1.511,1.511,0,0,1-.672.2.628.628,0,0,1-.66-.684,2.688,2.688,0,0,1,.768-1.8,2.993,2.993,0,0,1,1.032-.792A18.588,18.588,0,0,0-109.248-1.872Zm20.4-4.356a7.522,7.522,0,0,0-2.928-1.308l-.552.864a4.331,4.331,0,0,1,1.62.564,2.74,2.74,0,0,0-1.98.612,1.767,1.767,0,0,0-.4,1.128,7.549,7.549,0,0,0,.324,1.68,6.284,6.284,0,0,0-.864-.072c-1.632,0-2.268.792-2.268,1.572,0,1.044,1.1,1.788,2.4,1.788A2.2,2.2,0,0,0-91.8-.024a1.9,1.9,0,0,0,.312-1.284A6.42,6.42,0,0,1-89.8-.264l.672-.984a9.066,9.066,0,0,0-2.508-1.188.826.826,0,0,1-.024-.156A5.908,5.908,0,0,1-91.968-4.2c0-.684.312-1.26,1.7-1.26a3.423,3.423,0,0,1,.912.12Zm-3.768,5.016c0,.468-.252.828-.912.828-.456,0-1.284-.216-1.284-.744,0-.468.444-.708,1.152-.708a3.272,3.272,0,0,1,.984.168A2.474,2.474,0,0,1-92.616-1.212Zm.024-6.888a10.212,10.212,0,0,1-1.74.384c.132-.36.192-.5.5-1.392.324-.132.36-.144.36-.264,0-.1-.024-.108-.288-.168l-1.26-.3a12.95,12.95,0,0,1-.552,2.28,7.67,7.67,0,0,1-.816.048,6.211,6.211,0,0,1-1.272-.12l.1,1.092a12.508,12.508,0,0,0,1.632-.036A16.927,16.927,0,0,1-98.2-2.184l1.116.588a29.117,29.117,0,0,0,2.364-5.076,10.47,10.47,0,0,0,1.992-.372ZM-74.64-5.652c-.564-.036-1.1-.06-1.932-.06s-1.416.036-1.812.06l-.072,1.02a9.212,9.212,0,0,1,2.112-.192,4.989,4.989,0,0,1,1.692.2Zm-3.024-2.232a6.882,6.882,0,0,1-2.064.612c.192-.768.24-1,.456-1.752.288-.06.384-.108.384-.264s-.1-.18-.3-.216l-1.38-.2a19.484,19.484,0,0,1-.4,2.58,7.092,7.092,0,0,1-1.02.084,10.839,10.839,0,0,1-1.356-.108l.012,1.1c.3.024.576.048.96.048a6.5,6.5,0,0,0,1.14-.084A19.281,19.281,0,0,1-83.772-.108l1.236.444c.42-.888.888-1.9,1.476-3.456.168-.432.876-2.628,1.044-3.12a14.9,14.9,0,0,0,2.268-.492Zm2.988,7a6.142,6.142,0,0,1-2.028.2c-.444,0-1.98,0-1.98-.492,0-.252.348-.6.612-.852l-.888-.444a2.614,2.614,0,0,0-.816,1.62.885.885,0,0,0,.432.708c.384.24.828.42,3.276.42.312,0,.72,0,1.188-.024ZM-60.624-7.6V-8.76a9.085,9.085,0,0,1-3.288.576,8.138,8.138,0,0,1-1.464-.132l.036,1.164c.312.024.48.036.708.036A17.63,17.63,0,0,0-60.624-7.6Zm.588,5.484a11.692,11.692,0,0,1-2.736.4c-1.044,0-2.052-.144-1.944-1.5l-1.068-.108c-.18,2.688,2.112,2.7,3.108,2.7a18.823,18.823,0,0,0,2.52-.192Zm-6.792-.948-.432-.792c-.3.66-.432,1-.66,1.6A6.225,6.225,0,0,1-68.16-4.2a10.854,10.854,0,0,1,.768-4.152c.192-.1.372-.18.372-.348,0-.12-.1-.156-.288-.216l-1.224-.372c-.084.4-.384,2.016-.48,2.532a18.474,18.474,0,0,0-.216,2.532A11.024,11.024,0,0,0-68.3.108l.78-.216A11.153,11.153,0,0,1-66.828-3.06Zm21.552-.156c-.024-.228-.06-.852-.06-1.368,0-.672.024-1.236.048-1.536-.588.06-1.752.06-2.376.06a7.187,7.187,0,0,0,.636-.924c.036-.072.24-.42.288-.5.072-.012.384-.06.408-.072a.135.135,0,0,0,.084-.132.192.192,0,0,0-.1-.168l-1.236-.66a6.829,6.829,0,0,1-1.188,2.136l.588.336c-.072,0-.468.012-.552.012H-53.28l1-.54A4.738,4.738,0,0,0-53.2-8.064c.744-.048.912-.06,2.316-.168l-.792.444a4.286,4.286,0,0,1,.972,1.56l1.08-.564a5.811,5.811,0,0,0-.936-1.476,15.645,15.645,0,0,0,3.648-.7,1.671,1.671,0,0,0,.444.12.156.156,0,0,0,.168-.168.093.093,0,0,0-.036-.084l-.912-.948a12.589,12.589,0,0,1-5.256.912,17.969,17.969,0,0,1-2.064-.1l.408,1.176a4.789,4.789,0,0,0,.588,0l-.852.5a4.852,4.852,0,0,1,1.08,1.512c-.72,0-1.056,0-2.136-.084.036.432.084,1.056.084,1.584a9.832,9.832,0,0,1-.084,1.32h1.164c-.036-.4-.036-.648-.036-1.824h7.9c0,.876,0,.912-.06,1.824Zm.168,2.892a3.723,3.723,0,0,1-.588.036A13.29,13.29,0,0,1-48.18-.54a5.212,5.212,0,0,1-1.236-.444,7.438,7.438,0,0,0,2.1-2.82l-.372-.528c-.264.024-1.7.072-1.992.072h-1.56c-.612,0-1.74,0-2.268-.072V-3.1c1.092-.084,1.5-.12,2.316-.12h2.256A5.167,5.167,0,0,1-50.352-1.56a5.986,5.986,0,0,1-1.44-1.524l-.888.54a6.9,6.9,0,0,0,1.392,1.56,6.721,6.721,0,0,1-3.2.756c-.432,0-.72-.012-1.08-.036l.648,1.14A9.276,9.276,0,0,0-50.376-.336a8.082,8.082,0,0,0,1.644.708,9.326,9.326,0,0,0,2.952.48Zm13.62-6.24-.048-1.092a4.669,4.669,0,0,1-1.632.576c0-.06-.012-.264-.012-.4-.036-1.092-.036-1.212-.024-1.5.312-.168.348-.192.348-.288,0-.156-.168-.2-.384-.2l-1.224-.024c.084.564.192,1.716.276,2.6a10.248,10.248,0,0,1-2.2.2c-.216,0-.384-.012-.648-.036l.12,1.068a16.265,16.265,0,0,0,2.784-.24c.012.276.024.516.024.84,0,2.892-.876,4.032-1.9,4.968l1.116.624c.756-.828,1.788-2.1,1.788-5.64,0-.408-.012-.684-.024-.972.18-.048,1.08-.312,1.164-.324C-31.848-6.432-31.7-6.48-31.488-6.564ZM-37.68-2.952l-.612-.5a6.774,6.774,0,0,1-.6,1.488,5.25,5.25,0,0,1-.336-2.148,14.324,14.324,0,0,1,.312-3A6.475,6.475,0,0,1-38.484-8.4c.336-.228.372-.252.372-.372s-.036-.132-.348-.18l-1.212-.192a24.49,24.49,0,0,0-.576,4.98A7.9,7.9,0,0,0-39.06,0l.744-.2A10.251,10.251,0,0,1-37.68-2.952Zm20-3.084-.336-1.356a9.941,9.941,0,0,1-1.728.684,16.858,16.858,0,0,0-1.848.732.984.984,0,0,1-.456-.648A6.2,6.2,0,0,1-22.2-8.34c0-.36.012-.624.024-.876.132-.084.348-.24.348-.42,0-.156-.108-.168-.468-.156l-1.32.024a22.072,22.072,0,0,1,.4,3.036,1.582,1.582,0,0,0,.552,1.284c-.6.288-2.712,1.284-2.712,3.42,0,2.352,2.964,2.4,4.68,2.4a17.187,17.187,0,0,0,2.832-.18L-17.9-1.1a8.934,8.934,0,0,1-3.24.432,6.763,6.763,0,0,1-2.124-.276c-.276-.1-.984-.468-.984-1.152,0-1.32,1.38-2.124,2.04-2.484A18.452,18.452,0,0,1-17.676-6.036Zm14.52,2.412a2.572,2.572,0,0,0-2.772-2.52,8.87,8.87,0,0,0-2.94.672,11.789,11.789,0,0,1-2.448.612l.492.9c.012.024.144.264.3.264.1,0,.108-.024.192-.2.06-.132.108-.144.576-.3.3-.108,1.644-.624,1.92-.72a5.5,5.5,0,0,1,1.8-.408,1.791,1.791,0,0,1,1.92,1.7A2.277,2.277,0,0,1-5.28-1.776a5.325,5.325,0,0,1-2.8.756l.492.96a6.965,6.965,0,0,0,2.7-.876A3.14,3.14,0,0,0-3.156-3.624ZM11.808-8.148V-9.432a38.722,38.722,0,0,1-4.716.816,32.675,32.675,0,0,1-4.632.324l.156,1.356a35.291,35.291,0,0,1,5.7-.888,6.9,6.9,0,0,0-1.872,1.74A4.942,4.942,0,0,0,5.412-3.348a3.183,3.183,0,0,0,1,2.328A5.823,5.823,0,0,0,9.708.432L10.08-.84A3.888,3.888,0,0,1,8.832-.984C7.944-1.248,6.6-1.992,6.6-3.36a3.532,3.532,0,0,1,.276-1.308A5.842,5.842,0,0,1,11.808-8.148ZM27.336-.132a4.966,4.966,0,0,1-2.088-1.884,5.115,5.115,0,0,1-.864-2.844c0-.168.012-.4.036-.924.216-.072.336-.132.336-.3a.178.178,0,0,0-.144-.192l-1.356-.168c.024.216.048.408.048.516a7.96,7.96,0,0,1-.492,3.372,3.653,3.653,0,0,1-1.6,1.968c-.024-.708-.024-.84-.024-1.284v-1.26a5.661,5.661,0,0,1,.048-.924l.384.252.72-.972a5.52,5.52,0,0,1-2.412-2.148c.24-.156.276-.228.276-.312s-.06-.12-.18-.156l-.972-.336A4.115,4.115,0,0,1,17.9-5.88a6.908,6.908,0,0,1-2.04,1.368l1,.816c.168-.108.192-.12.276-.168.024.444.024.492.024.708V-.9a13.343,13.343,0,0,1-.1,1.38h1.272c-.036-.312-.072-.828-.084-1.008H19.5c.444,0,1,.012,1.536.048a5.1,5.1,0,0,1-.924.384l.876,1A5.474,5.474,0,0,0,23.9-2.3,7.59,7.59,0,0,0,26.424.864Zm-6.18-4a10.467,10.467,0,0,1-1.32.048H17.484a8.242,8.242,0,0,0,1.824-1.908A4.5,4.5,0,0,0,20.352-4.74,5.92,5.92,0,0,0,21.156-4.128ZM20.148-1.452H18.216v-1.74h1.932Zm7.14-6.2-.54-.516c-.468.036-1.428.1-1.9.1H23.82a7.832,7.832,0,0,0,.4-1.32c.348-.132.36-.228.36-.3a.153.153,0,0,0-.132-.168l-1.3-.252a5.636,5.636,0,0,1-2.028,3.78l1.092.624a7.519,7.519,0,0,0,1.164-1.464h2.292A7.307,7.307,0,0,1,24.48-5.232l.972.648A26.294,26.294,0,0,1,27.288-7.656ZM22.2-8.376a5.857,5.857,0,0,1-1.56-1.512l-.888.672a5.2,5.2,0,0,0,1.656,1.668ZM19.056-9.12a.152.152,0,0,0-.084-.156l-1.068-.6a4.748,4.748,0,0,1-1.8,1.9l1,.756a6.222,6.222,0,0,0,1.512-1.692C18.9-8.88,19.056-8.952,19.056-9.12ZM40.188-3.36l-.936-.876a6.517,6.517,0,0,1-1.3,2.3,3.193,3.193,0,0,1-2.22,1.068,1.8,1.8,0,0,1-1.392-.684c-.276-.372-.324-.708-.324-1.848,0-.48.084-3.456.144-4.344.036-.468.072-.792.108-1.08.324-.216.36-.24.36-.348,0-.156-.12-.18-.408-.216l-1.368-.192a22.636,22.636,0,0,1,.132,2.724c0,.552-.108,3.24-.108,3.852a3.026,3.026,0,0,0,.588,2.268,2.793,2.793,0,0,0,2.112.96A4.716,4.716,0,0,0,38.352-.84,7.5,7.5,0,0,0,40.188-3.36Zm15.264.048a10.859,10.859,0,0,0-2.1-5L52.26-7.8a7.931,7.931,0,0,1,1.128,1.92A7.549,7.549,0,0,1,54.12-2.9Zm-5.568.132-.7-.732c-.132.648-.492,2-1.068,2s-1.392-1.476-1.392-3.444A8.123,8.123,0,0,1,47-7.488c.168-.084.3-.144.3-.252s-.132-.168-.372-.252L45.84-8.376c-.012.048-.024.264-.036.312a23.582,23.582,0,0,0-.24,2.628,5.924,5.924,0,0,0,1.3,4.188,2.1,2.1,0,0,0,1.392.84C49.164-.408,49.644-2.1,49.884-3.18ZM70.452-9.624a5.4,5.4,0,0,0-1.4-.864l-.444.72a5.505,5.505,0,0,1,1.38.864ZM69.9-7.98a4.364,4.364,0,0,0-1.452-1l-.432.7a11.706,11.706,0,0,1,1.452.96Zm-2.448-.132V-9.384a20.262,20.262,0,0,1-2.088.1H63.312c-.312,0-1.344-.024-2.064-.1v1.272a19.817,19.817,0,0,1,2.064-.108h2.052C65.436-8.22,66.552-8.208,67.452-8.112Zm1.68,2.952V-6.336c-1.068.084-2.148.1-3.216.1H62.784c-.492,0-2.088-.012-3.18-.1V-5.16c1.056-.072,2.112-.1,3.18-.1h1.248C64.008-3.7,63.9-1.536,60.444-.8l1.02.948a4.87,4.87,0,0,0,2.52-1.452,6.676,6.676,0,0,0,1.272-3.948h.66C66.048-5.256,67.74-5.256,69.132-5.16ZM84.876-9.48a6.093,6.093,0,0,0-1.524-.672l-.3.7a7.786,7.786,0,0,1,1.44.624Zm-.552,1.368a5.72,5.72,0,0,0-1.452-.7l-.348.732A9.862,9.862,0,0,1,83.94-7.4Zm-.2,2.484V-6.792c-.72.048-1.428.072-2.148.1L81.96-7.62c-.012-.828-.012-.924-.024-1.236.312-.216.348-.24.348-.36,0-.168-.12-.18-.432-.2l-1.26-.1a10.712,10.712,0,0,1,.216,2.856H77.88v-.48a7.264,7.264,0,0,1,.108-1.452,1.7,1.7,0,0,1,.252-.192.221.221,0,0,0,.1-.168c0-.18-.264-.216-.384-.228l-1.236-.144a17.931,17.931,0,0,1,.108,2.136v.516A13.469,13.469,0,0,1,74.28-6.84v1.224a19.274,19.274,0,0,1,2.544-.12v.624A13.982,13.982,0,0,1,76.7-2.8h1.272a5.242,5.242,0,0,1-.084-1.164c0-.156-.012-.972-.012-1.152v-.636h2.9c-.072,2-.132,2.412-.432,3.036a5.374,5.374,0,0,1-2.976,2.4L78.432.5A9.245,9.245,0,0,0,80.52-1.044c1.176-1.188,1.416-2.292,1.464-4.692A18.9,18.9,0,0,1,84.12-5.628ZM97.512-8.676a.307.307,0,0,0-.12-.216L96.3-9.708a13.712,13.712,0,0,1-3.18,3.216,12.079,12.079,0,0,1-4.1,2.076l1.152.924a19.119,19.119,0,0,0,3.288-1.824v2.3c0,.408-.024,2.4-.024,2.856,0,.048-.024.312-.048.564h1.284a11.893,11.893,0,0,1-.084-1.356c-.024-1.008-.06-1.116-.06-1.968V-6.132a28.687,28.687,0,0,0,2.4-2.292C97.3-8.448,97.512-8.448,97.512-8.676Zm9.72,1.092a8.8,8.8,0,0,0-2.64-1.668l-.66,1.08a10.033,10.033,0,0,1,2.616,1.656Zm5.436,2.16-.48-1.164a15.681,15.681,0,0,1-8.448,5.076l.648,1.248c.132.24.168.288.252.288a.138.138,0,0,0,.132-.072c.024-.036.084-.228.108-.276C106.536-1.032,110.316-2.652,112.668-5.424Zm14.808.612A4.263,4.263,0,0,0,126.4-7.68a4.821,4.821,0,0,0-3.768-1.5,5.09,5.09,0,0,0-3.936,1.692,4.739,4.739,0,0,0-1.308,3.3A4.145,4.145,0,0,0,118.848-.96a1.573,1.573,0,0,0,1.02.408c.684,0,1.284-1.3,1.512-1.788a20.25,20.25,0,0,0,1.5-5.82,3.152,3.152,0,0,1,1.644.348A3.1,3.1,0,0,1,126.384-5a4.291,4.291,0,0,1-.912,2.688,5.017,5.017,0,0,1-2.664,1.38l.912,1A4.92,4.92,0,0,0,127.476-4.812Zm-5.688-3.252a17.04,17.04,0,0,1-1.3,5.028c-.144.324-.456,1.044-.876,1.044-.5,0-1.164-1.128-1.164-2.2a3.949,3.949,0,0,1,3.024-3.84ZM140.844-.732a29.061,29.061,0,0,1-.144-2.94V-5.7c0-.516.024-1.92.072-2.4-.6.012-1.644.036-2.244.036H135.72c-.3,0-1.764-.012-2.088-.036s-.528-.024-.924-.06v1.3c.324-.036.612-.072,1.02-.1s2.4-.048,2.856-.048h2.9v4.584H136.7c-1.3,0-2.58-.048-3.864-.108v1.308c.744-.1,2.5-.132,3.324-.132h3.252a5.561,5.561,0,0,1-.036.624Zm14.22-2.832a12.356,12.356,0,0,0-3.78-2.616l-.564,1.068V-6.444c0-.732.012-1.476.06-2.22.264-.156.4-.24.4-.36,0-.156-.156-.18-.228-.18l-1.6-.108a5,5,0,0,1,.12.792c.036.444.072,1.728.072,2.2v3.132c0,.252-.036,1.464-.048,1.74a15.669,15.669,0,0,1-.1,1.764h1.452c-.084-.612-.132-2.712-.132-3.42V-5.1a10.477,10.477,0,0,1,3.552,2.484Zm8.784,2.472A1.77,1.77,0,0,0,162.1-2.88a1.77,1.77,0,0,0-1.752,1.788A1.767,1.767,0,0,0,162.1.684V.7A1.777,1.777,0,0,0,163.848-1.092Zm-.528,0A1.234,1.234,0,0,1,162.1.156a1.242,1.242,0,0,1-1.224-1.248A1.234,1.234,0,0,1,162.1-2.34,1.234,1.234,0,0,1,163.32-1.092Z" transform="translate(1720 449)"/></svg>