<svg xmlns="http://www.w3.org/2000/svg" viewBox="792.021 1010 47.734 11.593"><defs><style>.a{fill:#fff;}</style></defs><g transform="translate(792.021 1010)"><path class="a" d="M16.707,4.092v7.16H13.979V5.114c0-1.364-.682-2.387-2.046-2.387A2.522,2.522,0,0,0,9.888,4.092v7.5H7.16V5.114c0-1.364-.682-2.387-2.046-2.387A2.708,2.708,0,0,0,2.728,4.092v7.5H0V.341H2.728v1.7A3.958,3.958,0,0,1,6.137,0a3.4,3.4,0,0,1,3.41,2.046A3.4,3.4,0,0,1,12.956,0C15.343,0,16.707,1.7,16.707,4.092Z"/><path class="a" d="M17.913,5.8A5.8,5.8,0,0,1,6.32,5.8C5.979,2.728,8.707,0,12.117,0A5.975,5.975,0,0,1,17.913,5.8Zm-2.728,0a2.862,2.862,0,0,0-3.069-3.069A2.862,2.862,0,0,0,9.048,5.8a2.862,2.862,0,0,0,3.069,3.069C13.822,9.206,15.185,7.5,15.185,5.8Z" transform="translate(15.16)"/><path class="a" d="M21.229,4.092v7.16H18.5V4.773c0-1.7-1.023-2.387-2.046-2.387A2.522,2.522,0,0,0,14.41,3.751v7.5H11V.341h2.728v1.7a4.007,4.007,0,0,1,7.5,2.046Z" transform="translate(26.506)"/></g></svg>