<svg xmlns="http://www.w3.org/2000/svg" viewBox="1570 522 300 31"><defs><style>.a{fill:#00554d;stroke:rgba(0,0,0,0);}.b,.d{fill:none;}.b{stroke:#00554d;stroke-width:2px;}.c{stroke:none;}</style></defs><g transform="translate(1532 30)"><path class="a" d="M-38.16-2.928c0,.912-.992,1.3-1.952,1.3a3.419,3.419,0,0,1-2.656-1.68L-44.208-2.1a4.9,4.9,0,0,0,4.1,2.288c2.112,0,3.9-1.088,3.9-3.12s-1.424-2.8-3.136-3.44c-1.536-.576-2.416-.88-2.416-1.856a1.546,1.546,0,0,1,1.712-1.344A3.231,3.231,0,0,1-37.728-8.3L-36.4-9.616a4.814,4.814,0,0,0-3.648-1.776,3.4,3.4,0,0,0-3.664,3.168c0,2.08,1.856,2.976,3.5,3.552C-38.88-4.208-38.16-3.872-38.16-2.928ZM-27.6-1.6a3.806,3.806,0,0,1-3.728-4,3.806,3.806,0,0,1,3.728-4,3.851,3.851,0,0,1,2.848,1.232l1.3-1.264a5.612,5.612,0,0,0-4.144-1.76A5.609,5.609,0,0,0-33.28-5.6,5.609,5.609,0,0,0-27.6.192a5.645,5.645,0,0,0,4.3-1.9l-1.28-1.264A3.986,3.986,0,0,1-27.6-1.6Zm14.08-5.04H-18.3V-11.2h-1.92V0h1.92V-4.816h4.784V0h1.92V-11.2h-1.92Zm7.808-2.736H-.848V-11.2H-7.632V0h6.88V-1.824h-4.96V-4.832h4.48V-6.656h-4.48ZM6.32-11.2H2.7V0H6.32a5.361,5.361,0,0,0,5.536-5.6A5.361,5.361,0,0,0,6.32-11.2Zm.032,9.376H4.624V-9.376H6.352A3.558,3.558,0,0,1,9.9-5.6,3.567,3.567,0,0,1,6.352-1.824ZM21.9-4.3c0,1.6-.816,2.672-2.4,2.672-1.6,0-2.4-1.072-2.4-2.672v-6.9h-1.92v7.136A4.073,4.073,0,0,0,19.5.192a4.073,4.073,0,0,0,4.32-4.256V-11.2H21.9ZM27.792,0H34.48V-1.824H29.712V-11.2h-1.92Zm11.52-9.376h4.864V-11.2H37.392V0h6.88V-1.824h-4.96V-4.832h4.48V-6.656h-4.48Z" transform="translate(188 513)"/><g class="b" transform="translate(38 492)"><rect class="c" width="300" height="31" rx="15.5"/><rect class="d" x="1" y="1" width="298" height="29" rx="14.5"/></g></g></svg>