<svg xmlns="http://www.w3.org/2000/svg" viewBox="556.85 1006.451 38.734 15.141"><defs><style>.a{fill:#fff;}</style></defs><g transform="translate(556.85 1006.451)"><path class="a" d="M1.761,8.647a4.987,4.987,0,0,0,3.521,1.761c1.056,0,2.113-.352,2.113-1.056s-.7-1.056-2.113-1.408C3.169,7.59,1.056,6.534,1.056,4.421,1.056,2.661,2.817.9,5.986.9a7.367,7.367,0,0,1,4.225,1.408L8.451,4.421A5.556,5.556,0,0,0,5.634,3.365c-1.056,0-2.113.352-2.113,1.056s.7.7,2.817,1.408c2.113.352,3.873,1.408,3.873,3.521S8.1,12.872,5.282,12.872A7.068,7.068,0,0,1,0,10.759Z" transform="translate(0 2.269)"/><path class="a" d="M14.764,5.125V12.52H12.3V11.112a4.443,4.443,0,0,1-3.873,1.761A3.984,3.984,0,0,1,4.2,9c0-2.113,2.113-3.873,4.578-3.873a6.06,6.06,0,0,1,3.169.7V5.478A2.328,2.328,0,0,0,9.482,3.365a10.914,10.914,0,0,0-3.521.7l-.7-2.113A11.461,11.461,0,0,1,9.834.9C13,.9,14.764,2.661,14.764,5.125ZM11.947,9.351V7.942a4.871,4.871,0,0,0-2.465-.7C8.425,7.238,7.369,7.59,7.369,9c0,1.056,1.056,1.408,2.113,1.408A3.889,3.889,0,0,0,11.947,9.351Z" transform="translate(10.589 2.269)"/><path class="a" d="M8.6,3.521h2.113V0H13.53V3.521h3.521V5.986H13.53v4.578c0,1.408.7,1.761,1.408,1.761a1.542,1.542,0,0,0,1.056-.352l1.056,2.465a5.419,5.419,0,0,1-2.817.7,4,4,0,0,1-3.873-4.225V5.986H8.6Z" transform="translate(21.683)"/></g></svg>