<svg xmlns="http://www.w3.org/2000/svg" viewBox="1630.945 733.716 178.099 24.168"><defs><style>.a{fill:#fff;stroke:rgba(0,0,0,0);}</style></defs><path class="a" d="M-76.32-5.856c0,1.824-1.984,2.592-3.9,2.592-3.392,0-5.312-3.36-5.312-3.36l-2.88,2.432A9.791,9.791,0,0,0-80.224.384c4.224,0,7.808-2.176,7.808-6.24s-2.848-5.6-6.272-6.88c-3.072-1.152-4.832-1.76-4.832-3.712,0-1.5,1.5-2.688,3.424-2.688a6.461,6.461,0,0,1,4.64,2.528l2.656-2.624a9.628,9.628,0,0,0-7.3-3.552c-4.512,0-7.328,3.168-7.328,6.336,0,4.16,3.712,5.952,7.008,7.1C-77.76-8.416-76.32-7.744-76.32-5.856ZM-55.2-3.2c-4.416,0-7.456-3.68-7.456-8s3.04-8,7.456-8a7.7,7.7,0,0,1,5.7,2.464l2.592-2.528a11.224,11.224,0,0,0-8.288-3.52A11.217,11.217,0,0,0-66.56-11.2,11.217,11.217,0,0,0-55.2.384a11.291,11.291,0,0,0,8.608-3.808l-2.56-2.528A7.972,7.972,0,0,1-55.2-3.2Zm28.16-10.08h-9.568V-22.4h-3.84V0h3.84V-9.632h9.568V0h3.84V-22.4h-3.84Zm15.616-5.472H-1.7V-22.4H-15.264V0H-1.5V-3.648h-9.92V-9.664h8.96v-3.648h-8.96ZM12.64-22.4H5.408V0H12.64c6.528,0,11.072-4.736,11.072-11.2S19.168-22.4,12.64-22.4ZM12.7-3.648H9.248v-15.1H12.7c4.352,0,7.1,3.456,7.1,7.552C19.808-7.136,17.056-3.648,12.7-3.648Zm31.1-4.96c0,3.2-1.632,5.344-4.8,5.344-3.2,0-4.8-2.144-4.8-5.344V-22.4h-3.84V-8.128c0,4.928,3.36,8.512,8.64,8.512s8.64-3.584,8.64-8.512V-22.4h-3.84ZM55.584,0H68.96V-3.648H59.424V-22.4h-3.84Zm23.04-18.752h9.728V-22.4H74.784V0h13.76V-3.648h-9.92V-9.664h8.96v-3.648h-8.96Z" transform="translate(1720 757)"/></svg>