<svg xmlns="http://www.w3.org/2000/svg" viewBox="947 948.082 40.763 12.368"><defs><style>.a{fill:#fff;}</style></defs><path class="a" d="M.75-1.918A7.342,7.342,0,0,0,6.065.218c3.005,0,5.141-1.614,5.141-3.626,0-2.434-1.664-3.2-4-3.7C5.22-7.531,4.426-7.7,4.426-8.425S5.444-9.542,6.562-9.542A5.467,5.467,0,0,1,9.492-8.524l1.49-2.186a7.513,7.513,0,0,0-4.421-1.44C3.333-12.15,1.5-10.312,1.5-8.474c0,2.235,2.037,3.229,4.371,3.725C7.654-4.376,8.2-4.227,8.2-3.457c0,.72-1.018,1.068-2.235,1.068A5.535,5.535,0,0,1,2.414-4.078ZM19.95.144a4.213,4.213,0,0,0,3.527-2.012V-.154h2.782V-11.926h-2.98v7.848a2.9,2.9,0,0,1-2.335,1.44c-1.515,0-2.335-.745-2.335-2.484v-6.805h-2.98V-4.3A4.232,4.232,0,0,0,19.95.144ZM37.192-12.15a4.068,4.068,0,0,0-3.527,2.012v-1.714H30.883V-.08h2.98V-7.853A2.9,2.9,0,0,1,36.2-9.368a2.173,2.173,0,0,1,2.335,2.409V-.08h2.98V-7.7A4.218,4.218,0,0,0,37.192-12.15Z" transform="translate(946.25 960.232)"/></svg>