<svg id="レイヤー_1" data-name="レイヤー 1" xmlns="http://www.w3.org/2000/svg" viewBox="0 0 190.46 247.34"><defs><style>.cls-1{fill:#e7404c;}.cls-2{fill:none;}</style></defs><title>アートボード 1</title><path class="cls-1" d="M190.44,95A95.22,95.22,0,0,0,0,95.22c0,.19,0,.38,0,.56V240.35a6.87,6.87,0,0,0,6.26,7,6.62,6.62,0,0,0,7-6.61v-79a5.84,5.84,0,0,1,10.22-3.89l.37.42a5.88,5.88,0,0,1,1.5,3.89v78.24a6.87,6.87,0,0,0,6.26,7,6.62,6.62,0,0,0,7-6.61V182.6a5.87,5.87,0,0,1,8.88-5l.19.11a5.93,5.93,0,0,1,3,5.12v57.53a6.87,6.87,0,0,0,6.26,7,6.62,6.62,0,0,0,7-6.61V193a5.84,5.84,0,0,1,7.33-5.65l.38.1A5.84,5.84,0,0,1,76,193.13v47.21a6.87,6.87,0,0,0,6.26,7,6.62,6.62,0,0,0,7-6.61V196.3a5.89,5.89,0,0,1,6-5.85h.15a5.89,5.89,0,0,1,6,5.85v44a6.87,6.87,0,0,0,6.26,7,6.62,6.62,0,0,0,7-6.61V193.13a5.84,5.84,0,0,1,4.38-5.65l.38-.1A5.84,5.84,0,0,1,126.6,193v47.32a6.87,6.87,0,0,0,6.26,7,6.62,6.62,0,0,0,7-6.61V182.8a5.93,5.93,0,0,1,3-5.12l.19-.11a5.87,5.87,0,0,1,8.88,5v57.76a6.87,6.87,0,0,0,6.26,7,6.62,6.62,0,0,0,7-6.61V162.07a5.88,5.88,0,0,1,1.5-3.89l.37-.42a5.84,5.84,0,0,1,10.22,3.89v78.69a6.87,6.87,0,0,0,6.26,7,6.62,6.62,0,0,0,7-6.61V95.22C190.46,95.15,190.44,95.08,190.44,95Z"/><rect class="cls-2" x="-154.78" y="-72.44" width="500.72" height="500.72"/></svg>