<svg id="レイヤー_1" data-name="レイヤー 1" xmlns="http://www.w3.org/2000/svg" viewBox="0 0 288.12 78.35"><defs><style>.cls-1{fill:#e7404c;}</style></defs><title>アートボード 1</title><path class="cls-1" d="M30.22,0A30.25,30.25,0,0,0,0,30.21V48.13a30.21,30.21,0,0,0,60.43,0V30.21A30.25,30.25,0,0,0,30.22,0ZM49.93,48.13a19.72,19.72,0,1,1-39.44,0V30.21a19.72,19.72,0,0,1,39.44,0Z"/><path class="cls-1" d="M108.84,10.66a19.75,19.75,0,0,1,22.1,16.61,3.4,3.4,0,0,0,3.35,2.94H138a3.42,3.42,0,0,0,3.4-3.82A30.26,30.26,0,0,0,108.52.14c-15.65,1.48-27.3,15.24-27.3,31V47.25c0,15.72,11.64,29.49,27.3,31A30.26,30.26,0,0,0,141.4,52a3.42,3.42,0,0,0-3.4-3.82h-3.72a3.4,3.4,0,0,0-3.35,2.94,19.75,19.75,0,0,1-22.1,16.61C98.89,66.41,91.7,57.47,91.7,47.45V30.9C91.71,20.88,98.9,11.94,108.84,10.66Z"/><path class="cls-1" d="M257.91,0A30.25,30.25,0,0,0,227.7,30.21V48.13a30.21,30.21,0,1,0,60.43,0V30.21A30.25,30.25,0,0,0,257.91,0Zm19.71,48.13a19.72,19.72,0,1,1-39.44,0V30.21a19.72,19.72,0,0,1,39.44,0Z"/><path class="cls-1" d="M164.11,11.51H177a3.4,3.4,0,0,1,3.4,3.4V73.86a3.4,3.4,0,0,0,3.4,3.4h3.69a3.4,3.4,0,0,0,3.4-3.4V14.91a3.4,3.4,0,0,1,3.4-3.4h12.92a3.4,3.4,0,0,0,3.4-3.4V4.42a3.4,3.4,0,0,0-3.4-3.4H164.11a3.4,3.4,0,0,0-3.4,3.4V8.11A3.4,3.4,0,0,0,164.11,11.51Z"/></svg>