<svg xmlns="http://www.w3.org/2000/svg" viewBox="906 1013 62.286 16"><defs><style>.a{fill:#fff;}</style></defs><g transform="translate(906 1013)"><path class="a" d="M4.571,0H6.857V15.429H4V4L1.714,5.714,0,4Z"/><path class="a" d="M12.486,4.571a2.851,2.851,0,0,1-1.714,2.857s1.714.571,1.714,3.429c0,2.286-1.714,4.571-5.143,4.571S2.2,13.714,2.2,10.857A3.322,3.322,0,0,1,4.486,7.429,3.941,3.941,0,0,1,2.771,4.571,4.507,4.507,0,0,1,7.343,0C10.2,0,12.486,2.286,12.486,4.571ZM10.2,10.857A2.614,2.614,0,0,0,7.343,8.571a2.093,2.093,0,0,0-2.286,2.286,2.614,2.614,0,0,0,2.857,2.286A2.093,2.093,0,0,0,10.2,10.857ZM7.343,2.286A2.093,2.093,0,0,0,5.057,4.571,2.458,2.458,0,0,0,7.343,6.857,2.093,2.093,0,0,0,9.629,4.571,2.458,2.458,0,0,0,7.343,2.286Z" transform="translate(10.371)"/><path class="a" d="M6.514.9A1.515,1.515,0,0,1,8.229,2.614,1.515,1.515,0,0,1,6.514,4.329,2.576,2.576,0,0,1,4.8,2.614,2.576,2.576,0,0,1,6.514.9Zm0,7.429a1.515,1.515,0,0,1,1.714,1.714,1.515,1.515,0,0,1-1.714,1.714A2.576,2.576,0,0,1,4.8,10.043,2.576,2.576,0,0,1,6.514,8.329Z" transform="translate(22.629 4.243)"/><path class="a" d="M17.629,8c0,4-1.714,8-5.714,8S6.2,12,6.2,8s1.714-8,5.714-8S17.629,4,17.629,8ZM14.771,8c0-2.857-1.143-5.143-2.857-5.143C9.629,2.857,9.057,5.143,9.057,8s1.143,5.714,2.857,5.714C14.2,13.143,14.771,10.857,14.771,8Z" transform="translate(29.229)"/><path class="a" d="M20.329,8c0,4-1.714,8-5.714,8S8.9,12,8.9,8s1.714-8,5.714-8S20.329,4,20.329,8ZM17.471,8c0-2.857-1.143-5.143-2.857-5.143-2.286,0-2.857,2.286-2.857,5.143s1.143,5.714,2.857,5.714C16.9,13.143,17.471,10.857,17.471,8Z" transform="translate(41.957)"/></g></svg>