<svg xmlns="http://www.w3.org/2000/svg" viewBox="1094 1013 65.28 16"><defs><style>.a{fill:#fff;}</style></defs><g transform="translate(1094 1013)"><path class="a" d="M5.76,8.64A6.114,6.114,0,0,0,7.36,4.8,2.187,2.187,0,0,0,5.12,2.56,3.129,3.129,0,0,0,2.24,4.8L0,3.84A5.256,5.256,0,0,1,5.12,0a4.529,4.529,0,0,1,4.8,4.8A7.526,7.526,0,0,1,8.64,8.64L5.12,13.12h5.12v2.56H0Z"/><path class="a" d="M16.02,8c0,4.16-1.6,8-5.76,8S4.5,12.16,4.5,8s1.92-8,5.76-8S16.02,3.84,16.02,8ZM13.46,8c0-2.88-.96-5.44-3.2-5.44S7.06,5.12,7.06,8s.96,5.44,3.2,5.44S13.46,10.88,13.46,8Z" transform="translate(9.9)"/><path class="a" d="M11.1,1.6a1.512,1.512,0,0,1,1.6,1.6,1.512,1.512,0,0,1-1.6,1.6A1.512,1.512,0,0,1,9.5,3.2,1.512,1.512,0,0,1,11.1,1.6Zm0,7.36a1.512,1.512,0,0,1,1.6,1.6c0,.96-.32,1.92-1.6,1.92-.96,0-1.6-.64-1.6-1.92S10.14,8.96,11.1,8.96Z" transform="translate(20.9 3.52)"/><path class="a" d="M23.52,8c0,4.16-1.92,8-5.76,8S12,12.16,12,8s1.6-8,5.76-8S23.52,3.84,23.52,8ZM20.96,8c0-2.88-.96-5.44-3.2-5.44S14.56,5.12,14.56,8s.96,5.44,3.2,5.44S20.96,10.88,20.96,8Z" transform="translate(26.4)"/><path class="a" d="M28.32,8c0,4.16-1.92,8-5.76,8S16.8,12.16,16.8,8s1.92-8,5.76-8S28.32,3.84,28.32,8ZM25.76,8c0-2.88-.96-5.44-3.2-5.44S19.36,5.12,19.36,8s.96,5.44,3.2,5.44S25.76,10.88,25.76,8Z" transform="translate(36.96)"/></g></svg>