<svg xmlns="http://www.w3.org/2000/svg" viewBox="666.976 788.653 60 18.218"><defs><style>.a{fill:#fff;}</style></defs><g transform="translate(666.976 788.653)"><path class="a" d="M6.559,9.716C7.287,8.745,8.5,7.53,8.5,5.587A2.549,2.549,0,0,0,5.83,2.915,3.267,3.267,0,0,0,2.672,5.587L0,4.372A6.147,6.147,0,0,1,5.83,0c3.887,0,5.587,2.672,5.587,5.587,0,2.186-1.215,3.644-1.457,4.372l-4.13,5.1h5.587v2.915H0Z"/><path class="a" d="M19.917,8.988c0,4.858-2.186,8.988-6.559,8.988S6.8,13.846,6.8,8.988,8.986,0,13.359,0,19.917,4.372,19.917,8.988ZM17,8.988c0-3.4-1.215-6.316-3.644-6.316S9.715,5.587,9.715,8.988,10.93,15.3,13.359,15.3,17,12.631,17,8.988Z" transform="translate(9.718)"/><path class="a" d="M19.144.1h2.429V17.589H18.658V4.229L15.5,6.658,13.8,4.472Z" transform="translate(19.722 0.143)"/><path class="a" d="M31.36,5.1a3.859,3.859,0,0,1-1.943,3.4,4.333,4.333,0,0,1,2.429,4.129c0,2.915-2.186,5.587-6.073,5.587S19.7,15.789,19.7,12.631A4.333,4.333,0,0,1,22.129,8.5a4.44,4.44,0,0,1-1.7-3.4c0-2.672,1.7-5.1,5.587-5.1C29.66,0,31.36,2.429,31.36,5.1Zm-2.429,7.53a2.62,2.62,0,0,0-2.915-2.672A2.62,2.62,0,0,0,23.1,12.631,2.62,2.62,0,0,0,26.016,15.3,2.62,2.62,0,0,0,28.931,12.631ZM26.016,2.672A2.3,2.3,0,0,0,23.587,5.1,2.434,2.434,0,0,0,26.016,7.53,2.3,2.3,0,0,0,28.445,5.1,2.434,2.434,0,0,0,26.016,2.672Z" transform="translate(28.154)"/></g></svg>