<svg xmlns="http://www.w3.org/2000/svg" viewBox="1656.461 1431.716 135.727 24.168"><defs><style>.a{fill:#00554d;stroke:rgba(0,0,0,0);}</style></defs><path class="a" d="M.192,0H4.064L6.112-5.312h9.472L17.632,0H21.5L12.8-22.4H8.9ZM10.848-17.568l3.36,8.736H7.488ZM37.088-3.2c-4.416,0-7.456-3.68-7.456-8s3.04-8,7.456-8a7.7,7.7,0,0,1,5.7,2.464l2.592-2.528a11.224,11.224,0,0,0-8.288-3.52A11.217,11.217,0,0,0,25.728-11.2,11.217,11.217,0,0,0,37.088.384,11.291,11.291,0,0,0,45.7-3.424l-2.56-2.528A7.972,7.972,0,0,1,37.088-3.2Zm24.832,0c-4.416,0-7.456-3.68-7.456-8s3.04-8,7.456-8a7.7,7.7,0,0,1,5.7,2.464l2.592-2.528a11.224,11.224,0,0,0-8.288-3.52A11.217,11.217,0,0,0,50.56-11.2,11.217,11.217,0,0,0,61.92.384a11.291,11.291,0,0,0,8.608-3.808l-2.56-2.528A7.972,7.972,0,0,1,61.92-3.2ZM80.512-18.752H90.24V-22.4H76.672V0h13.76V-3.648h-9.92V-9.664h8.96v-3.648h-8.96Zm28.032,12.9c0,1.824-1.984,2.592-3.9,2.592-3.392,0-5.312-3.36-5.312-3.36l-2.88,2.432A9.791,9.791,0,0,0,104.64.384c4.224,0,7.808-2.176,7.808-6.24s-2.848-5.6-6.272-6.88c-3.072-1.152-4.832-1.76-4.832-3.712,0-1.5,1.5-2.688,3.424-2.688a6.461,6.461,0,0,1,4.64,2.528l2.656-2.624a9.628,9.628,0,0,0-7.3-3.552c-4.512,0-7.328,3.168-7.328,6.336,0,4.16,3.712,5.952,7.008,7.1C107.1-8.416,108.544-7.744,108.544-5.856Zm22.24,0c0,1.824-1.984,2.592-3.9,2.592-3.392,0-5.312-3.36-5.312-3.36l-2.88,2.432A9.791,9.791,0,0,0,126.88.384c4.224,0,7.808-2.176,7.808-6.24s-2.848-5.6-6.272-6.88c-3.072-1.152-4.832-1.76-4.832-3.712,0-1.5,1.5-2.688,3.424-2.688a6.461,6.461,0,0,1,4.64,2.528l2.656-2.624a9.628,9.628,0,0,0-7.3-3.552c-4.512,0-7.328,3.168-7.328,6.336,0,4.16,3.712,5.952,7.008,7.1C129.344-8.416,130.784-7.744,130.784-5.856Z" transform="translate(1657 1455)"/></svg>