<svg xmlns="http://www.w3.org/2000/svg" viewBox="556.85 1475 280.2 35.053"><defs><style>.a{fill:#3e3a39;}</style></defs><g transform="translate(556.85 1475)"><path class="a" d="M7.437,4.823a4.348,4.348,0,0,1-4.3,4.523H.2V.3H3.14A4.219,4.219,0,0,1,7.437,4.823Zm-1.583,0A2.8,2.8,0,0,0,3.14,1.883H1.783v5.88H3.14A2.8,2.8,0,0,0,5.854,4.823Z" transform="translate(0.252 0.378)"/><path class="a" d="M10.532,4.666v.452H6.009A1.512,1.512,0,0,0,7.592,6.475,1.889,1.889,0,0,0,9.175,5.8l.678,1.131a3.694,3.694,0,0,1-2.488.9A3.092,3.092,0,0,1,4.2,4.666,3.047,3.047,0,0,1,7.14,1.5,3.152,3.152,0,0,1,10.532,4.666ZM8.949,4.214c0-.452-.452-1.131-1.583-1.131A1.054,1.054,0,0,0,6.009,4.214Z" transform="translate(5.298 1.892)"/><path class="a" d="M8.931,5.445a3.158,3.158,0,0,0,1.809.9c.678,0,1.131-.226,1.131-.452,0-.452-.226-.452-1.131-.678C9.609,4.992,8.478,4.54,8.478,3.409c0-.9.9-1.809,2.488-1.809a4.056,4.056,0,0,1,2.262.678l-.678.9a3.129,3.129,0,0,0-1.583-.452c-.678,0-1.131.226-1.131.678s.452.452,1.357.678c1.131.226,2.035.678,2.035,1.809S12.1,7.706,10.514,7.706A3.575,3.575,0,0,1,7.8,6.575Z" transform="translate(9.84 2.018)"/><path class="a" d="M12.431.3a.973.973,0,0,1,.9.9.973.973,0,0,1-.9.9c-.452,0-1.131-.226-1.131-.9A1.035,1.035,0,0,1,12.431.3Zm-.9,2.94h1.583V9.346H11.526Z" transform="translate(14.255 0.378)"/><path class="a" d="M16.24,7.832A3.047,3.047,0,0,1,13.3,4.666,3.047,3.047,0,0,1,16.24,1.5a1.96,1.96,0,0,1,1.809.9V1.726h1.357V7.832a2.9,2.9,0,0,1-3.166,2.94A4.436,4.436,0,0,1,13.3,9.641l.9-1.131a3.274,3.274,0,0,0,2.035.9,1.613,1.613,0,0,0,1.809-1.583V7.154A3.37,3.37,0,0,1,16.24,7.832Zm1.583-4.071a1.673,1.673,0,0,0-1.357-.9c-1.131,0-1.583.678-1.583,1.809a1.613,1.613,0,0,0,1.583,1.809,1.673,1.673,0,0,0,1.357-.9Z" transform="translate(16.778 1.892)"/><path class="a" d="M22.5,3.762V7.606H21.145V4.214c0-.9-.452-1.131-1.131-1.131a1.56,1.56,0,0,0-1.131.678V7.832H17.3V1.726h1.357v.9A1.948,1.948,0,0,1,20.466,1.5,2.088,2.088,0,0,1,22.5,3.762Z" transform="translate(21.824 1.892)"/><path class="a" d="M24.783,3.918h3.392V5.275H24.783V9.12H23.2V.3h5.2V1.883H24.557V3.918Z" transform="translate(29.267 0.378)"/><path class="a" d="M32.38,4.666v.678H27.857A1.78,1.78,0,0,0,29.44,6.475,1.889,1.889,0,0,0,31.023,5.8l1.131,1.131a3.694,3.694,0,0,1-2.488.9A3.092,3.092,0,0,1,26.5,4.666a2.948,2.948,0,1,1,5.88,0Zm-1.357-.452c0-.452-.452-1.131-1.583-1.131a1.272,1.272,0,0,0-1.357,1.131Z" transform="translate(33.43 1.892)"/><path class="a" d="M31.031,5.445a3.158,3.158,0,0,0,1.809.9c.678,0,1.131-.226,1.131-.452,0-.452-.226-.452-1.131-.678-1.131-.226-2.261-.678-2.261-1.809,0-.9.9-1.809,2.488-1.809a4.056,4.056,0,0,1,2.262.678l-.678.9a3.129,3.129,0,0,0-1.583-.452c-.678,0-1.131.226-1.131.678s.452.452,1.357.678c1.131.226,2.035.678,2.035,1.809S34.2,7.706,32.614,7.706A3.575,3.575,0,0,1,29.9,6.575Z" transform="translate(37.719 2.018)"/><path class="a" d="M33.3,2.609h1.131V.8h1.583V2.609h1.809V3.966H36.014V6.454c0,.678.452.9.678.9a.991.991,0,0,0,.678-.226l.452,1.131a2.867,2.867,0,0,1-1.357.452A2.027,2.027,0,0,1,34.431,6.68V3.966H33.3Z" transform="translate(42.008 1.009)"/><path class="a" d="M41.854,3.762V7.606H40.5V6.928a2.622,2.622,0,0,1-2.035.9A2.079,2.079,0,0,1,36.2,5.8a2.231,2.231,0,0,1,2.262-2.035,2.29,2.29,0,0,1,1.583.452V3.988a1.266,1.266,0,0,0-1.357-1.131,4.678,4.678,0,0,0-1.809.452l-.452-1.357A7.01,7.01,0,0,1,38.688,1.5C40.949,1.5,41.854,2.4,41.854,3.762ZM40.5,5.8V5.345a3.283,3.283,0,0,0-1.357-.226c-.678-.226-1.131,0-1.131.678s.678.678,1.131.678A2.369,2.369,0,0,0,40.5,5.8Z" transform="translate(45.666 1.892)"/><path class="a" d="M48.558,7.537V5.728H46.523V4.145h3.618V8.215a4.953,4.953,0,0,1-3.392,1.131A4.736,4.736,0,0,1,42,4.823a4.637,4.637,0,0,1,7.915-3.166l-1.131.9a2.839,2.839,0,0,0-2.262-.9,2.913,2.913,0,0,0-2.94,3.166,3.092,3.092,0,0,0,3.166,3.166A2.643,2.643,0,0,0,48.558,7.537Z" transform="translate(52.983 0.378)"/><path class="a" d="M52.254,3.762V7.606H50.9V6.928a2.622,2.622,0,0,1-2.035.9A2.079,2.079,0,0,1,46.6,5.8a2.231,2.231,0,0,1,2.261-2.035,2.29,2.29,0,0,1,1.583.452V3.988a1.266,1.266,0,0,0-1.357-1.131,4.678,4.678,0,0,0-1.809.452l-.452-1.357A7.01,7.01,0,0,1,49.088,1.5C51.349,1.5,52.254,2.4,52.254,3.762ZM50.671,5.8V5.345a3.283,3.283,0,0,0-1.357-.226c-.452,0-1.131.226-1.131.9s.678.678,1.131.678A2.447,2.447,0,0,0,50.671,5.8Z" transform="translate(58.786 1.892)"/><path class="a" d="M50.4,0h1.583V9.5H50.4Z" transform="translate(63.58)"/><path class="a" d="M52.5,0h1.583V9.5H52.5Z" transform="translate(66.229)"/><path class="a" d="M60.532,4.666v.678H56.009a1.78,1.78,0,0,0,1.583,1.131A1.889,1.889,0,0,0,59.175,5.8l.678,1.131a3.694,3.694,0,0,1-2.488.9A3.092,3.092,0,0,1,54.2,4.666,3.047,3.047,0,0,1,57.14,1.5,3.152,3.152,0,0,1,60.532,4.666Zm-1.583-.452c0-.452-.452-1.131-1.583-1.131a1.272,1.272,0,0,0-1.357,1.131Z" transform="translate(68.373 1.892)"/><path class="a" d="M62.171,1.726l-.452,1.357a.991.991,0,0,0-.678-.226,1.673,1.673,0,0,0-1.357.9V7.606H58.1V1.726h1.357v.9A1.834,1.834,0,0,1,61.04,1.5,2.744,2.744,0,0,1,62.171,1.726Z" transform="translate(73.293 1.892)"/><path class="a" d="M61.278,8.837a1.579,1.579,0,0,0,.9.452c.452,0,.678-.226,1.131-.9l.226-.678L60.6,1.6h1.583l2.035,4.3L65.8,1.6h1.583l-2.94,7.237a2.308,2.308,0,0,1-2.261,1.809A2.5,2.5,0,0,1,60.6,9.968Z" transform="translate(76.447 2.018)"/><path class="a" d="M72.228.3h1.583V9.12H72.228V5.275H68.383V9.12H66.8V.3h1.583V3.918h3.845Z" transform="translate(84.268 0.378)"/><path class="a" d="M76.654,3.762V7.606H75.3V6.928a2.622,2.622,0,0,1-2.035.9A2.079,2.079,0,0,1,71,5.8a2.231,2.231,0,0,1,2.262-2.035,2.29,2.29,0,0,1,1.583.452V3.988a1.266,1.266,0,0,0-1.357-1.131,4.678,4.678,0,0,0-1.809.452l-.452-1.357A7.01,7.01,0,0,1,73.488,1.5C75.523,1.5,76.654,2.4,76.654,3.762ZM75.071,5.8V5.345a3.283,3.283,0,0,0-1.357-.226c-.452,0-1.131.226-1.131.9s.678.678,1.131.678A2.447,2.447,0,0,0,75.071,5.8Z" transform="translate(89.567 1.892)"/><path class="a" d="M78.871,1.726l-.452,1.357a.99.99,0,0,0-.678-.226,1.673,1.673,0,0,0-1.357.9V7.606H74.8V1.726h1.357v.9A1.834,1.834,0,0,1,77.74,1.5,4.6,4.6,0,0,1,78.871,1.726Z" transform="translate(94.36 1.892)"/><path class="a" d="M82.954,3.762V7.606H81.6V6.928a2.622,2.622,0,0,1-2.035.9A2.079,2.079,0,0,1,77.3,5.8a2.231,2.231,0,0,1,2.262-2.035,2.29,2.29,0,0,1,1.583.452V3.988a1.266,1.266,0,0,0-1.357-1.131,4.678,4.678,0,0,0-1.809.452l-.452-1.357A7.01,7.01,0,0,1,79.788,1.5C82.049,1.5,82.954,2.4,82.954,3.762ZM81.371,5.8V5.345a3.283,3.283,0,0,0-1.357-.226.763.763,0,0,0-1.131.678c0,.678.678.678,1.131.678A1.7,1.7,0,0,0,81.371,5.8Z" transform="translate(97.514 1.892)"/><path class="a" d="M81.052,10.477a2.278,2.278,0,0,0,.678.226c.226,0,.9,0,.9-1.131V3.24h1.583V9.8a2.182,2.182,0,0,1-2.261,2.488,1.981,1.981,0,0,1-1.357-.452ZM83.314.3a.973.973,0,0,1,.9.9.9.9,0,0,1-1.809,0A.973.973,0,0,1,83.314.3Z" transform="translate(101.677 0.378)"/><path class="a" d="M83.5,5.445V1.6h1.583V4.992c0,.9.452,1.357,1.131,1.357a1.56,1.56,0,0,0,1.131-.678V1.6h1.583V7.706H87.571V6.575a2.384,2.384,0,0,1-1.809,1.131A2.266,2.266,0,0,1,83.5,5.445Z" transform="translate(105.335 2.018)"/><path class="a" d="M88.783,5.88l2.261-2.262H93.08l-2.714,2.94L93.08,9.724H91.045L88.783,7.011V9.724H87.2V0h1.583Z" transform="translate(110.003)"/><path class="a" d="M90.7,5.445V1.6h1.583V4.992c0,.9.452,1.357,1.131,1.357a1.559,1.559,0,0,0,1.131-.678V1.6h1.583V7.706H94.771V6.575a2.384,2.384,0,0,1-1.809,1.131A2.266,2.266,0,0,1,90.7,5.445Z" transform="translate(114.418 2.018)"/><path class="a" d="M98.183,3.918H101.8V5.275H98.183V7.763h3.845V9.12H96.6V.3h5.428V1.883H98.183Z" transform="translate(121.861 0.378)"/><path class="a" d="M103.418.3H105l3.392,8.82h-1.357l-.9-2.035h-3.845l-.9,2.035H99.8Zm-.452,5.428h2.714l-1.357-3.392Z" transform="translate(125.898 0.378)"/><path class="a" d="M107.666,5.5c-1.357-.452-2.714-1.131-2.714-2.714A2.641,2.641,0,0,1,107.892.3a4.131,4.131,0,0,1,2.94,1.357L109.7,2.788a2.442,2.442,0,0,0-1.809-.9,1.266,1.266,0,0,0-1.357,1.131c0,.678.678.9,1.809,1.357,1.357.452,2.488,1.131,2.488,2.714s-1.357,2.488-3.166,2.488A3.593,3.593,0,0,1,104.5,7.763l1.131-.9a2.51,2.51,0,0,0,2.035,1.357c.678,0,1.583-.226,1.583-1.131S108.8,5.954,107.666,5.5Z" transform="translate(131.827 0.378)"/><path class="a" d="M110.688,1.883H108.2V.3h6.332V1.883h-2.262V9.346h-1.583Z" transform="translate(136.494 0.378)"/><path class="a" d="M116.714.3h1.357V9.12h-1.583V2.335L114.9,3.466l-.9-.9Z" transform="translate(143.811 0.378)"/><path class="a" d="M123.985,4.832c0,2.488-1.131,4.523-3.392,4.523S117.2,7.093,117.2,4.832c0-2.488,1.131-4.523,3.392-4.523C122.854.083,123.985,2.344,123.985,4.832Zm-1.583,0c0-1.809-.678-3.166-1.809-3.166s-1.809,1.357-1.809,3.166S119.462,8,120.592,8,122.4,6.415,122.4,4.832Z" transform="translate(147.848 0.37)"/><path class="a" d="M124.366,5.049c.226-.452,1.131-1.131,1.131-2.035a1.3,1.3,0,0,0-1.357-1.357,1.628,1.628,0,0,0-1.583,1.357L121.2,2.562A3.218,3.218,0,0,1,124.14.3a2.806,2.806,0,0,1,2.94,2.714,4.442,4.442,0,0,1-.678,2.262l-2.035,2.714h2.94V9.346h-5.88Z" transform="translate(152.894 0.378)"/><path class="a" d="M9.724,21.355A7.756,7.756,0,0,1,6.558,19.32c-.452-.452-.9-.9-.9-1.131v3.166H4.523V18.189a17.27,17.27,0,0,1-2.035,2.035A10.072,10.072,0,0,1,.678,21.355L0,20.451a4.954,4.954,0,0,0,2.262-1.357l1.357-1.357H1.357v-4.3H4.523v-.678H0V11.631H4.523V10.5H5.654c.226,0,.226,0,.226.226s0,.226-.452.226V11.4h4.749v1.131H5.654v.678H8.82v4.523H6.558c.226.452,1.131,1.583,3.845,2.488Zm-5.2-7.011H2.262v.9H4.523Zm0,1.809H2.262v.9H4.523Zm3.392-1.809H5.654v.9H7.915Zm0,1.809H5.654v.9H7.915Z" transform="translate(0 13.246)"/><path class="a" d="M12.485,12.862H5.926V11.731h4.523V10.6H11.58c.226,0,.226,0,.226.226a.221.221,0,0,1-.226.226v.678H16.1v1.131Zm-3.618,5.88A13.048,13.048,0,0,1,6.6,20.551l-.9-.9a6.593,6.593,0,0,0,2.488-2.035l.9.678a.221.221,0,0,1,.226.226C9.318,18.741,9.092,18.741,8.866,18.741Zm3.392-1.583h-.9V20.1c0,.678,0,.9-.226,1.131a2.237,2.237,0,0,1-1.809.226l-.452-1.131H10c.452,0,.452,0,.452-.452V17.158H7.509V13.54H14.52v3.845A13.137,13.137,0,0,0,12.258,17.158Zm1.131-2.488H8.64v1.583h4.749Zm1.583,5.654a2.006,2.006,0,0,0-1.131-.9,7.038,7.038,0,0,0-1.357-.9l.678-.678a6.414,6.414,0,0,1,2.488,1.809Z" transform="translate(7.191 13.372)"/><path class="a" d="M17.632,12.535c-.452.9-.678,1.131-.9,1.583h1.131v1.131H15.823l-.9.9H17.18v3.392a5.02,5.02,0,0,0,.226,2.035H16.275V20.9H14.014v.678H12.883V17.963c-.452.226-.678.226-.9.452l-.678-.9a8.339,8.339,0,0,0,3.166-2.035h-2.94V14.345h2.488V13.214H12.2V12.083h1.809V10.5h1.131c.226,0,.226,0,.226.226s0,.226-.452.226v.9h1.357v.452c.226-.452.226-.678.452-.9l1.131.678a.221.221,0,0,1,.226.226C17.858,12.535,17.858,12.535,17.632,12.535Zm-1.583,4.523H13.788v.9h2.262Zm0,1.809H13.788v.9h2.262Zm-1.131-5.654v1.131h.226c.452-.452.678-.678.678-1.131ZM21.251,20a2.868,2.868,0,0,1-1.357.226l-.452-1.357c.226,0,.678.226.9.226a.8.8,0,0,0,.9-.9c0-1.131-.678-1.809-1.809-2.714.452-1.131.9-2.035,1.357-2.94H19.215v5.88a20.881,20.881,0,0,0,.226,3.392H18.311V11.857H21.7l.452.452c-.678,1.583-.9,1.809-1.583,3.392a4.577,4.577,0,0,1,1.583,2.94A1.607,1.607,0,0,1,21.251,20Z" transform="translate(14.255 13.246)"/><path class="a" d="M18.909,15.928A3.568,3.568,0,0,0,17.1,14.8l.452-.9a4,4,0,0,1,1.809,1.131ZM18.457,20.9h0v.452h-.226l-.9-.9a12.685,12.685,0,0,0,2.035-4.3l.678.678A27.2,27.2,0,0,1,18.457,20.9Zm1.131-7.915a4.827,4.827,0,0,0-1.809-1.131l.452-.9a4,4,0,0,1,1.809,1.131Zm5.428,2.488H19.588V14.345h1.357V11.631h1.131a.226.226,0,1,1,0,.452v2.262h1.583V10.5l1.131.226a.221.221,0,0,1,.226.226c0,.226,0,.226-.226.226v1.131H27.5V13.44H24.789V14.8h3.166v1.131A9.823,9.823,0,0,0,25.015,15.475Zm-1.809,4.3A10.423,10.423,0,0,1,20.945,20.9c0,.226,0,.226-.226.226a.221.221,0,0,1-.226-.226l-.678-1.131a10.326,10.326,0,0,0,3.166-1.131Zm-.678-1.357a4.559,4.559,0,0,0-2.035-1.583l.678-.678a4.559,4.559,0,0,1,2.035,1.583Zm4.523,2.94a8.978,8.978,0,0,0-2.714-1.583l.678-.9a7.573,7.573,0,0,1,2.94,1.583Zm-.226-4.3a6.1,6.1,0,0,1-1.809,1.583l-.9-.678a4.4,4.4,0,0,0,1.809-1.809l1.131.678a.221.221,0,0,1,.226.226Z" transform="translate(21.572 13.246)"/><path class="a" d="M32.977,17.837c-.678-.226-.9-.452-1.583-.678v4.071H30.037v-.452H26.192v.452H24.835c0-.452.226-1.131.226-1.583V16.932c-.9.452-1.131.678-1.357.678l-.9-.9a7.989,7.989,0,0,0,4.975-4.071l1.357.452.226.226a.221.221,0,0,1-.226.226,8.5,8.5,0,0,0,4.523,3.166Zm-5.654-6.106H27.1a4.474,4.474,0,0,1-2.262,1.583l-.9-.9A8.655,8.655,0,0,0,26.418,10.6l.9.678c.226.226.226.226,0,.452Zm1.131,2.262A6.23,6.23,0,0,1,25.74,16.48h5.428A5.452,5.452,0,0,1,28.454,13.992Zm1.809,3.618H26.418v2.035h3.845Zm1.583-4.3a5.261,5.261,0,0,1-2.488-2.035l.9-.678a5.8,5.8,0,0,0,2.488,1.809Z" transform="translate(28.762 13.372)"/><path class="a" d="M34.1,20.3H30.257v.678H28.9V10.8h9.272v1.131H30.031v7.237h3.845a28.833,28.833,0,0,0,4.523-.226V20.3Zm2.261-1.583a16.5,16.5,0,0,0-2.035-2.488,8.828,8.828,0,0,1-3.166,2.488l-.9-.9a6.087,6.087,0,0,0,2.035-1.357,5.094,5.094,0,0,0,1.131-1.131,17.26,17.26,0,0,0-2.488-1.809l.9-.9c.452.452,1.357.9,2.488,1.809a8.776,8.776,0,0,0,1.357-2.488l1.131.678v.226c0,.226-.226.226-.452.226A6.417,6.417,0,0,1,35.006,15.1a7.3,7.3,0,0,1,2.035,2.262Z" transform="translate(36.457 13.624)"/><path class="a" d="M43.924,18.515v-.452H42.568a18.477,18.477,0,0,0,.226,3.166H41.663V18.063H40.306v.452H39.175V17.158l-.678.678a3.729,3.729,0,0,1-1.131-1.357v4.749H36.009c0-.678.226-1.809.226-2.488V17.385c-.452.452-.9.678-1.131.9l-.9-.9A21.9,21.9,0,0,0,36.235,15.8l1.357-2.035h-2.94V12.635h1.809V10.6l1.131.226a.221.221,0,0,1,.226.226s0,.226-.452.226v1.583H38.5l.452.452a10.564,10.564,0,0,1-1.131,2.262,3.84,3.84,0,0,0,1.357,1.357V12.409h2.488V10.6h1.131a.221.221,0,0,1,.226.226s0,.226-.452.226v1.131h2.488v6.332Zm-2.262-5.2H40.306v1.357h1.357Zm0,2.262H40.306v1.583h1.357Zm2.262-2.262H42.568v1.357h1.357Zm0,2.262H42.568v1.583h1.357Z" transform="translate(43.143 13.372)"/><path class="a" d="M50.251,12.988v1.357H49.12V12.762H41.431v1.583H40.3V11.631h4.3V10.5l1.357.226c.226,0,.226,0,.226.226s-.226.226-.452.226v.678h4.3C50.251,12.083,50.251,12.988,50.251,12.988Zm-2.035,8.368V20.9h-5.88v.452H41.2V17.737h2.714c.226-.452.226-.678.452-.9H42.109v-2.94h6.106v3.166H45.5c-.226.452-.226.678-.452.9H49.12v3.845h-.9Zm0-2.94h-5.88V20h5.88Zm-.9-3.845H43.466V15.7h3.845Z" transform="translate(50.839 13.246)"/><path class="a" d="M54.946,13.666H45.9V12.535h3.166c-.452-.452-.678-.9-1.131-1.131l.9-.678a6,6,0,0,1,1.131,1.357l-.452.452h3.166l-.678-.452a3.645,3.645,0,0,0,.9-1.583l1.131.678h0c0,.226-.226.226-.452.226a3.122,3.122,0,0,0-.678.9h3.166V13.44C56.077,13.666,55.624,13.666,54.946,13.666Zm-4.071,2.488V20a1.245,1.245,0,0,1-.452,1.131c-.226.226-.452.226-1.131.226l-.452-1.131c.226,0,.452.226.678.226s.226,0,.226-.452V19.32H47.483v2.262H46.352a17.462,17.462,0,0,1,.226-2.262V14.8h4.3S50.875,15.475,50.875,16.154Zm-.9-.678H47.709v.9h2.262Zm0,1.809H47.709v.9h2.262Zm3.166-2.262v4.3H52.006V14.571h1.357a.221.221,0,0,1,.226.226C53.363,14.8,53.363,15.023,53.137,15.023ZM55.4,14.8V20c0,1.131-.678,1.131-1.583,1.131h-.452L52.911,20c.678.226.678.226.9.226.452,0,.452,0,.452-.452V14.118l1.357.226a.221.221,0,0,1,.226.226S55.851,14.8,55.4,14.8Z" transform="translate(57.903 13.246)"/><path class="a" d="M55.214,12.583a1.315,1.315,0,0,0-1.357.9l-1.131-.678A2.945,2.945,0,0,1,55.44,11a2.424,2.424,0,0,1,1.809,4.3s1.131.226,1.131,1.809-1.357,2.488-2.94,2.488a3.073,3.073,0,0,1-2.94-1.809l1.131-.678a2.017,2.017,0,0,0,1.809,1.357c.9,0,1.357-.452,1.357-1.131,0-.9-.678-1.131-1.583-1.131h-.678V14.845h.452c.9,0,1.357-.226,1.357-1.131C56.571,13.035,56.118,12.583,55.214,12.583Z" transform="translate(66.229 13.877)"/><path class="a" d="M56.2,13.2h3.166v1.357H56.2Z" transform="translate(70.896 16.652)"/><path class="a" d="M61.64,15.623a4.262,4.262,0,0,0,.9-2.035,1.266,1.266,0,0,0-1.131-1.357,1.834,1.834,0,0,0-1.583,1.131L58.7,13.135A2.715,2.715,0,0,1,61.414,11.1a2.44,2.44,0,0,1,2.714,2.488,2.942,2.942,0,0,1-.678,2.035L61.64,18.111h2.714v1.357H58.926Z" transform="translate(74.05 14.003)"/><path class="a" d="M68.332,15.4c0,2.262-.9,4.3-3.166,4.3-2.035,0-3.166-2.035-3.166-4.3s.9-4.3,3.166-4.3S68.332,13.135,68.332,15.4Zm-1.357,0c0-1.583-.452-2.94-1.583-2.94s-1.583,1.357-1.583,2.94.452,2.94,1.583,2.94S66.975,16.98,66.975,15.4Z" transform="translate(78.213 14.003)"/><path class="a" d="M66.1,13.2h3.166v1.357H66.1Z" transform="translate(83.385 16.652)"/><path class="a" d="M71.44,15.623a4.262,4.262,0,0,0,.9-2.035,1.266,1.266,0,0,0-1.131-1.357,1.834,1.834,0,0,0-1.583,1.131L68.5,13.135A2.715,2.715,0,0,1,71.214,11.1a2.44,2.44,0,0,1,2.714,2.488,2.942,2.942,0,0,1-.678,2.035L71.44,18.111h2.714v1.357H68.726Z" transform="translate(86.413 14.003)"/><path class="a" d="M82.794,11.7H81.211c-.226.678-.452.9-.452,1.131H83.7v4.523H81.211V20.3c0,.226,0,.678-1.131.678H79.4l-.452-1.131c.226,0,.678.226.9.226s.226-.226.226-.452V17.358H77.592V12.609h2.035c.226-.226.226-.678.452-1.131H76.688v2.714c0,3.845-.678,5.2-1.357,6.332L74.2,20.3c.678-1.131,1.357-2.262,1.357-5.654a21.941,21.941,0,0,0-.226-3.845h9.5v1.131A5.615,5.615,0,0,0,82.794,11.7Zm-3.845,7.237a6.727,6.727,0,0,1-1.583,1.809l-.9-.678a2.911,2.911,0,0,0,1.583-2.035l1.131.452a.221.221,0,0,1,.226.226C79.4,18.941,79.175,18.941,78.949,18.941Zm3.618-5.2H78.5v.9h4.071Zm0,1.809H78.5v.9h4.071ZM83.7,20.524a4.552,4.552,0,0,0-1.809-1.809l.9-.678A6.824,6.824,0,0,1,84.6,19.846Z" transform="translate(93.603 13.624)"/><path class="a" d="M88.694,14.9H87.111c-.226.678-.226.9-.452,1.131H89.6v5.428H88.468V21H85.075v.452H83.945c0-.226.226-.9.226-1.357V16.254h1.583c.226-.678.226-.9.452-1.131H83.945v-.678h-.226a3.012,3.012,0,0,1-.678,1.131.221.221,0,0,1,.226.226l-.226.226V20.1c0,.226,0,1.131.226,1.357H82.135c0-.678.226-1.357.226-1.809V16.932A3.015,3.015,0,0,1,81,18.063l-.9-.9a6.452,6.452,0,0,0,1.809-1.583A6.269,6.269,0,0,0,83.04,13.54l1.131.678h6.106v1.131A2.786,2.786,0,0,0,88.694,14.9Zm.452-.9V12.862H81.457v1.583H80.326V11.731h4.3V10.6l1.357.226a.221.221,0,0,1,.226.226c0,.226,0,.226-.452.226v.452h1.131a16.021,16.021,0,0,0,3.166-.226v1.131c0,.678,0,.9.226,1.131H89.146Zm-.678,4.749H85.075v1.131h3.392Zm0-1.809H85.075v1.131h3.392Z" transform="translate(101.046 13.372)"/><path class="a" d="M86.5,19.846h-.9a4.409,4.409,0,0,0,.226-1.809H86.5v.452C86.731,18.941,86.5,19.394,86.5,19.846Zm9.272,1.131a10.127,10.127,0,0,1-2.488-5.88h-.678a10.493,10.493,0,0,1-1.583,5.88l-.9-.678c-.226.452-.452.9-1.809.678l-.452-1.131h.678c.678,0,.9-.226,1.131-1.357l-.678.226c-.226-.9-.226-1.131-.452-1.357l.678-.226c.226.226.226.452.452,1.131,0-.678,0-1.131.226-1.357H87.409v.452H86.278V10.8h4.749v.9H89.445v.9H90.8v.9H89.445v.9H90.8v.9H89.445v.9h1.583a15.563,15.563,0,0,1-.452,2.94,2.339,2.339,0,0,1-.226.9c1.131-1.131,1.357-2.714,1.357-6.332V10.8h4.749v4.3H94.646a9.481,9.481,0,0,0,.9,3.618c.452.678.9,1.131,1.357,1.809Zm-8.82-1.583a3.353,3.353,0,0,0-.226-1.583l.678-.226a4.415,4.415,0,0,1,.226,1.583Zm1.357-7.915H87.183v.9h1.131Zm0,1.809H87.183v.9h1.131Zm0,1.809H87.183V16h1.131Zm-.226,4.071c0-.678-.226-.9-.226-1.583l.678-.226a14.409,14.409,0,0,1,.452,1.583ZM95.1,11.7H92.611v2.488H95.1Z" transform="translate(107.985 13.624)"/><path class="a" d="M97.68,18.915c-.452.678-.678,1.131-1.583,1.131a2.039,2.039,0,0,1-1.131-.226l-.226-1.131a2.039,2.039,0,0,0,1.131.226c.226,0,.678,0,.9-.9a11.351,11.351,0,0,0,.452-2.714c0-.678-.226-1.131-.678-1.131a2.459,2.459,0,0,0-1.131.226,15.981,15.981,0,0,1-2.488,5.654L91.8,19.594a8.6,8.6,0,0,0,2.488-4.975c-.452,0-1.583.452-2.035.452L91.8,13.94a9.618,9.618,0,0,0,2.488-.452A10.142,10.142,0,0,0,94.514,11h1.131s.452,0,.452.226c0,0,0,.226-.452.452a9.219,9.219,0,0,1-.452,1.583h1.357c1.131,0,1.583,1.131,1.583,2.035A4.96,4.96,0,0,1,97.68,18.915Zm2.262-2.261-.9-1.131c.9,0,1.131-.226,1.131-.452s-.226-.452-.226-.678a9.836,9.836,0,0,0-1.357-1.583l.9-.452,1.357,1.357a1.879,1.879,0,0,1,.678,1.583C101.524,16.2,100.394,16.428,99.941,16.654Z" transform="translate(115.806 13.877)"/><path class="a" d="M103.88,19.846c-.9.678-2.035.678-4.3.9l-.452-1.131a11.054,11.054,0,0,0,2.94-.226c1.131-.226,2.035-.9,2.035-1.809A1.623,1.623,0,0,0,102.523,16a4.158,4.158,0,0,0-3.166,1.809L98,17.358c0-.226.226-1.131.226-1.357.226-.9.226-2.262.452-2.94l1.357.226a.221.221,0,0,1,.226.226c0,.226,0,.226-.226.226s-.226,0-.226.226a14.765,14.765,0,0,0-.452,2.488,5.682,5.682,0,0,1,3.166-1.357,2.538,2.538,0,0,1,2.714,2.488A3.087,3.087,0,0,1,103.88,19.846Zm-1.131-7.011a8.373,8.373,0,0,0-3.392-.9l.452-1.131a14.879,14.879,0,0,1,3.392.9Z" transform="translate(123.627 13.624)"/><path class="a" d="M106.418,13.892a4.944,4.944,0,0,0-.678,1.131.226.226,0,1,1,0,.452v5.88h-1.131V16.38l-.678.678L102.8,16.38a4.291,4.291,0,0,0,1.809-1.583,4,4,0,0,0,1.131-1.809l.9.678a.221.221,0,0,1,.226.226C106.871,14.118,106.645,13.892,106.418,13.892Zm-.226-2.262a5.021,5.021,0,0,1-2.262,2.035l-.9-.9a6.164,6.164,0,0,0,2.488-2.262l.9.678.226.226C106.645,11.857,106.418,11.857,106.192,11.631Zm7.237,9.724c-2.035,0-4.3,0-5.428-2.035a11.98,11.98,0,0,1-1.357,2.262l-.9-.678c.678-.452,1.131-1.583,1.357-1.809a9.2,9.2,0,0,0,.452-2.262l1.131.226c.226,0,.226,0,.226.226s-.226.226-.452.226a1.71,1.71,0,0,1-.226.9A2.238,2.238,0,0,0,109.358,20V16.38h-3.166V15.249h3.166V13.666h-2.488V12.535h2.488V10.952h1.357a.221.221,0,0,1,.226.226c0,.226-.226.226-.452.226v1.131h2.488v1.131h-2.488v1.583h3.166V16.38h-3.166v1.357H113.2v1.131h-2.714V20.9a12.176,12.176,0,0,0,1.809.226h1.357Z" transform="translate(129.682 13.246)"/><path class="a" d="M115.711,15.349H114.58v2.035c0,1.357,0,1.583-2.035,1.583l-.678-1.131H113c.452,0,.452-.226.452-.678V15.349H108.7V14.218h2.262v-2.94h1.131a.226.226,0,0,1,0,.452v2.488h1.357V10.6h1.131a.221.221,0,0,1,.226.226c0,.226,0,.226-.226.226v1.131H118.2v1.131H114.58v1.357h4.749V15.8A9.373,9.373,0,0,0,115.711,15.349Zm-3.618,1.131a5.45,5.45,0,0,1-2.262,2.262l-1.131-.9a5.859,5.859,0,0,0,2.488-2.262l.9.452a.221.221,0,0,1,.226.226C112.545,16.48,112.318,16.48,112.092,16.48Zm4.975,1.809c-1.357,1.583-2.714,2.94-7.011,2.94l-.678-1.131h1.131c2.262,0,3.618-.452,4.749-1.583.452-.452.9-.678,1.131-1.357l1.131.678v.226C117.294,18.515,117.068,18.289,117.068,18.289Zm1.357.452a9.641,9.641,0,0,0-2.714-2.488l.9-.678a8.064,8.064,0,0,1,2.488,2.262Z" transform="translate(137.125 13.372)"/><path class="a" d="M117.84,16.528h-.226a2.75,2.75,0,0,1-2.714-2.714,2.949,2.949,0,0,1,5.88,0,4.261,4.261,0,0,1-.452,1.809c-.226.226-2.488,4.3-2.488,4.3l-1.131-.678Zm1.357-2.714a1.373,1.373,0,1,0-2.714,0,1.373,1.373,0,1,0,2.714,0Z" transform="translate(144.947 14.003)"/><path class="a" d="M129.655,16.354A6.244,6.244,0,0,1,127.846,15a19.4,19.4,0,0,1-.452,4.975,1.994,1.994,0,0,1-2.035,1.131h-.452l-.678-1.357c.226,0,.452.226.9.226a.9.9,0,0,0,.9-.452,15.738,15.738,0,0,0,.452-3.618h-2.261a7.029,7.029,0,0,1-1.357,3.845,3.531,3.531,0,0,1-1.809,1.357l-.9-.9a3.5,3.5,0,0,0,2.261-1.583,5.475,5.475,0,0,0,.9-2.94h-2.035V15a3.015,3.015,0,0,1-1.357,1.131l-1.131-.9a7.07,7.07,0,0,0,3.618-4.523l1.357.678V11.6c0,.226,0,.226-.452.226a12.49,12.49,0,0,1-1.809,2.94h5.654a6.719,6.719,0,0,1-1.357-2.94H124V10.7h2.488c.226,2.714,1.131,3.618,3.392,4.749Z" transform="translate(149.866 13.498)"/></g></svg>