<svg xmlns="http://www.w3.org/2000/svg" viewBox="1570 568 300 31"><defs><style>.a{fill:#00554d;stroke:rgba(0,0,0,0);}.b,.d{fill:none;}.b{stroke:#00554d;stroke-width:2px;}.c{stroke:none;}</style></defs><g transform="translate(1532 40)"><path class="a" d="M-33.968,0h1.936l1.024-2.656h4.736L-25.248,0h1.936l-4.352-11.2h-1.952Zm5.328-8.784,1.68,4.368h-3.36ZM-15.52-1.6a3.806,3.806,0,0,1-3.728-4,3.806,3.806,0,0,1,3.728-4,3.851,3.851,0,0,1,2.848,1.232l1.3-1.264a5.612,5.612,0,0,0-4.144-1.76A5.609,5.609,0,0,0-21.2-5.6,5.609,5.609,0,0,0-15.52.192a5.645,5.645,0,0,0,4.3-1.9L-12.5-2.976A3.986,3.986,0,0,1-15.52-1.6ZM-3.1-1.6a3.806,3.806,0,0,1-3.728-4A3.806,3.806,0,0,1-3.1-9.6,3.851,3.851,0,0,1-.256-8.368l1.3-1.264A5.612,5.612,0,0,0-3.1-11.392,5.609,5.609,0,0,0-8.784-5.6,5.609,5.609,0,0,0-3.1.192a5.645,5.645,0,0,0,4.3-1.9L-.08-2.976A3.986,3.986,0,0,1-3.1-1.6Zm9.3-7.776h4.864V-11.2H4.272V0h6.88V-1.824H6.192V-4.832h4.48V-6.656H6.192ZM20.208-2.928c0,.912-.992,1.3-1.952,1.3A3.419,3.419,0,0,1,15.6-3.312L14.16-2.1a4.9,4.9,0,0,0,4.1,2.288c2.112,0,3.9-1.088,3.9-3.12s-1.424-2.8-3.136-3.44c-1.536-.576-2.416-.88-2.416-1.856A1.546,1.546,0,0,1,18.32-9.568,3.231,3.231,0,0,1,20.64-8.3l1.328-1.312a4.814,4.814,0,0,0-3.648-1.776,3.4,3.4,0,0,0-3.664,3.168c0,2.08,1.856,2.976,3.5,3.552C19.488-4.208,20.208-3.872,20.208-2.928Zm11.12,0c0,.912-.992,1.3-1.952,1.3a3.419,3.419,0,0,1-2.656-1.68L25.28-2.1a4.9,4.9,0,0,0,4.1,2.288c2.112,0,3.9-1.088,3.9-3.12s-1.424-2.8-3.136-3.44c-1.536-.576-2.416-.88-2.416-1.856A1.546,1.546,0,0,1,29.44-9.568,3.231,3.231,0,0,1,31.76-8.3l1.328-1.312a4.814,4.814,0,0,0-3.648-1.776,3.4,3.4,0,0,0-3.664,3.168c0,2.08,1.856,2.976,3.5,3.552C30.608-4.208,31.328-3.872,31.328-2.928Z" transform="translate(188 549)"/><g class="b" transform="translate(38 528)"><rect class="c" width="300" height="31" rx="15.5"/><rect class="d" x="1" y="1" width="298" height="29" rx="14.5"/></g></g></svg>