<?xml version="1.0" encoding="utf-8"?>
<!-- Generator: Adobe Illustrator 21.1.0, SVG Export Plug-In . SVG Version: 6.00 Build 0)  -->
<svg version="1.1" id="レイヤー_1" xmlns="http://www.w3.org/2000/svg" xmlns:xlink="http://www.w3.org/1999/xlink" x="0px"
	 y="0px" viewBox="0 0 3192.1 625.4" style="enable-background:new 0 0 3192.1 625.4;" xml:space="preserve">
<style type="text/css">
	.st0{fill:#231815;}
	.st1{fill:none;stroke:#231815;stroke-width:18.68;stroke-miterlimit:10;}
	.st2{fill:none;stroke:#231815;stroke-width:13.31;stroke-miterlimit:10;}
	.st3{fill:none;stroke:#231815;stroke-width:13.31;stroke-linecap:round;stroke-linejoin:round;}
	.st4{fill:none;stroke:#E8404D;stroke-width:22.17;stroke-miterlimit:10;}
	.st5{fill:none;stroke:#231815;stroke-width:20.83;stroke-linecap:round;stroke-linejoin:round;}
</style>
<title>アートボード 1</title>
<g>
	<path d="M2502.4,309.7c12-27.4-1.5-57.2-29.5-63.9c-22.5-5.4-41.1,1.3-55.4,19.6c-1.5,1.9-2.1,1.9-3.5,0
		c-10.5-13.7-24.2-21.2-41.7-21.3l-5.7,0.2c-22.4,1.3-40.3,19.2-41.6,41.6c-1,17.5,6.1,31.5,17.9,43.7
		c10.4,10.7,22.9,18.7,35.2,26.8c6.9,4.6,14,9,20,14.8c3,2.8,5.2,5.9,5.6,10.4c0.5,5.6,5.5,9,12.2,9c6.5,0,11.4-3.4,11.9-9
		c0.3-4.2,2.4-7.2,5.2-10c3.4-3.2,7-6.1,10.8-8.6c10-6.9,20.1-13.4,29.9-20.5C2485.7,333.8,2496.3,323.7,2502.4,309.7z
		 M2470.6,316.4c-8.2,7.9-17.8,14-27.1,20.2s-18.9,12.1-26.8,20.1c-0.6,0.7-1,1.1-1.9,0.2c-10.7-10.8-24.1-18-36.4-26.6
		c-7.9-5.6-15.7-11.2-22.1-18.6c-5.9-6.8-10-14.5-9.4-23.8c0.9-13.6,10.8-21.9,25.7-21.8c8.2-0.1,15.9,3.4,21.3,9.6
		c4.4,4.9,7.9,10.6,10.1,16.8c2,5.3,5.7,7.6,12,7.6c5.8,0,9.5-2.5,11.5-7.7c3.1-8,7.3-15.2,14.2-20.4c9.7-7.3,20.3-7.8,31.1-2.8
		c9.8,4.6,14,16.4,10.6,28.1C2481.1,305,2476.3,311,2470.6,316.4z"/>
	<path d="M2571,127.3c0.1-4.6-2.8-8.8-7.2-10.4c-4.7-1.7-9.5-0.3-12.8,3.9c-14.1,18-28.3,36-42.4,54c-4,5.2-3.4,11.8,1.4,15.7
		c5,4,11.8,3.2,16-2.2c14.2-18,28.3-36,42.5-54C2570.1,132.3,2571,129.9,2571,127.3z"/>
	<path d="M2392.5,465.4c-5.8-1-11.4,3.2-12.4,9.7c-3.4,22.8-6.7,45.7-9.9,68.5c-0.1,0.6-0.1,1.3-0.1,1.9c0.1,6,5,10.8,11,10.7
		c6.1,0,10.2-4.1,11.2-10.9c3.1-22.2,6.3-44.3,9.5-66.4C2402.8,472,2399.1,466.5,2392.5,465.4z"/>
	<path d="M2222.8,175.6c1.1,0.8,2.1,1.7,3.2,2.5l50.8,40c3.9,3,8,3.7,12.4,1.5c4-2,5.9-5.4,6.1-9.7c0-3.5-1.6-6.7-4.3-8.7
		l-16.2-12.7c-12.8-10.1-25.5-20.1-38.3-30.1c0-0.1-0.1-0.1-0.2-0.2c-4.8-3.8-11.7-3-15.5,1.8
		C2216.9,164.8,2217.8,171.5,2222.8,175.6z"/>
	<path d="M2318.9,434c-4.8-3.8-11.7-3-15.5,1.8c-14.3,18.1-28.6,36.4-42.9,54.6c0,0.1-0.1,0.2-0.2,0.3c-3.7,4.8-2.8,11.5,1.9,15.2
		c0,0.1,0.1,0.1,0.2,0.2c4.8,3.7,11.7,2.7,15.4-2.1c14.3-18.1,28.5-36.3,42.8-54.4c1.6-2,2.5-4.4,2.4-7
		C2323,439.3,2321.5,436.1,2318.9,434z"/>
	<path d="M2648.4,334.8c-12-1.7-24.1-3.5-36.1-5.2c-11.1-1.6-22.1-3.2-32.2-4.6c-7-0.1-11.9,4-12.3,9.8c0,0.1,0,0.1,0,0.1
		c-0.7,5.9,3.6,11.2,9.5,11.9c22.7,3.3,45.5,6.5,68.2,9.8c6.6,1,12.2-3,13.1-9.4C2659.4,341,2654.9,335.7,2648.4,334.8z"/>
	<path d="M2606.2,448.9c-18-14.1-36-28.3-54-42.4c-5.3-4.1-12-3.5-15.9,1.5s-3,11.6,2.2,15.8c4,3.2,8.1,6.3,12.1,9.5
		c13.8,11,27.7,21.9,41.6,32.8c3.9,3,8,3.7,12.4,1.5c3.7-1.7,6-5.4,6-9.4C2610.7,454.5,2609,451.1,2606.2,448.9z"/>
	<path d="M2342.7,162.5c2.3,5,8,7.6,13.3,5.9c5.8-1.8,9-8,7.2-13.8c-8.6-21.7-17.3-43.5-26.1-65.2c-1.3-3.8-4.8-6.4-8.8-6.6
		c-8.9,0-14.4,7.4-11.6,14.7C2325.3,119.2,2333.9,140.9,2342.7,162.5z"/>
	<path d="M2557.4,251.6c0.1,1.2,0.4,2.4,0.9,3.5c2.4,5.6,9,8.2,14.6,5.7c21.3-8.5,42.7-17,64-25.6c5-1.9,8-7.1,7-12.4
		c-0.9-5.1-5.3-8.8-11.2-8.9c-1,0-2,0.2-3,0.5c-22,8.7-44,17.5-66,26.4C2559.5,242.7,2556.9,247,2557.4,251.6z"/>
	<path d="M2436.9,159.2c5.7,0.8,11.2-3.5,12.1-9.5c1-7,2-13.9,3-20.9c2.3-16,4.7-31.9,6.8-47.9c1-7.2-4-12.6-10.8-12.6
		c-5.3-0.1-10,3.8-10.9,9.2c-3.3,23.1-6.6,46.2-9.9,69.3C2426.3,153,2430.6,158.3,2436.9,159.2z"/>
	<path d="M2265.1,384c5.5-2.3,8.1-8.7,5.8-14.2c-2.3-5.7-8.7-8.4-14.3-6.1c-3.5,1.3-6.9,2.7-10.3,4.1c-18.1,7.2-36.2,14.4-54.2,21.7
		c-5,1.9-7.9,7.1-6.8,12.4c1.1,5.3,5.4,8.8,11.5,8.8c1.2-0.1,2.3-0.4,3.6-0.8c21.5-8.5,42.9-17.1,64.4-25.8
		C2264.9,384.1,2265,384,2265.1,384z"/>
	<path d="M2249.2,299.6c6.9,0.2,11.6-3.9,12.2-9.9c0.7-5.8-3.4-11-9.1-11.8c-22.8-3.4-45.7-6.6-68.5-9.9c-6.6-0.9-12.3,3-13.1,9.1
		c-0.8,6.5,3.3,11.8,10,12.7c10.9,1.5,21.7,3.1,32.6,4.7C2225.5,296.2,2237.8,298,2249.2,299.6z"/>
	<path d="M2486.7,462.8c-2.6-6.4-8.7-9.2-14.7-6.7c-5.8,2.4-8.2,8.6-5.7,14.9c2.2,5.6,4.5,11.2,6.7,16.8
		c6.2,15.6,12.5,31.3,18.8,46.9c1.8,5.1,7.3,8.1,12.6,6.9c5.2-1.1,8.8-5.7,8.7-11c-0.1-1.6-0.4-3.2-1.1-4.6
		C2503.6,504.9,2495.2,483.9,2486.7,462.8z"/>
</g>
<path d="M1642.7,294.2l-78.2-45.2c-7.5-4.3-17.1-1.8-21.4,5.7c-1.4,2.4-2.1,5.1-2.1,7.9v90.3c0,8.7,7,15.7,15.7,15.7
	c2.8,0,5.5-0.7,7.9-2.1l78.2-45.2c7.5-4.3,10.1-13.9,5.8-21.4C1647.1,297.5,1645.1,295.5,1642.7,294.2z"/>
<path class="st0" d="M100.4,312.9l0.2,8.4c0.1,3.8,3.2,6.8,7,6.7l0,0l8.6-0.2c3.8-0.1,6.9,2.9,7,6.6l0,0l0,0c0.1,3.8,3.2,6.8,7,6.7
	c1.2,0,2.4-0.4,3.4-1l30.5-18.5c3.2-1.9,4.3-6.1,2.3-9.4c-0.6-1-1.5-1.9-2.6-2.5l-31.4-17.2c-3.3-1.8-7.4-0.6-9.3,2.7
	c-0.6,1.1-0.9,2.2-0.8,3.4l0,0c0.1,3.8-2.9,6.9-6.6,7l0,0L107,306C103.3,306.1,100.3,309.2,100.4,312.9z"/>
<path class="st0" d="M205.2,458.6l8.5-34.6c0.9-3.7-1.3-7.4-5-8.3c-1.2-0.3-2.4-0.3-3.5,0.1l-34.3,10c-3.6,1-5.7,4.8-4.7,8.4
	c0.3,1.2,1,2.2,1.8,3l0,0c2.7,2.6,2.8,6.9,0.2,9.6l0,0l-5.9,6.2c-2.6,2.7-2.5,7,0.2,9.6l0,0l6.1,5.8c2.7,2.6,7,2.5,9.6-0.2l0,0
	l5.9-6.2c2.6-2.7,6.9-2.8,9.6-0.2l0,0l0,0c2.7,2.6,7,2.5,9.6-0.2C204.3,460.8,204.9,459.7,205.2,458.6z"/>
<path class="st0" d="M305.3,509.3l0.2,8.6c0.1,3.8,3.2,6.8,7,6.7l0,0l8.4-0.2c3.8-0.1,6.8-3.2,6.7-7l0,0l-0.2-8.6
	c-0.1-3.8,2.9-6.9,6.6-7l0,0l0,0c3.8-0.1,6.7-3.3,6.6-7c0-1.1-0.4-2.2-0.9-3.2L321.2,461c-1.9-3.2-6.1-4.3-9.4-2.3
	c-1,0.6-1.9,1.5-2.5,2.6l-17.2,31.3c-1.8,3.3-0.6,7.4,2.7,9.3c1.1,0.6,2.2,0.9,3.4,0.8l0,0C302.1,502.5,305.2,505.5,305.3,509.3z"/>
<path class="st0" d="M446.3,456.6l6.2,5.9c2.7,2.6,7,2.5,9.6-0.2l0,0l5.8-6c2.6-2.7,2.5-7-0.2-9.6l0,0l-6.2-5.9
	c-2.7-2.6-2.8-6.9-0.2-9.6l0,0l0,0c2.6-2.7,2.5-7-0.2-9.6c-0.9-0.8-1.9-1.4-3.1-1.7l-34.6-8.5c-3.7-0.9-7.4,1.3-8.3,5
	c-0.3,1.2-0.3,2.4,0.1,3.5l10,34.3c1,3.6,4.8,5.7,8.4,4.7c1.2-0.3,2.2-1,3-1.8l0,0C439.3,454.1,443.6,454,446.3,456.6z"/>
<path class="st0" d="M460.7,315.5l31.3,17.2c3.3,1.8,7.4,0.6,9.3-2.7c0.6-1.1,0.9-2.3,0.8-3.5l0,0c-0.1-3.8,2.9-6.9,6.6-7l0,0
	l8.6-0.2c3.8-0.1,6.8-3.2,6.7-7l0,0l-0.2-8.4c-0.1-3.8-3.2-6.8-7-6.7l0,0l-8.6,0.2c-3.8,0.1-6.9-2.9-7-6.6l0,0l0,0
	c-0.2-3.8-3.3-6.7-7.1-6.5c-1.1,0-2.2,0.4-3.2,0.9l-30.5,18.5c-3.2,1.9-4.3,6.1-2.4,9.4C458.7,314.1,459.6,314.9,460.7,315.5z"/>
<path class="st0" d="M419.1,166.8l-8.5,34.7c-0.9,3.7,1.3,7.4,5,8.3c1.2,0.3,2.4,0.3,3.5-0.1l34.3-10c3.6-1,5.7-4.8,4.7-8.4
	c-0.3-1.2-1-2.2-1.8-3l0,0c-2.7-2.6-2.8-6.9-0.2-9.6l0,0l5.9-6.2c2.6-2.7,2.5-7-0.2-9.6l0,0l-6-5.8c-2.7-2.6-7-2.5-9.6,0.2l0,0
	l-5.9,6.2c-2.6,2.7-6.9,2.8-9.6,0.2l0,0l0,0c-2.7-2.6-7-2.5-9.6,0.2C420,164.6,419.4,165.6,419.1,166.8z"/>
<path class="st0" d="M311.9,100.9l-8.4,0.2c-3.8,0.1-6.8,3.2-6.7,7l0,0l0.2,8.6c0.1,3.8-2.9,6.9-6.6,7l0,0l0,0
	c-3.8,0.1-6.8,3.2-6.7,7c0,1.2,0.4,2.4,1,3.4l18.5,30.5c1.9,3.2,6.1,4.3,9.4,2.3c1-0.6,1.9-1.5,2.5-2.6l17.2-31.3
	c1.9-3.3,0.7-7.4-2.5-9.3c-1.1-0.6-2.4-0.9-3.6-0.9l0,0c-3.8,0.1-6.9-2.9-7-6.6l0,0l-0.2-8.6C318.7,103.8,315.7,100.8,311.9,100.9z"
	/>
<path class="st0" d="M178,168.8l-6.2-5.9c-2.7-2.6-7-2.5-9.6,0.2l0,0l-5.8,6.1c-2.6,2.7-2.5,7,0.2,9.6l0,0l6.2,5.9
	c2.7,2.6,2.8,6.9,0.2,9.6l0,0l0,0c-2.6,2.7-2.5,7,0.2,9.6c0.9,0.8,1.9,1.4,3.1,1.7l34.7,8.5c3.7,0.9,7.4-1.3,8.3-5
	c0.3-1.2,0.3-2.4-0.1-3.5l-10-34.3c-1-3.6-4.8-5.7-8.4-4.7c-1.2,0.3-2.2,1-3,1.8l0,0C185.1,171.3,180.8,171.4,178,168.8z"/>
<ellipse transform="matrix(0.2132 -0.977 0.977 0.2132 -32.3537 209.5332)" class="st1" cx="113.9" cy="124.9" rx="29.8" ry="29.8"/>
<ellipse transform="matrix(0.8416 -0.5401 0.5401 0.8416 -166.6146 71.8559)" class="st1" cx="39.2" cy="320" rx="29.8" ry="29.8"/>
<ellipse transform="matrix(0.2132 -0.977 0.977 0.2132 -401.3604 523.4198)" class="st1" cx="124.3" cy="510.9" rx="29.8" ry="29.8"/>
<ellipse transform="matrix(0.8416 -0.5401 0.5401 0.8416 -265.7242 265.3432)" class="st1" cx="319.5" cy="585.7" rx="29.8" ry="29.8"/>
<ellipse transform="matrix(0.2132 -0.977 0.977 0.2132 -87.4739 892.4263)" class="st1" cx="510.3" cy="500.5" rx="29.8" ry="29.8"/>
<ellipse transform="matrix(0.8416 -0.5401 0.5401 0.8416 -72.1971 364.4117)" class="st1" cx="585.2" cy="305.3" rx="29.8" ry="29.8"/>
<ellipse transform="matrix(0.2132 -0.977 0.977 0.2132 281.5889 578.6521)" class="st1" cx="500.1" cy="114.5" rx="29.8" ry="29.8"/>
<ellipse transform="matrix(0.8416 -0.5401 0.5401 0.8416 26.8342 170.924)" class="st1" cx="304.8" cy="39.7" rx="29.8" ry="29.8"/>
<ellipse transform="matrix(0.2132 -0.977 0.977 0.2132 506.1928 1151.9316)" class="st0" cx="968.3" cy="261.7" rx="12" ry="12"/>
<ellipse transform="matrix(0.2132 -0.977 0.977 0.2132 501.2203 1145.8069)" class="st2" cx="962" cy="261.7" rx="24.2" ry="24.1"/>
<ellipse transform="matrix(0.2132 -0.977 0.977 0.2132 449.3723 1081.3832)" class="st0" cx="896.1" cy="261.7" rx="12" ry="12"/>
<ellipse transform="matrix(0.2132 -0.977 0.977 0.2132 444.3965 1075.2738)" class="st2" cx="889.8" cy="261.7" rx="24.2" ry="24.1"/>
<ellipse transform="matrix(0.8412 -0.5408 0.5408 0.8412 68.8284 625.2726)" class="st0" cx="1098.8" cy="195.5" rx="13.6" ry="13.6"/>
<ellipse transform="matrix(0.8416 -0.5401 0.5401 0.8416 63.2621 607.1187)" class="st0" cx="1066.7" cy="195.7" rx="13.6" ry="13.6"/>
<path class="st3" d="M1075.2,114.3v19.5c0,10.1-6,19.3-15.4,23.2l-13.4,5.7c-9.3,4-15.4,13.1-15.4,23.2l0,0
	c0,13.9,11.3,25.2,25.2,25.2h53.3c13.9,0,25.2-11.3,25.2-25.2v-11.6"/>
<path class="st3" d="M1180.1,254l25-25c5.6-5.6,14.7-5.6,20.3,0c0.2,0.2,0.4,0.4,0.6,0.6l0,0c5.3,5.9,14.3,6.4,20.3,1.1
	c0.4-0.4,0.8-0.7,1.1-1.1l1-1.1c5.3-5.9,14.3-6.5,20.3-1.2c0.3,0.2,0.5,0.5,0.7,0.7l23.6,24.1c4,4.1,5.2,10.2,3,15.5
	c-6.3,15.4-23,44.7-58.1,44.7c-34.3,0-52.7-26.7-60.3-41.6C1174.7,265.2,1175.7,258.4,1180.1,254z"/>
<line class="st3" x1="1256.4" y1="266" x2="1216.6" y2="266"/>
<path class="st3" d="M949.1,445.4l-29.9-34.2c-1.1-1.3-1.1-3.2,0.2-4.4l11.2-11.2c1.3-1.3,3.3-1.3,4.5,0l0,0l20.5,20.5
	c1.3,1.3,3.3,1.3,4.5,0c0.5-0.5,0.8-1,0.9-1.7l12.3-65.7c0.3-1.7,2-2.9,3.7-2.6l14.7,2.6c1.7,0.3,2.9,2,2.6,3.7l-5.3,31.7
	c-0.3,1.7,0.9,3.4,2.6,3.7c1.3,0.2,2.6-0.3,3.3-1.4l24.5-38.1c1-1.5,2.9-1.9,4.4-1h0.1l13.1,8.9c1.5,1,1.8,3,0.9,4.4l-23.8,35.9
	c-1,1.5-0.6,3.5,0.9,4.5c1.1,0.7,2.6,0.7,3.6,0l35.3-24.5c1.5-1,3.5-0.7,4.5,0.8c0,0,0,0.1,0.1,0.1l7.7,12c0.9,1.4,0.6,3.3-0.8,4.3
	l-40.4,29c-1.4,1-1.8,3-0.8,4.5c0.7,1,2,1.5,3.3,1.3l32.7-6.6c1.7-0.4,3.4,0.8,3.8,2.5c0,0.1,0,0.3,0.1,0.4l1.1,13.4
	c0.1,1.7-1,3.2-2.7,3.4l-46.4,7.5c-0.9,0.1-1.7,0.7-2.2,1.5L991.5,487c-0.8,1.3-2.4,1.8-3.8,1.4l-35.4-12.1c-1.3-0.4-2.2-1.6-2.2-3
	l-0.3-25.8C949.9,446.7,949.6,446,949.1,445.4z"/>
<path class="st3" d="M1136.9,403.3c-0.3-19,14.8-34.7,33.8-35s34.7,14.8,35,33.8c0,0.4,0,0.8,0,1.2V449c0,19-15.4,34.4-34.4,34.4
	c-15.8,0-29.5-10.7-33.4-26"/>
<path class="st3" d="M1158,403.5c0-7.4,6-13.3,13.3-13.3c7.4,0,13.3,6,13.3,13.3l0,0V450c0,7.4-6,13.3-13.3,13.3
	c-7.4,0-13.3-6-13.3-13.3l0,0"/>
<circle class="st0" cx="1158" cy="426.1" r="8.7"/>
<path class="st4" d="M332.4,217.1h-40.5c-11.4,0-22.3,4.5-30.3,12.6L233,258.3c-8,8-12.6,18.9-12.6,30.3v40.5
	c0,11.4,4.5,22.3,12.6,30.3l28.7,28.7c8,8,18.9,12.6,30.3,12.5h40.5c11.4,0,22.3-4.5,30.3-12.5l28.7-28.7c8-8,12.6-18.9,12.6-30.3
	v-40.5c0-11.4-4.5-22.3-12.5-30.3l-28.7-28.7C354.7,221.6,343.8,217.1,332.4,217.1z"/>
<path class="st5" d="M803.6,370.9c14,71.1,55.1,134,114.7,175.2c126.8,88.1,301,56.7,389.1-70.1s56.7-301-70.1-389.1
	s-301-56.7-389.1,70.1c-22.7,32.6-38.2,69.6-45.4,108.6l-125.2,41.8L803.6,370.9z"/>
</svg>
