<?xml version="1.0" encoding="utf-8"?>
<!-- Generator: Adobe Illustrator 21.1.0, SVG Export Plug-In . SVG Version: 6.00 Build 0)  -->
<svg version="1.1" id="レイヤー_1" xmlns="http://www.w3.org/2000/svg" xmlns:xlink="http://www.w3.org/1999/xlink" x="0px"
	 y="0px" viewBox="0 0 2632.2 505.3" style="enable-background:new 0 0 2632.2 505.3;" xml:space="preserve">
<style type="text/css">
	.st0{fill:#E8404D;}
	.st1{fill:none;stroke:#E8404D;stroke-width:23.13;stroke-miterlimit:10;}
	.st2{fill:none;stroke:#E8404D;stroke-width:23.13;stroke-linecap:round;stroke-miterlimit:10;}
</style>
<title>アートボード 1 のコピー</title>
<path class="st0" d="M487.4,75.1c0.1-39.8,32.5-71.9,72.2-71.8c39.8,0.1,71.9,32.5,71.8,72.2s-32.5,71.9-72.2,71.8c0,0,0,0,0,0
	c-39.7,0-71.8-32.2-71.8-71.8C487.4,75.4,487.4,75.3,487.4,75.1z M559.5,124.9c27.4,0,49.7-22.3,49.6-49.8
	c0-27.4-22.3-49.7-49.8-49.6c-27.4,0-49.7,22.3-49.6,49.8c0,0,0,0.1,0,0.1C509.8,102.8,532.1,125,559.5,124.9
	C559.5,124.9,559.5,124.9,559.5,124.9L559.5,124.9z"/>
<path d="M316.4,368c66.9,0,121.6,50.4,126.6,115.4c0.2,3.2,0.4,6.4,0.4,9.6c0,6.6-4.6,11.6-10.9,11.7c-6.3,0.1-11.4-4.7-11.5-11.5
	c0-20.8-6.4-41.2-18.2-58.3c-23.9-34.6-66.7-51.4-107.2-42.2c-41.6,9.5-72.9,42.7-79.6,84.5c-0.8,5.2-1.3,10.4-1.3,15.6
	c0,7-4.8,11.9-11.3,11.9c-6.4-0.1-11-5.1-11.1-11.9c-0.4-58.1,42.9-111,100-122.3C300.4,369.1,308.4,368.2,316.4,368z"/>
<path d="M318.3,235.1c35.1,0.1,63.5,28.7,63.4,63.8c0,0.1,0,0.2,0,0.4c-0.2,35.5-28.8,63.3-64.8,63.2c-34.7-0.2-62.6-29.1-62.4-64.8
	C254.6,263.2,283.5,234.9,318.3,235.1z M276.8,298.7c0,22.8,18.4,41.3,41.2,41.4c22.8,0,41.3-18.4,41.4-41.2
	c0-22.8-18.4-41.3-41.2-41.4c0,0,0,0-0.1,0c-22.7-0.1-41.2,18.2-41.3,40.9C276.8,298.5,276.8,298.6,276.8,298.7z"/>
<path class="st0" d="M467.6,206.4c-21.7,0-39.3-17.6-39.3-39.3s17.6-39.3,39.3-39.3c21.7,0,39.3,17.6,39.3,39.3c0,0,0,0.1,0,0.1
	c0,21.6-17.5,39.2-39.1,39.2C467.7,206.4,467.6,206.4,467.6,206.4z M450.7,167.2c0.1,9.3,7.7,16.8,17.1,16.7
	c9.3-0.1,16.8-7.7,16.7-17.1c-0.1-9.3-7.7-16.8-17.1-16.7C458.1,150.3,450.7,157.9,450.7,167.2L450.7,167.2z"/>
<path class="st0" d="M411.4,208.4c8.3,0,15,6.8,14.9,15.1c0,8.3-6.8,15-15.1,14.9c-8.3,0-15-6.8-14.9-15.1c0,0,0,0,0-0.1
	c0-8.2,6.6-14.9,14.8-14.9C411.2,208.4,411.3,208.4,411.4,208.4z"/>
<path d="M1394,147.8c0-24.5,19.8-44.3,44.3-44.3c24.5,0,44.3,19.8,44.3,44.3c0,24.4-19.8,44.3-44.2,44.3
	C1414.1,192.1,1393.9,172.3,1394,147.8z M1438.2,171.5c12.5,0.4,23.8-10,24-23.4c0.3-13.2-10.1-24.1-23.2-24.4
	c-13.2-0.3-24.1,10.1-24.4,23.2c0,0.3,0,0.6,0,0.9c-0.1,13,10.4,23.6,23.4,23.7C1438,171.5,1438.1,171.5,1438.2,171.5z"/>
<path d="M1358.6,96.4c0,24.5-19.9,44.3-44.4,44.3c-24.5,0-44.3-19.9-44.3-44.4c0-24.5,19.9-44.3,44.4-44.3c0.1,0,0.1,0,0.2,0
	C1338.9,52.2,1358.6,72,1358.6,96.4z M1314.3,120.1c13.2,0,23.8-10.7,23.8-23.8c0-13.2-10.7-23.8-23.8-23.8
	c-13.2,0-23.8,10.7-23.8,23.8l0,0c-0.1,13.1,10.5,23.7,23.5,23.8C1314.1,120.1,1314.2,120.1,1314.3,120.1L1314.3,120.1z"/>
<path d="M1438.3,440.3c-24.5,0-44.3-19.9-44.3-44.4s19.9-44.3,44.4-44.3c24.5,0,44.3,19.9,44.3,44.4c0,0.1,0,0.1,0,0.2
	C1482.5,420.5,1462.7,440.2,1438.3,440.3z M1462.1,395.9c0-13.2-10.7-23.8-23.9-23.8c-13.2,0-23.8,10.7-23.8,23.9
	c0,13.1,10.7,23.8,23.8,23.8c13.1,0.1,23.8-10.5,23.9-23.6C1462.1,396.1,1462.1,396,1462.1,395.9z"/>
<path d="M1234.4,147.7c0.3,24-19.6,44.3-44.3,44.3c-24.5,0-44.3-19.9-44.3-44.3c0-24.5,19.9-44.3,44.3-44.3
	C1214.6,103.4,1234.4,123.2,1234.4,147.7z M1190.1,171.5c13.1,0.1,23.9-10.6,23.9-23.7c0.1-13.1-10.6-23.9-23.7-23.9
	s-23.9,10.6-23.9,23.7C1166.3,160.7,1176.9,171.4,1190.1,171.5z"/>
<path d="M1489.6,316.1c-24.4,0.1-44.3-20.1-44.3-44.4c0-24.5,19.9-44.3,44.4-44.3c24.5,0,44.3,19.9,44.3,44.4
	C1534,296.3,1514.1,316.1,1489.6,316.1z M1513.5,271.9c0-13.2-10.6-23.9-23.8-23.9s-23.9,10.6-23.9,23.8s10.6,23.9,23.8,23.9
	S1513.5,285.1,1513.5,271.9z"/>
<path d="M1183,271.9c0.3,23.9-19.6,44.3-44.5,44.2c-24.5-0.1-44.3-20-44.2-44.5c0.1-24.5,20-44.3,44.5-44.2
	C1163.3,227.5,1183.1,247.4,1183,271.9z M1138.8,247.9c-13.2,0-23.9,10.6-23.9,23.8c0,13.2,10.6,23.9,23.8,23.9
	c13.1,0,23.8-10.6,23.9-23.7C1162.6,258.7,1152,248,1138.8,247.9C1138.8,248,1138.8,248,1138.8,247.9L1138.8,247.9z"/>
<path d="M1190,351.5c24.3,0,44.1,19.6,44.4,43.9c0.3,23-17.9,44.9-44.4,44.9c-24.5,0-44.4-19.8-44.4-44.3S1165.5,351.6,1190,351.5
	L1190,351.5L1190,351.5z M1166.3,395.7c-0.1,13.2,10.5,23.9,23.7,24c13.2,0.1,23.9-10.5,24-23.7c0.1-13.1-10.5-23.9-23.6-24
	c-13.1-0.2-23.9,10.3-24.1,23.5C1166.3,395.6,1166.3,395.6,1166.3,395.7L1166.3,395.7z"/>
<path d="M1358.6,447.3c0,24.5-19.8,44.4-44.3,44.4c-24.5,0-44.4-19.8-44.4-44.3c0-24.5,19.8-44.4,44.3-44.4
	C1338.6,403,1358.5,422.8,1358.6,447.3z M1314.3,471.2c13.2,0,23.8-10.7,23.8-23.9c0-13.2-10.7-23.8-23.9-23.8
	c-13.1,0-23.8,10.7-23.8,23.8c0,13.1,10.6,23.8,23.8,23.9C1314.2,471.2,1314.3,471.2,1314.3,471.2z"/>
<path d="M2510.8,316.1c-0.1,17.9-0.7,37.7-4.4,57.2c-3.4,18-19.8,30.8-38.1,31.6c-52.4,2.2-104.7,4.4-157.1,6.7
	c-35,1.5-69.9,3-104.9,4.4c-1.8,0.1-3.7,0.6-5.5,0.3c-6.4-1-10.1,2-13.3,7.4c-3.9,6.6-8.6,12.8-12.9,19.1
	c-18.1,26.2-56.8,23.3-70.5-5.4c-12.1-25.2-23.9-50.6-35.6-76c-6.8-14.8-4.9-29.2,5.2-42c10.3-13.1,24.2-17.4,40.5-14.6
	c9.8,1.7,19.6,3.3,29.5,5c1.7,0.3,2.6-0.5,3.5-1.6c45-48.8,90-97.7,135.1-146.5c20.3-22,40.6-44,60.9-66c13.9-15,35.4-17.8,52.5-6.6
	c46.6,30.4,81.4,70.4,99.9,123.6C2507.1,245.6,2510.8,279.6,2510.8,316.1z M2489.5,312.6c-0.1-16-1.2-32-3.4-47.8
	c-9.3-68.4-44.6-120.1-101.8-157.6c-8.7-5.7-18.6-4.4-25.7,3.2c-33.6,36.5-67.3,72.9-100.9,109.4c-33.3,36.1-66.6,72.2-99.8,108.3
	c-2.9,3.1-6.3,4.5-10.6,3.8c-12.4-2.1-24.8-4.1-37.2-6.2c-7.9-1.4-14.7,0.5-19.7,6.9c-5,6.4-5.5,13.5-2.1,20.9
	c11.6,24.6,23.1,49.2,34.6,73.9c3.4,7.4,9.1,11.5,17.1,11.9c7.4,0.3,13.1-3,17.2-9.1c6.7-9.9,13.4-19.6,20.2-29.5
	c1.9-3.1,5.2-5.1,8.9-5.3c3.6-0.2,7.2-0.4,10.8-0.5c38.9-1.6,77.8-3.3,116.7-4.9c51.3-2.2,102.6-4.4,153.9-6.7
	c9.2-0.4,16.8-7.3,18.2-16.4C2488.3,349,2489.5,330.8,2489.5,312.6L2489.5,312.6z"/>
<path d="M872.7,272.1L791,225c-7.8-4.5-17.8-1.9-22.4,5.9c-1.5,2.5-2.2,5.3-2.2,8.2v94.4c0,9,7.3,16.4,16.3,16.4
	c2.9,0,5.7-0.8,8.2-2.2l81.7-47.2c7.8-4.5,10.5-14.5,6.1-22.3C877.3,275.7,875.2,273.6,872.7,272.1z"/>
<path d="M1860.6,272.1L1779,225c-7.8-4.5-17.9-1.8-22.4,6c-1.4,2.5-2.2,5.3-2.2,8.2v94.2c0,9,7.3,16.4,16.4,16.4
	c2.9,0,5.7-0.8,8.2-2.2l81.6-47.1c7.8-4.5,10.5-14.5,6-22.4C1865.2,275.6,1863.1,273.5,1860.6,272.1z"/>
<path class="st1" d="M1329.8,210.7h-27c-7.6,0-14.8,3-20.2,8.4l-19.1,19.1c-5.4,5.4-8.4,12.6-8.4,20.2v27c0,7.6,3,14.8,8.4,20.2
	l19.1,19.1c5.4,5.4,12.6,8.4,20.2,8.4h27c7.6,0,14.8-3,20.2-8.4l19.1-19.1c5.4-5.4,8.4-12.6,8.4-20.2v-27c0-7.6-3-14.8-8.4-20.2
	l-19.1-19.1C1344.7,213.7,1337.4,210.7,1329.8,210.7z"/>
<line class="st2" x1="2455.7" y1="55.9" x2="2502.4" y2="12.1"/>
<line class="st2" x1="2519.9" y1="142.1" x2="2578.5" y2="113.4"/>
<line class="st2" x1="2551.6" y1="244.5" x2="2613" y2="232"/>
<line class="st2" x1="2556.7" y1="364.9" x2="2620.6" y2="361"/>
</svg>
