<svg id="レイヤー_1" data-name="レイヤー 1" xmlns="http://www.w3.org/2000/svg" viewBox="0 0 816.03 816.03"><defs><style>.cls-1{fill:#e8404d;}.cls-2{fill:none;stroke:#e8404d;stroke-linecap:round;stroke-miterlimit:10;stroke-width:25.33px;}</style></defs><title>アートボード 1 のコピー 6</title><path class="cls-1" d="M515.31,356.27a109.13,109.13,0,0,0-218.26.25c0,.22,0,.43,0,.65V522.84a7.87,7.87,0,0,0,7.17,8,7.58,7.58,0,0,0,8-7.57V432.69a6.7,6.7,0,0,1,11.71-4.46l.42.48a6.74,6.74,0,0,1,1.72,4.46v89.67a7.87,7.87,0,0,0,7.18,8,7.58,7.58,0,0,0,8-7.57V456.66a6.73,6.73,0,0,1,10.18-5.74l.21.12a6.79,6.79,0,0,1,3.46,5.87v65.93a7.87,7.87,0,0,0,7.18,8,7.58,7.58,0,0,0,8-7.57V468.62a6.69,6.69,0,0,1,8.4-6.48l.43.11a6.69,6.69,0,0,1,5,6.48v54.11a7.87,7.87,0,0,0,7.18,8,7.58,7.58,0,0,0,8-7.57V472.36a6.75,6.75,0,0,1,6.84-6.71h.17a6.75,6.75,0,0,1,6.84,6.71v50.48a7.87,7.87,0,0,0,7.18,8,7.58,7.58,0,0,0,8-7.57V468.73a6.69,6.69,0,0,1,5-6.48l.43-.11a6.69,6.69,0,0,1,8.4,6.48v54.23a7.87,7.87,0,0,0,7.18,8,7.58,7.58,0,0,0,8-7.57V456.89a6.79,6.79,0,0,1,3.45-5.86l.21-.12a6.73,6.73,0,0,1,10.18,5.74v66.2a7.87,7.87,0,0,0,7.18,8,7.58,7.58,0,0,0,8-7.57V433.14a6.74,6.74,0,0,1,1.71-4.46l.43-.49a6.7,6.7,0,0,1,11.71,4.46v90.19a7.87,7.87,0,0,0,7.18,8,7.58,7.58,0,0,0,8-7.57V356.52C515.34,356.44,515.32,356.36,515.31,356.27Z"/><line class="cls-2" x1="406.2" y1="12.66" x2="406.2" y2="145.96"/><line class="cls-2" x1="208.77" y1="66.54" x2="275.42" y2="181.98"/><line class="cls-2" x1="64.72" y1="211.91" x2="180.16" y2="278.56"/><line class="cls-2" x1="12.66" y1="409.83" x2="145.96" y2="409.83"/><line class="cls-2" x1="66.54" y1="607.26" x2="181.98" y2="540.61"/><line class="cls-2" x1="211.91" y1="751.3" x2="278.56" y2="635.86"/><line class="cls-2" x1="409.83" y1="803.36" x2="409.83" y2="670.07"/><line class="cls-2" x1="607.26" y1="749.49" x2="540.61" y2="634.05"/><line class="cls-2" x1="751.3" y1="604.12" x2="635.86" y2="537.47"/><line class="cls-2" x1="803.36" y1="406.2" x2="670.07" y2="406.2"/><line class="cls-2" x1="749.49" y1="208.77" x2="634.05" y2="275.42"/><line class="cls-2" x1="604.12" y1="64.72" x2="537.47" y2="180.16"/></svg>