<?xml version="1.0" encoding="utf-8"?>
<!-- Generator: Adobe Illustrator 21.1.0, SVG Export Plug-In . SVG Version: 6.00 Build 0)  -->
<svg version="1.1" id="レイヤー_1" xmlns="http://www.w3.org/2000/svg" xmlns:xlink="http://www.w3.org/1999/xlink" x="0px"
	 y="0px" viewBox="0 0 2618.8 661.5" style="enable-background:new 0 0 2618.8 661.5;" xml:space="preserve">
<style type="text/css">
	.st0{fill:none;stroke:#231815;stroke-width:22.84;stroke-miterlimit:10;}
	.st1{fill:none;stroke:#E8404D;stroke-width:22.98;stroke-miterlimit:10;}
</style>
<title>アートボード 1 のコピー 4</title>
<path d="M1357.8,316.7l-81.1-46.8c-7.8-4.5-17.7-1.8-22.2,6c-1.4,2.5-2.2,5.3-2.2,8.1v93.6c0,9,7.3,16.3,16.3,16.3
	c2.8,0,5.6-0.8,8.1-2.2l81.1-46.8c7.8-4.5,10.4-14.5,5.9-22.2C1362.3,320.2,1360.3,318.1,1357.8,316.7z"/>
<path class="st0" d="M383.4,267.1c23.8-5.8,46.3,0.6,62.6,14.1c4.4,3.7,11,3.2,14.7-1.2c1.6-1.9,2.5-4.3,2.5-6.7v-64.4
	c0-18.1-14.7-32.8-32.8-32.8c0,0,0,0,0,0h-64.6c-5.8,0-10.4-4.7-10.4-10.5c0-2.5,0.9-4.9,2.5-6.8c14.1-16.9,20.5-40.4,13.7-65.3
	c-6.6-23.6-25.2-41.9-48.9-48.1c-47.1-12.3-89.5,23-89.5,68.1c0,16.6,5.8,32.7,16.5,45.3c3.7,4.5,3.1,11.1-1.4,14.7
	c-1.9,1.6-4.3,2.4-6.7,2.4h-64.5c-18.1,0-32.8,14.7-32.8,32.8l0,0v63.2c0,6.1-4.9,11.1-11,11.1c-2.5,0-5-0.9-7-2.5
	c-16.8-13.7-40.1-19.8-64.5-13.1c-23.6,6.6-41.9,25.2-48.1,48.9C1.6,363.7,36.9,406,82,406c16.6,0,32.6-5.9,45.3-16.5
	c4.5-3.7,11.1-3.1,14.7,1.4c1.6,1.9,2.4,4.3,2.4,6.7V462c0,18.1,14.7,32.8,32.8,32.8h253.1c18.1,0,32.8-14.7,32.8-32.8l0,0v-64.1
	c0-5.8-4.7-10.5-10.5-10.5c-2.4,0-4.8,0.8-6.7,2.4c-12.7,10.6-28.6,16.3-45.1,16.3c-44.3,0-79.1-40.9-68.7-87
	C338.1,293.5,357.9,273.3,383.4,267.1z"/>
<path class="st0" d="M2074.9,421.8c23.8-5.8,46.3,0.6,62.6,14.1c4.4,3.7,11,3.2,14.7-1.2c1.6-1.9,2.5-4.3,2.5-6.7v-64.4
	c0-18.1-14.7-32.8-32.8-32.8l0,0h-64.6c-5.8,0-10.4-4.7-10.4-10.5c0-2.5,0.9-4.9,2.5-6.8c14.1-16.9,20.5-40.4,13.7-65.3
	c-6.6-23.6-25.2-41.9-48.9-48.1c-47.1-12.3-89.5,23-89.5,68.1c0,16.6,5.8,32.7,16.5,45.3c3.7,4.5,3.1,11.1-1.4,14.7
	c-1.9,1.6-4.3,2.4-6.7,2.4h-64.4c-18.1,0-32.8,14.7-32.8,32.8v63.2c0,6.1-4.9,11.1-11,11.1c-2.5,0-5-0.9-7-2.5
	c-16.8-13.7-40.1-19.8-64.5-13.1c-23.6,6.6-41.9,25.2-48.1,48.9c-12.3,47.1,23,89.5,68.1,89.5c16.6,0,32.7-5.8,45.3-16.5
	c4.5-3.7,11.1-3.1,14.7,1.4c1.6,1.9,2.4,4.3,2.4,6.7v64.4c0,18.1,14.7,32.8,32.8,32.8H2122c18.1,0,32.8-14.7,32.8-32.8c0,0,0,0,0,0
	v-64.2c0-5.8-4.7-10.5-10.5-10.5c-2.4,0-4.8,0.8-6.7,2.4c-12.7,10.6-28.6,16.3-45.1,16.3c-44.3,0-79.1-40.9-68.7-87
	C2029.7,448.1,2049.5,428,2074.9,421.8z"/>
<path class="st1" d="M559.3,176.1h-63.1c-18,0-32.7,14.6-32.7,32.7v0v63.3c0,6.1-5,11.1-11.1,11.1c-2.5,0-5-0.9-6.9-2.4
	c-30.2-24.6-74.7-19.9-99.2,10.3c-24.6,30.2-19.9,74.7,10.3,99.2c25.9,21,62.9,21,88.8,0.1c4.7-3.9,11.7-3.2,15.6,1.5
	c1.6,2,2.5,4.5,2.5,7v63.3c0,18,14.6,32.7,32.7,32.7h0h63.1c6.1,0,11.1-4.9,11.1-11c0-2.5-0.8-5-2.4-7
	c-24.4-30.3-19.7-74.7,10.7-99.2c30.3-24.4,74.7-19.7,99.2,10.7c20.8,25.8,20.8,62.6,0.1,88.4c-3.9,4.8-3.1,11.7,1.6,15.6
	c2,1.6,4.4,2.5,7,2.5h63.1c18,0,32.7-14.6,32.7-32.7v-63.3c0-6.1,5-11.1,11.1-11.1c2.5,0,5,0.9,6.9,2.4
	c30.2,24.6,74.7,19.9,99.2-10.3s19.9-74.7-10.3-99.2c-25.9-21-62.9-21-88.8-0.1c-4.7,3.9-11.7,3.2-15.6-1.5c-1.6-2-2.5-4.5-2.5-7
	v-63.3c0-18-14.6-32.7-32.7-32.7H559.3z"/>
<path class="st1" d="M1868.7,12c-18,0-32.7,14.6-32.7,32.7c0,0,0,0,0,0V108c0,6.1-5,11.1-11.1,11.1c-2.5,0-5-0.9-6.9-2.4
	c-30.2-24.6-74.7-19.9-99.2,10.3c-24.6,30.2-19.9,74.7,10.3,99.2c25.9,21,62.9,21,88.8,0.1c4.7-3.9,11.7-3.2,15.6,1.5
	c1.6,2,2.5,4.5,2.5,7v63.3c0,18,14.6,32.7,32.7,32.7l0,0h63.1c6.1,0,11.1-4.9,11.1-11c0-2.5-0.8-5-2.4-7
	c-24.4-30.3-19.7-74.7,10.7-99.2c30.3-24.4,74.7-19.7,99.2,10.7c20.8,25.8,20.8,62.6,0.1,88.4c-3.9,4.8-3.1,11.7,1.6,15.6
	c2,1.6,4.4,2.5,7,2.5h63.1c18,0,32.7-14.6,32.7-32.7v-63.3c0-6.1,5-11.1,11.1-11.1c2.5,0,5,0.9,6.9,2.4
	c30.2,24.6,74.7,19.9,99.2-10.3c24.6-30.2,19.9-74.7-10.3-99.2c-25.9-21-62.9-21-88.8-0.1c-4.7,3.9-11.7,3.2-15.6-1.5
	c-1.6-2-2.5-4.5-2.5-7V44.7c0-18-14.6-32.7-32.7-32.7L1868.7,12z"/>
</svg>
