<svg xmlns="http://www.w3.org/2000/svg" viewBox="0 0 700 700"><defs><style>.cls-1{fill:#e7404c;}.cls-2{fill:#fff;}</style></defs><title>アートボード 2</title><g id="facebook"><circle class="cls-1" cx="350" cy="350" r="350"/><path id="White-2" class="cls-2" d="M486.45,190.88H219.56A16.56,16.56,0,0,0,203,207.44h0v266.9a16.56,16.56,0,0,0,16.56,16.56H363.25V374.71h-39.1V329.44h39.1V296c0-38.75,23.66-59.85,58.24-59.85A320.78,320.78,0,0,1,456.43,238v40.47h-24c-18.79,0-22.48,8.94-22.48,22V329.4H454.8L449,374.68H410V490.89h76.44A16.56,16.56,0,0,0,503,474.33h0V207.44A16.56,16.56,0,0,0,486.45,190.88Z"/></g></svg>