<svg xmlns="http://www.w3.org/2000/svg" viewBox="0 0 700 700"><defs><style>.cls-1{fill:#e7404c;}.cls-2{fill:#fff;}</style></defs><title>アートボード 3</title><g id="twitter"><circle class="cls-1" cx="350" cy="350" r="350"/><path class="cls-2" d="M513,258.8a123,123,0,0,1-35.35,9.69,61.73,61.73,0,0,0,27.06-34,123.23,123.23,0,0,1-39.09,14.93A61.6,61.6,0,0,0,360.7,305.54a174.74,174.74,0,0,1-126.9-64.34,61.62,61.62,0,0,0,19.08,82.17A61.3,61.3,0,0,1,225,315.69v.78a61.58,61.58,0,0,0,49.38,60.35,61.7,61.7,0,0,1-27.8,1.1,61.62,61.62,0,0,0,57.5,42.8,123.49,123.49,0,0,1-76.44,26.34,125.28,125.28,0,0,1-14.69-.94,174.21,174.21,0,0,0,94.37,27.65c113.21,0,175.11-93.79,175.11-175.12q0-4-.18-8A125.1,125.1,0,0,0,513,258.8Z"/></g></svg>