<?xml version="1.0" encoding="utf-8"?>
<!-- Generator: Adobe Illustrator 22.0.0, SVG Export Plug-In . SVG Version: 6.00 Build 0)  -->
<svg version="1.1" id="レイヤー_1" xmlns="http://www.w3.org/2000/svg" xmlns:xlink="http://www.w3.org/1999/xlink" x="0px"
	 y="0px" viewBox="0 0 612.7 1095.7" style="enable-background:new 0 0 612.7 1095.7;" xml:space="preserve">
<style type="text/css">
	.st0{fill:#E8404D;}
</style>
<title>アートボード 1 のコピー 20</title>
<path class="st0" d="M612.6,305.2C612.3,136.6,475.5,0,306.8,0C137.9,0,0.9,136.9,0.9,305.9c0,0.6,0,1.2,0,1.8V772
	c0,11.5,8.6,21.8,20.1,22.4c11.7,0.6,21.7-8.4,22.4-20.1c0-0.4,0-0.8,0-1.2V519.4c0-17.3,21.5-25.5,32.8-12.5l1.2,1.4
	c3.1,3.4,4.8,7.9,4.8,12.5V772c0,11.5,8.6,21.8,20.1,22.4c11.7,0.6,21.7-8.4,22.4-20.1c0-0.4,0-0.8,0-1.1V586.5
	c0-14.6,15.9-23.4,28.5-16.1l0.6,0.3c5.9,3.3,9.6,9.6,9.7,16.4V772c0,11.5,8.6,21.8,20.1,22.4c11.7,0.6,21.7-8.4,22.4-20.1
	c0-0.4,0-0.8,0-1.1V620.1c0-10.4,8.4-18.8,18.7-18.8c1.6,0,3.2,0.2,4.8,0.6l1.2,0.3c8.3,2.1,14.1,9.6,14.1,18.2V772
	c0,11.5,8.6,21.8,20.1,22.4c11.7,0.6,21.7-8.4,22.4-20.1c0-0.4,0-0.8,0-1.1V630.5c0.1-10.4,8.6-18.9,19-18.8c0,0,0.1,0,0.1,0h0.5
	c10.4-0.1,19,8.2,19.2,18.7c0,0,0,0.1,0,0.1V772c0,11.5,8.6,21.8,20.1,22.4c11.7,0.6,21.7-8.4,22.4-20.1c0-0.4,0-0.8,0-1.1V620.3
	c0-8.6,5.8-16,14.1-18.2l1.2-0.3c10-2.7,20.3,3.3,23,13.3c0.4,1.6,0.6,3.2,0.6,4.8v152c0,11.5,8.6,21.8,20.1,22.4
	c11.7,0.6,21.7-8.4,22.4-20.1c0-0.4,0-0.8,0-1.1v-186c0-6.8,3.7-13.1,9.7-16.4l0.6-0.3c12.7-7.4,28.5,1.4,28.5,16.1V772
	c0,11.5,8.6,21.8,20.1,22.4c11.7,0.6,21.7-8.4,22.4-20.1c0-0.4,0-0.8,0-1.1V520.6c0-4.6,1.7-9.1,4.8-12.5l1.2-1.4
	c11.3-13,32.8-4.8,32.8,12.5V772c0,11.5,8.6,21.8,20.1,22.4c11.7,0.6,21.7-8.4,22.4-20.1c0-0.4,0-0.8,0-1.1V305.9
	C612.7,305.6,612.7,305.4,612.6,305.2z"/>
<path class="st0" d="M63.9,929.9C28.6,929.9,0,958.5,0,993.8v37.9c0,35.3,28.6,63.9,63.9,63.9s63.9-28.6,63.9-63.9v-37.9
	C127.8,958.5,99.2,929.9,63.9,929.9 M105.6,1031.7c0,23-18.7,41.7-41.7,41.7s-41.7-18.7-41.7-41.7v-37.9c0-23,18.7-41.7,41.7-41.7
	s41.7,18.7,41.7,41.7V1031.7z"/>
<path class="st0" d="M230.3,952.5c22.5-3,43.3,12.7,46.7,35.1c0.5,3.5,3.5,6.2,7.1,6.2h7.9c4,0,7.2-3.2,7.2-7.2c0-0.3,0-0.6,0-0.8
	c-4.4-34.3-35.2-58.9-69.6-55.6c-33.1,3.1-57.8,32.2-57.8,65.5v34.2c0,33.3,24.6,62.4,57.8,65.5c34.4,3.3,65.2-21.3,69.6-55.6
	c0.5-4-2.4-7.6-6.3-8c-0.3,0-0.6,0-0.8,0h-7.9c-3.6,0-6.6,2.7-7.1,6.2c-3.4,22.5-24.2,38.1-46.8,35.2c-21-2.7-36.2-21.6-36.2-42.8
	v-35C194,974.1,209.2,955.2,230.3,952.5"/>
<path class="st0" d="M545.7,929.9c-35.3,0-63.9,28.6-63.9,63.9v37.9c0,35.3,28.6,63.9,63.9,63.9s63.9-28.6,63.9-63.9v-37.9
	C609.6,958.5,581,929.9,545.7,929.9 M587.4,1031.7c0,23-18.7,41.7-41.7,41.7c-23,0-41.7-18.7-41.7-41.7v-37.9
	c0-23,18.7-41.7,41.7-41.7c23,0,41.7,18.7,41.7,41.7V1031.7z"/>
<path class="st0" d="M347.2,954.3h27.3c4,0,7.2,3.2,7.2,7.2l0,0v124.7c0,4,3.2,7.2,7.2,7.2c0,0,0,0,0,0h7.8c4,0,7.2-3.2,7.2-7.2
	V961.5c0-4,3.2-7.2,7.2-7.2h27.3c4,0,7.2-3.2,7.2-7.2v-7.8c0-4-3.2-7.2-7.2-7.2h-91.2c-4,0-7.2,3.2-7.2,7.2l0,0v7.8
	C340,951,343.2,954.3,347.2,954.3L347.2,954.3"/>
</svg>
