<?xml version="1.0" encoding="utf-8"?>
<!-- Generator: Adobe Illustrator 22.0.1, SVG Export Plug-In . SVG Version: 6.00 Build 0)  -->
<svg version="1.1" id="レイヤー_1" xmlns="http://www.w3.org/2000/svg" xmlns:xlink="http://www.w3.org/1999/xlink" x="0px"
	 y="0px" viewBox="0 0 611.8 794.5" style="enable-background:new 0 0 611.8 794.5;" xml:space="preserve">
<style type="text/css">
	.st0{fill:none;stroke:#000000;stroke-width:18.6796;stroke-miterlimit:10;}
	.st1{fill:none;stroke:#000000;stroke-width:13.3089;stroke-miterlimit:10;}
	.st2{fill:none;stroke:#000000;stroke-width:13.3089;stroke-linecap:round;stroke-linejoin:round;stroke-miterlimit:10;}
	.st3{fill:none;stroke:#E8404D;stroke-width:22.1652;stroke-miterlimit:10;}
	.st4{fill:none;stroke:#000000;stroke-width:20.8313;stroke-linecap:round;stroke-linejoin:round;stroke-miterlimit:10;}
	.st5{fill:#E8404D;}
	.st6{fill:none;stroke:#E8404D;stroke-width:23.1299;stroke-miterlimit:10;}
	.st7{fill:none;stroke:#E8404D;stroke-width:23.1299;stroke-linecap:round;stroke-miterlimit:10;}
	.st8{fill:none;stroke:#000000;stroke-width:22.8411;stroke-miterlimit:10;}
	.st9{fill:none;stroke:#E8404D;stroke-width:22.9788;stroke-miterlimit:10;}
	.st10{fill:none;stroke:#000000;stroke-width:22.1211;stroke-linecap:round;stroke-miterlimit:10;}
	.st11{fill:none;stroke:#E8404D;stroke-width:25.3285;stroke-linecap:round;stroke-miterlimit:10;}
</style>
<path class="st5" d="M611.7,305.2C611.3,136.6,474.6,0,305.9,0C136.9,0,0,136.9,0,305.9c0,0.6,0,1.2,0,1.8L0,772
	c0,11.5,8.6,21.8,20.1,22.4c12.3,0.6,22.4-9.1,22.4-21.2V519.4c0-17.3,21.5-25.5,32.8-12.5c0.4,0.5,0.8,0.9,1.2,1.4
	c3.1,3.5,4.8,7.9,4.8,12.5l0,251.3c0,11.5,8.6,21.8,20.1,22.4c12.3,0.6,22.4-9.1,22.4-21.2V586.5c0-14.6,15.9-23.4,28.5-16.1
	c0.2,0.1,0.4,0.2,0.6,0.3c5.9,3.4,9.7,9.6,9.7,16.4l0,184.8c0,11.5,8.6,21.8,20.1,22.4c12.3,0.6,22.4-9.1,22.4-21.2V620.1
	c0-12.3,11.6-21.3,23.5-18.2c0.4,0.1,0.8,0.2,1.2,0.3c8.3,2.1,14.1,9.6,14.1,18.2l0,151.7c0,11.5,8.6,21.8,20.1,22.4
	c12.3,0.6,22.4-9.1,22.4-21.2V630.5c0-10.5,8.6-18.8,19.2-18.8c0.1,0,0.1,0,0.2,0c0.1,0,0.2,0,0.3,0c10.5,0,19.2,8.3,19.2,18.8
	l0,141.5c0,11.5,8.6,21.8,20.1,22.4c12.3,0.6,22.4-9.1,22.4-21.2V620.3c0-8.6,5.8-16,14.1-18.2c0.4-0.1,0.8-0.2,1.2-0.3
	c11.9-3.1,23.5,5.8,23.5,18.2l0,152c0,11.5,8.6,21.8,20.1,22.4c12.3,0.6,22.4-9.1,22.4-21.2v-186c0-6.8,3.8-13,9.7-16.4
	c0.2-0.1,0.4-0.2,0.6-0.3c12.7-7.4,28.5,1.4,28.5,16.1l0,185.5c0,11.5,8.6,21.8,20.1,22.4c12.3,0.6,22.4-9.1,22.4-21.2V520.6
	c0-4.6,1.8-9,4.8-12.5c0.4-0.5,0.8-0.9,1.2-1.4c11.4-13,32.8-4.8,32.8,12.5V772c0,11.5,8.6,21.8,20.1,22.4
	c12.3,0.6,22.4-9.1,22.4-21.2V305.9C611.8,305.6,611.7,305.4,611.7,305.2z"/>
</svg>
