<svg id="レイヤー_1" data-name="レイヤー 1" xmlns="http://www.w3.org/2000/svg" viewBox="0 0 898.67 75.8"><defs><style>.cls-1{fill:#e8404d;}</style></defs><title>アートボード 1</title><path class="cls-1" d="M51.7,25.82A25.85,25.85,0,1,0,0,25.88v39.4a1.87,1.87,0,0,0,1.7,1.9,1.8,1.8,0,0,0,1.89-1.71V43.92a1.59,1.59,0,0,1,1.59-1.59,1.62,1.62,0,0,1,1.19.54l.1.11A1.6,1.6,0,0,1,6.88,44V65.28a1.86,1.86,0,0,0,1.7,1.9,1.8,1.8,0,0,0,1.89-1.71V49.6A1.6,1.6,0,0,1,12.09,48a1.57,1.57,0,0,1,.79.22h0a1.6,1.6,0,0,1,.82,1.39V65.25a1.87,1.87,0,0,0,1.7,1.9,1.8,1.8,0,0,0,1.89-1.71v-13a1.59,1.59,0,0,1,1.59-1.59,1.4,1.4,0,0,1,.41,0h.1a1.58,1.58,0,0,1,1.19,1.53V65.25a1.87,1.87,0,0,0,1.7,1.9,1.8,1.8,0,0,0,1.9-1.7V53.32a1.6,1.6,0,0,1,1.61-1.59h0a1.6,1.6,0,0,1,1.62,1.58h0v12a1.87,1.87,0,0,0,1.7,1.9,1.8,1.8,0,0,0,1.89-1.71V52.46a1.58,1.58,0,0,1,1.19-1.53h.1A1.58,1.58,0,0,1,34.29,52a1.59,1.59,0,0,1,.06.43V65.31a1.87,1.87,0,0,0,1.7,1.9,1.8,1.8,0,0,0,1.89-1.71V49.71a1.62,1.62,0,0,1,.82-1.39h.05a1.59,1.59,0,0,1,2.41,1.36V65.36a1.87,1.87,0,0,0,1.7,1.9,1.8,1.8,0,0,0,1.9-1.7V44a1.59,1.59,0,0,1,.4-1.06.52.52,0,0,0,.1-.11,1.59,1.59,0,0,1,2.78,1.06V65.28a1.87,1.87,0,0,0,1.7,1.9,1.8,1.8,0,0,0,1.89-1.71V25.88A.13.13,0,0,0,51.7,25.82Z"/><path class="cls-1" d="M695.73,2.57A23.79,23.79,0,0,0,672,26.34v14.1a23.78,23.78,0,0,0,47.55,1c0-.33,0-.65,0-1V26.34A23.79,23.79,0,0,0,695.73,2.57Zm15.51,37.87a15.52,15.52,0,0,1-31,1.58,13.88,13.88,0,0,1,0-1.58V26.34a15.52,15.52,0,0,1,31,0Z"/><path class="cls-1" d="M757.59,11A15.54,15.54,0,0,1,775,24a2.67,2.67,0,0,0,2.63,2.31h2.93a2.7,2.7,0,0,0,2.7-2.68c0-.11,0-.21,0-.32A23.8,23.8,0,0,0,757.34,2.71c-12.32,1.16-21.48,12-21.48,24.36V39.71c0,12.38,9.16,23.21,21.48,24.37a23.82,23.82,0,0,0,25.88-20.67,2.69,2.69,0,0,0-2.36-3l-.32,0h-2.93A2.69,2.69,0,0,0,775,42.73,15.55,15.55,0,0,1,757.59,55.8c-7.82-1-13.47-8-13.47-15.93v-13C744.12,19,749.77,12,757.59,11Z"/><path class="cls-1" d="M874.89,2.57a23.81,23.81,0,0,0-23.78,23.77v14.1a23.78,23.78,0,1,0,47.55,1c0-.32,0-.65,0-1V26.34A23.81,23.81,0,0,0,874.89,2.57Zm15.5,37.87a15.52,15.52,0,0,1-31,1.58,13.88,13.88,0,0,1,0-1.58V26.34a15.52,15.52,0,1,1,31-1.58,13.88,13.88,0,0,1,0,1.58Z"/><path class="cls-1" d="M801.08,11.63h10.16a2.68,2.68,0,0,1,2.68,2.66h0V60.71a2.68,2.68,0,0,0,2.68,2.68h2.9a2.68,2.68,0,0,0,2.67-2.68V14.3a2.68,2.68,0,0,1,2.67-2.67H835A2.68,2.68,0,0,0,837.69,9V6.05A2.68,2.68,0,0,0,835,3.37H801.08a2.68,2.68,0,0,0-2.68,2.68V9A2.68,2.68,0,0,0,801.08,11.63Z"/><path class="cls-1" d="M219.8,27.14a7.12,7.12,0,0,1,9.74,2.54,7.21,7.21,0,0,1,.83,2.15A1.7,1.7,0,0,0,232,33.22H237a1.72,1.72,0,0,0,1.72-1.74,1.48,1.48,0,0,0,0-.21,15.28,15.28,0,0,0-30.12-1.12,15.83,15.83,0,0,0-.31,3.07c0,7.82,5.71,12.5,15.28,12.5,6.54,0,7,2.24,7,3.68a7,7,0,1,1-13.93,1.66A1.69,1.69,0,0,0,215,49.71h-4.88a1.72,1.72,0,0,0-1.72,1.74,1.48,1.48,0,0,0,0,.21,15.27,15.27,0,0,0,30.42-1.95c0-3.68-1.48-12.24-15.27-12.24-5.77,0-6.81-2-7-3.42A6.68,6.68,0,0,1,219.8,27.14Z"/><path class="cls-1" d="M315.27,33.31a15.3,15.3,0,0,0-18.69-14.89c-7.05,1.54-11.85,8.14-11.85,15.36V36a15.56,15.56,0,0,0,11.65,15.28,15.31,15.31,0,0,0,8.38-.34,1.69,1.69,0,0,1,2.17,1,1.8,1.8,0,0,1,.1.57v7.71a7,7,0,0,1-13.69,2.46c-.09-.29-.17-.58-.23-.87a1.68,1.68,0,0,0-1.65-1.37h-4.92a1.7,1.7,0,0,0-1.7,1.72,1.48,1.48,0,0,0,0,.21A15.31,15.31,0,0,0,302,75.68c.49-.06,1-.15,1.47-.26,7.06-1.55,11.86-8.16,11.86-15.38V33.31ZM307,36.47a7.06,7.06,0,0,1-9.31,6.67A7.15,7.15,0,0,1,293,36.25V33.54a7.14,7.14,0,0,1,4.74-6.89A7,7,0,0,1,307,33.31Z"/><path class="cls-1" d="M536.69,17.85a15.3,15.3,0,0,0-18.32,11.51c-.1.47-.19.93-.25,1.4a1.76,1.76,0,0,0,1.5,2l.24,0h4.82a1.73,1.73,0,0,0,1.69-1.42A7,7,0,1,1,540.29,33h0v2a1,1,0,0,1-1,1,1.28,1.28,0,0,1-.27-.05,15.27,15.27,0,1,0,8.42,19.88,15.08,15.08,0,0,0,1.05-4.28h.08V33.22C548.54,26,543.74,19.39,536.69,17.85Zm-2.05,39.08a7,7,0,1,1,5.52-8.22,6.82,6.82,0,0,1,0,2.7A7,7,0,0,1,534.64,56.93Z"/><path class="cls-1" d="M117.16,3.38h-12.5A2.65,2.65,0,0,0,102,6V62.76a2.65,2.65,0,0,0,2.65,2.65h12.5A23.79,23.79,0,0,0,141,41.64V27.17A23.79,23.79,0,0,0,117.18,3.38Zm15.55,38.24a15.56,15.56,0,0,1-15.55,15.54h-4.25a2.64,2.64,0,0,1-2.65-2.63V14.27a2.65,2.65,0,0,1,2.65-2.65h4.25a15.55,15.55,0,0,1,15.55,15.55Z"/><path class="cls-1" d="M414.36,11.71h10.25a2.65,2.65,0,0,1,2.64,2.63V61.6a2.65,2.65,0,0,0,2.63,2.64h3a2.65,2.65,0,0,0,2.63-2.64V14.36a2.65,2.65,0,0,1,2.64-2.63H448.4A2.64,2.64,0,0,0,451,9.09h0v-3a2.64,2.64,0,0,0-2.64-2.64h-34a2.64,2.64,0,0,0-2.64,2.64h0v3A2.64,2.64,0,0,0,414.36,11.71Z"/><path class="cls-1" d="M347.31,18.41c-7.06,1.54-11.86,8.15-11.86,15.37V62.51a1.63,1.63,0,0,0,1.61,1.63h5a1.63,1.63,0,0,0,1.63-1.63h0v-29a7.14,7.14,0,0,1,4.74-6.89,7.06,7.06,0,0,1,9.32,6.67v29.2a1.63,1.63,0,0,0,1.63,1.63h5A1.64,1.64,0,0,0,366,62.51V33.31A15.29,15.29,0,0,0,350.64,18,14.91,14.91,0,0,0,347.31,18.41Z"/><path class="cls-1" d="M609.57,18.2a15.23,15.23,0,0,0-13.35,4.72,15.26,15.26,0,0,0-14.75-4.46c-6.5,1.5-11.68,8.71-11.68,15.38V62.42a1.72,1.72,0,0,0,1.72,1.72h4.81A1.72,1.72,0,0,0,578,62.42V33.55a7.14,7.14,0,0,1,4.74-6.89,7.06,7.06,0,0,1,9.32,6.66v29.1a1.72,1.72,0,0,0,1.72,1.72h4.81a1.72,1.72,0,0,0,1.72-1.72V33.55a7.13,7.13,0,0,1,4.75-6.89,7,7,0,0,1,9.31,6.66v29.1a1.72,1.72,0,0,0,1.72,1.72H621a1.72,1.72,0,0,0,1.72-1.72V33.9C622.65,26.2,617.2,19.28,609.57,18.2Z"/><rect class="cls-1" x="258.21" y="20.54" width="8.24" height="43.59" rx="2.23" ry="2.23"/><path class="cls-1" d="M177.87,18.32a15.29,15.29,0,0,0-18.7,14.89h0v9.64h0v6.52c0,7.22,4.8,13.83,11.85,15.37a15.3,15.3,0,0,0,18.32-11.52c.11-.5.2-1,.26-1.51a1.63,1.63,0,0,0-1.41-1.83H183a1.61,1.61,0,0,0-1.57,1.31,7.09,7.09,0,0,1-9.19,5.36,7.15,7.15,0,0,1-4.74-6.89V44.5a1.61,1.61,0,0,1,1.6-1.62h17.67a3,3,0,0,0,3-3V33.71C189.71,26.47,185,19.86,177.87,18.32Zm2.35,16.28H168.79a1.22,1.22,0,0,1-1.37-1.05.92.92,0,0,1,0-.33h0a7,7,0,0,1,7.06-7,6.94,6.94,0,0,1,2.25.37,7.15,7.15,0,0,1,4.74,6.89h0C181.47,34.2,181,34.6,180.22,34.6Z"/><path class="cls-1" d="M485.11,18.32a15.3,15.3,0,0,0-18.69,14.89h0v9.64h0v6.52c0,7.22,4.79,13.83,11.85,15.37A15.31,15.31,0,0,0,496.59,53.2a15,15,0,0,0,.26-1.49,1.63,1.63,0,0,0-1.41-1.83h-5.28a1.61,1.61,0,0,0-1.57,1.31,7.06,7.06,0,0,1-8.24,5.61,7.66,7.66,0,0,1-.94-.25,7.15,7.15,0,0,1-4.75-6.89V44.5a1.63,1.63,0,0,1,1.62-1.62H494a3,3,0,0,0,3-3V33.71C497,26.47,492.16,19.86,485.11,18.32Zm2.57,16.28H476a1.25,1.25,0,0,1-1.38-1.1,1.31,1.31,0,0,1,0-.28h0A7.06,7.06,0,0,1,484,26.55a7.14,7.14,0,0,1,4.74,6.89h0a1,1,0,0,1-.83,1.15Z"/><rect class="cls-1" x="258.2" y="3.39" width="8.25" height="10.7" rx="2.25" ry="2.25"/></svg>