<svg id="レイヤー_1" data-name="レイヤー 1" xmlns="http://www.w3.org/2000/svg" viewBox="0 0 679.79 671.46"><defs><style>.cls-1{fill:#e8404d;}.cls-2{fill:#fff;}.cls-3{fill:none;}</style></defs><title>アートボード 1</title><path class="cls-1" d="M251.87,209.58a9.7,9.7,0,0,1-9.73-9.67,9.07,9.07,0,0,1,.06-1,94.11,94.11,0,0,1,187,0,9.69,9.69,0,0,1-8.62,10.66,7.38,7.38,0,0,1-1.05.05Z"/><rect class="cls-2" x="330.55" y="115.48" width="10.29" height="94.1"/><line class="cls-3" x1="299.69" y1="122.64" x2="335.7" y2="209.58"/><rect class="cls-2" x="312.55" y="119.06" width="10.28" height="94.1" transform="translate(-39.39 134.22) rotate(-22.5)"/><line class="cls-3" x1="269.16" y1="143.04" x2="335.7" y2="209.58"/><rect class="cls-2" x="297.28" y="129.26" width="10.29" height="94.1" transform="translate(-36.09 265.49) rotate(-45)"/><line class="cls-3" x1="248.76" y1="173.57" x2="335.7" y2="209.58"/><rect class="cls-2" x="287.09" y="144.52" width="10.28" height="94.1" transform="translate(3.41 388.24) rotate(-67.5)"/><line class="cls-3" x1="422.63" y1="173.57" x2="335.7" y2="209.58"/><rect class="cls-2" x="332.12" y="186.4" width="94.1" height="10.28" transform="translate(-44.43 159.68) rotate(-22.5)"/><line class="cls-3" x1="402.23" y1="143.04" x2="335.7" y2="209.58"/><rect class="cls-2" x="321.9" y="171.12" width="94.1" height="10.29" transform="translate(-16.58 312.51) rotate(-45)"/><line class="cls-3" x1="371.71" y1="122.64" x2="335.7" y2="209.58"/><rect class="cls-2" x="306.64" y="160.96" width="94.1" height="10.28" transform="translate(64.88 429.3) rotate(-67.5)"/><rect class="cls-2" x="254.93" y="212.52" width="161.54" height="67.55" rx="33.77" ry="33.77"/><path class="cls-1" d="M382.69,285.22h-94a38.92,38.92,0,1,1,0-77.84h94a38.92,38.92,0,0,1,0,77.84Zm-94-67.55a28.63,28.63,0,1,0,0,57.26h94a28.63,28.63,0,0,0,0-57.26Z"/><path class="cls-1" d="M415.31,371.68H256.08a48.38,48.38,0,0,1,0-96.75H415.31a48.38,48.38,0,0,1,1.39,96.75ZM256.08,285.22a38.09,38.09,0,1,0-1.24,76.17H415.31a38.09,38.09,0,1,0,1.23-76.17H256.08Z"/><path class="cls-1" d="M368.56,196.82a32.87,32.87,0,0,0-65.73.07V247a2.36,2.36,0,0,0,2.16,2.41,2.28,2.28,0,0,0,2.4-2.16s0-.08,0-.12V219.83a2,2,0,0,1,1.94-2.05,2.06,2.06,0,0,1,1.59.71l.12.14a2.13,2.13,0,0,1,.52,1.35v27a2.36,2.36,0,0,0,2.16,2.41,2.28,2.28,0,0,0,2.4-2.16s0-.08,0-.12V227.05a2,2,0,0,1,2-2,2,2,0,0,1,1.1.3h.07a2.11,2.11,0,0,1,1,1.76v19.86a2.34,2.34,0,0,0,2.16,2.41,2.28,2.28,0,0,0,2.4-2.16s0-.08,0-.12V230.65a2,2,0,0,1,2.52-2h.13a2,2,0,0,1,1.52,2V247a2.34,2.34,0,0,0,2.16,2.41,2.26,2.26,0,0,0,2.39-2.15s0-.08,0-.13V231.77a2,2,0,0,1,2-2h.13a2,2,0,0,1,2.05,1.95V247a2.36,2.36,0,0,0,2.17,2.41,2.26,2.26,0,0,0,2.39-2.15s0-.08,0-.13V230.68a2,2,0,0,1,1.51-2H344a2,2,0,0,1,2.45,1.4,2.09,2.09,0,0,1,.08.55V247a2.36,2.36,0,0,0,2.16,2.41,2.28,2.28,0,0,0,2.4-2.16s0-.08,0-.12v-20a2,2,0,0,1,1-1.77h.06a2,2,0,0,1,2.76.62,2.15,2.15,0,0,1,.31,1.1V247a2.36,2.36,0,0,0,2.16,2.41,2.28,2.28,0,0,0,2.4-2.16s0-.08,0-.12V220a2,2,0,0,1,.51-1.34l.13-.14a2,2,0,0,1,2.81-.24,2,2,0,0,1,.72,1.58V247a2.36,2.36,0,0,0,2.16,2.41,2.28,2.28,0,0,0,2.4-2.16s0-.08,0-.12V196.89S368.56,196.84,368.56,196.82Z"/><rect class="cls-2" x="194.76" y="345.07" width="281.88" height="54.07" rx="9.72" ry="9.72"/><path class="cls-1" d="M472.06,404.29H199.33a9.71,9.71,0,0,1-9.69-9.72V349.65a9.72,9.72,0,0,1,9.71-9.72H472.06a9.73,9.73,0,0,1,9.72,9.72v44.92A9.72,9.72,0,0,1,472.06,404.29ZM209.64,394H461.77a9.72,9.72,0,0,0,9.72-9.72V359.94a9.73,9.73,0,0,0-9.72-9.72H209.64a9.72,9.72,0,0,0-9.72,9.72h0v24.34a9.72,9.72,0,0,0,9.72,9.72Z"/><rect class="cls-2" x="240.66" y="399.14" width="190.08" height="136.05" rx="9.72" ry="9.72"/><path class="cls-1" d="M426.16,540.34H245.23a9.71,9.71,0,0,1-9.71-9.72V403.77a9.72,9.72,0,0,1,9.71-9.72H426.16a9.73,9.73,0,0,1,9.72,9.72v126.9A9.73,9.73,0,0,1,426.16,540.34ZM255.52,530.05H415.87a9.72,9.72,0,0,0,9.72-9.72V414a9.73,9.73,0,0,0-9.72-9.71H255.52A9.72,9.72,0,0,0,245.8,414V520.33a9.72,9.72,0,0,0,9.72,9.72Z"/><path class="cls-1" d="M335.7,505a37.83,37.83,0,1,1,37.83-37.83A37.82,37.82,0,0,1,335.7,505Zm0-65.38a27.55,27.55,0,1,0,27.54,27.56h0A27.59,27.59,0,0,0,335.7,439.62Z"/><path class="cls-1" d="M69,283.77c-.35,2.61-1,6.61-1.91,11.82-1.56,6.25-4.17,10.77-7.64,13.55-3.47,3-6.6,4.16-9.38,3.82a4.23,4.23,0,0,1-3-2.44c-1.74-3.12-2.79-4.86-3-5.21l-3.47-3.47c-1.74-1.91-2.61-3-2.43-3.47.34-.87,1.56-1.05,3.47-.87,1.74.17,3.3.17,4.86.35,1.74.17,3,.17,3.83-.35,1.56-.87,2.6-2.61,3.47-5.39A52.41,52.41,0,0,0,56,278.77q-5.49.25-12,.52a86.88,86.88,0,0,1-2.09,9.2,43,43,0,0,1-11.81,18.59A64.47,64.47,0,0,1,4.24,322c-2.43.87-3.82.87-4.17.17s.7-1.73,3-3.3c8.85-5.73,15.28-11.81,19.1-18.41a52.11,52.11,0,0,0,6.6-20.15l-2.6.17c-3.48.18-8.69.87-15.81,1.74-.69-1.56-1.74-3.82-3-7q14.33.27,20.32,0l1.57-.17c.17-1.56.17-4.17.34-7.64a124.51,124.51,0,0,0-.15-13.66l16.15,5.74c3.3,1.39,4.87,2.6,4.87,3.82,0,1.56-1.57,3.13-4.87,4.69-.34,2.6-.69,4.69-.87,6.43,4-.18,7.13-.35,9.73-.53l6.25-7.46c3.48,2.6,6.26,5,8.52,6.94,3.12,3,4.69,4.87,4.69,5.91S72.34,281.89,69,283.77ZM38.64,404.18a150,150,0,0,1-30.57,9.73c-3.3.69-4.86.69-5,0-.35-.87,1-2.09,4-3.65a175.83,175.83,0,0,0,38.39-24.84A111.59,111.59,0,0,0,54,377.08c4.69,3.48,8,5.91,9.73,7.47,3,2.44,4.34,4.34,4.34,5.73,0,1.92-2.78,2.78-8.34,2.78C55.64,395.32,48.72,399.14,38.64,404.18Zm75-79.9c0,2.26.18,6.6.35,13.2.17,5.91.17,10.25.17,12.85,0,1.74.18,4.35.35,7.82s.18,6.08.18,7.64a14.56,14.56,0,0,1-1,6.26c-1,2.25-3.47,4.17-7.12,5.9a14.49,14.49,0,0,1-4.69,1.56c-2.26.35-3.65-.69-4-2.95,0-.52,0-2.08-.18-4.69v-1.56l-48.76,2.46a12.5,12.5,0,0,1-2.6,3.82,23.94,23.94,0,0,1-6.43,3.82c-2.26,1-3.82,1.39-4.69,1s-1-2.26-.87-5.56c.35-6.43.52-12.68.7-18.42.17-9.72.34-16.67.34-20.67,0-6.77-.17-12-.34-15.63-.18-2.6-.35-6.77-.87-12.16,3.3,1.22,8.16,3,14.24,5.56a35.24,35.24,0,0,1,4.69,2.61l44.29-2.26q1.83-2.07,6.78-8.34c2.26,1.56,5.91,3.82,10.77,7,3,1.91,4.34,3.65,4.34,5C119.24,320.11,117.33,322,113.64,324.28Zm-63.75-1.39c0,3.47,0,7.12.18,10.94,11.81-.69,20.49-1.21,26.23-1.74A64.82,64.82,0,0,0,89.5,330,24,24,0,0,0,91.41,333c.87,1.39,1.39,2.43,1.21,3.13,0,.35-1.38.69-4.34.87-.17,0-5,.34-14.59.87-5.56.34-13.37.87-23.62,1.39v10.55c12-.69,20.67-1.21,26.23-1.74A62.81,62.81,0,0,0,89.5,346a37,37,0,0,0,2.26,3.3,5.11,5.11,0,0,1,1,2.78c0,.52-1.56.87-4.52,1,0,0-4.86.35-14.41.87L50.2,355.12v9.2a18.15,18.15,0,0,1-.17,3.13l47.59-2.6c.18-2.79.18-7,.18-12.34,0-1.91.17-12.51.34-32.13-31.35,1.29-47.5,2-48.21,2.51Zm83.25-41.52c-.35.18-1.56.87-3.82,2.09-.18,1-.53,3.65-1.22,8q7.56,5.48,7.29,7.29c-.17,1.57-2.43,2.44-6.42,2.44-.87,0-2.61,0-5.21-.18h-5.39c-5.21.18-13.54.52-24.83,1v2.78c-.18,1.39-1.4,3-3.65,4.87a19.09,19.09,0,0,1-6.43,3.64,4.3,4.3,0,0,1-3.3.18c-.52-.18-.87-1.22-1-2.78v-5.53c0-8.16-.18-15.11-.7-20.5-.17-3.64-.87-9.55-1.74-17.89a148.27,148.27,0,0,1,17.68,7l18.41-.87,6.78-8.51c2.26,1.39,5.73,3.82,10.42,7.12,3.65,3,5.38,5,5.38,5.91A5.07,5.07,0,0,1,133.14,281.37ZM128.79,408a9.49,9.49,0,0,1-7.12,2.95c-2.78,0-5.55-1.56-8.51-4.51-2.26-2.43-4.34-4.87-6.6-7.3-2.26-2.08-5.9-5-10.59-9a66.68,66.68,0,0,0-10.43-6.6c-3-1.39-4.17-2.43-4-3.13s2.26-.87,6.43-.52a104.61,104.61,0,0,1,24,4.17c6.08,1.56,10.59,3.65,13.89,6.25,3.82,3,5.74,6.61,5.74,10.6A9.66,9.66,0,0,1,128.79,408ZM92.49,279.12c.17,4,.52,10.07,1.05,17.89l17.36-.7c.53-4,1-10.07,1.74-18.24-4.86.18-11.64.52-20.15,1.05Z"/><path class="cls-1" d="M673,390.63c-7.12,0-14.77,0-23.28.17C635,391,606,392.37,562.38,395c-8.16.52-17.37,1.22-28,2.44a34.25,34.25,0,0,1-3-7.3c9.9.17,20.67-.17,32.31-.69V361.1c0-18.59-.17-36.13-.69-52.45,3.64,1.21,9.2,3.3,16.32,6.25,3.82,1.74,5.74,3.47,5.74,5.38,0,1.57-1.92,3.13-5.56,5v63.23l19.62-1V303.09c-.17-7.13-.34-14.07-.52-20.67l-29,1.35c-.87,0-7.82.7-20.85,2.26l-3.65-7.81c8.17.17,16.16.17,24.32,0q22.41-1.31,67.22-3.13l9.21-14.42c3.82,2.61,8.86,6.43,15.11,11.12,3.3,2.95,4.69,5,4.35,6.43-.53,1.21-2.61,1.91-6.26,1.91-12,0-19.45,0-22.23.17l-29.36,1.56a59.27,59.27,0,0,1,7.3,2.61c2.43,1,4,1.74,4.86,2.08,1.56,1.05,2.43,2.09,2.61,3.3a3.73,3.73,0,0,1-2.09,3c-1.39,1-2.78,1.91-4,2.78v30.92q11.46-.8,16.67-1c.52-.52,3.48-5.55,8.86-14.76,3.65,2.6,8.34,6.25,14.24,10.77,3.13,2.43,4.7,4.34,4.52,5.73-.17,1.91-2.26,2.78-6.6,2.78-5,0-11.46.35-19.28.87-4,.17-10.25.52-18.41,1v54.72c11.29-.52,21.71-1.05,31.09-1.22,1.56-2.6,5-8.51,10.42-17.37,4,3,9.9,7.64,17.37,13.9q5.22,4.95,4.69,6.77C679.28,389.94,677,390.63,673,390.63Z"/><path class="cls-1" d="M136,129.07c-.67.89-1.69,2-3,3.39-1.52,1.7-2.54,2.8-3.08,3.45-.84,1-1.81,2.14-2.86,3.47-1.42,1.79-2.13,2.72-2.13,2.72a.82.82,0,0,1-.92.08,1,1,0,0,1-.69-.59c-.11-.18.15-.89.85-2a19.14,19.14,0,0,0,.9-1.88,1.31,1.31,0,0,0-.73-1.56c-.09,0-1.91-.76-5.5-2.27l-3.55-1.46c-.81-.35-1.61,0-2.46,1l-1,1.15-3.17,3.64a32,32,0,0,0-2,2.52,3.34,3.34,0,0,0-.32,1.19c.06.13.28.57.62,1.29,1.09,2,2.38,4.24,3.77,6.52a5.73,5.73,0,0,0,1.25,1.56c.69.59,1.76.13,3.26-1.33.34-.31.6-.61.81-.76.44-.32.76-.39,1-.27.92.52,1.11,1.11.65,1.75,0,0-.8.85-2.33,2.55-.93,1-1.56,1.75-2,2.3a10.32,10.32,0,0,0-1.39,1.64c-.63.83-1.17,1.57-1.67,2.17-.13.15-.42.5-.84,1.09a1.33,1.33,0,0,1-.55.55c-.18.11-.42,0-.81-.26a1.19,1.19,0,0,1-.62-.78c-.06-.22.09-.6.46-1.14.08-.2.25-.39.41-.69a5.12,5.12,0,0,0,.8-1.45c.3-.86.07-2-.71-3.59-.28-.49-1.42-2.56-3.39-6.19l-9.45-17.53c-1.55-2.51-3.27-5.33-5-8.37a11.17,11.17,0,0,1-.35-2.51c-.08-1.52,0-2.45.28-2.66a2.4,2.4,0,0,1,2,.16l6.35,2.47c1,.43,10,3.75,26.77,10a31.48,31.48,0,0,0,3.9,1.34,3.85,3.85,0,0,0,3.62-1c1-1.1,1.72-1.44,2.11-1.2C136.09,128.19,136.36,128.67,136,129.07Zm-26.46,1-10-4.06c-.52-.19-1.2-.5-2.06-.8-.52-.18-.76-.3-.75-.21a5.4,5.4,0,0,0,.56,1.25c.23.44.6,1.1,1.09,1.94.21.35.54.88,1,1.67l4.24,7.6c0,.09.16.22.26.4.27.39.52.6.65.54a2.85,2.85,0,0,0,.87-.71l4.92-5.82c.38-.45.54-.74.52-.93s-.16-.31-.55-.55A4.13,4.13,0,0,1,109.57,130.07Z"/><path class="cls-1" d="M180.29,91.41c-.77.7-1.93,1.55-3.34,2.6-1.66,1.16-2.81,2-3.42,2.5-1,.77-2.1,1.76-3.38,2.88l-2.51,2.13a3.53,3.53,0,0,1-1,.77c-.29.16-.65,0-1-.38a.88.88,0,0,1-.14-1.22c.32-.33.64-.77,1.1-1.23.74-.75.94-1.33.57-1.79a2.76,2.76,0,0,0-.87-.56c-.17-.11-1.78-.65-4.77-1.67l-9.64-3.37c-.62-.26-1.6-.64-2.89-1.11a4.83,4.83,0,0,0-1.62-.45,6.28,6.28,0,0,0-.27.8,18,18,0,0,0-.4,1.91c-.12.68-.17,1.55-.28,2.56a2.2,2.2,0,0,0,.58,1l5.23,6.5a12.25,12.25,0,0,0,3.13,3.17,2.54,2.54,0,0,0,1.76,0,13.89,13.89,0,0,0,2.06-1.07,1.75,1.75,0,0,1,1.27-.18,1.16,1.16,0,0,1,.7.86,2.15,2.15,0,0,1-1,1.56c-.46.36-1.41,1-2.82,2.1-1.21.89-2.13,1.62-2.79,2.15-1,.82-2.19,1.85-3.52,3-1.84,1.56-2.75,2.29-2.71,2.34q-.75.48-1.47-.57a1.19,1.19,0,0,1-.19-.76c0-.19.38-.57,1.1-1.23,1.5-1.36,1.82-2.63,1.11-3.82a37.47,37.47,0,0,0-2.26-3L130.29,87.51c-1.55-1.93-2.69-2.93-3.47-3a5.09,5.09,0,0,0-2.52.93c-.34.2-.79.47-1.33.74a.82.82,0,0,1-.85-.24,1.26,1.26,0,0,1-.5-.93.89.89,0,0,1,.3-.66c.2-.17,1.21-.89,3-2.23.55-.35,1.36-1,2.42-1.86.77-.61,1.63-1.31,2.5-2.09l4.85-4.06a.77.77,0,0,1,.58-.22,1.17,1.17,0,0,1,.56.39.82.82,0,0,1,0,1.15h0a9,9,0,0,0-.92,1.66,3.57,3.57,0,0,0-.43,1.34,2.08,2.08,0,0,0,.09,1.35c.11,1.08,1.29,3.06,3.61,6L142.34,91c.13.15.33.4.53.66s.41.51.49.61c.29.35.5.52.65.49a4.2,4.2,0,0,0,.36-1.22c.26-1.13.5-2.91.85-5.28.34-4.78.48-9.07.47-12.83,0-2-.07-3.11-.28-3.37-.41-.5-1-.47-1.72,0a6.87,6.87,0,0,1-1.05.74.91.91,0,0,1-1.26-.29v0c-.49-.61-.48-1.12.08-1.57s1.73-1.38,3-2.35,2.26-1.66,2.92-2.19,1.49-1.27,2.66-2.3,2.1-1.76,2.66-2.21a.8.8,0,0,1,.8-.15,1.38,1.38,0,0,1,.73.5c.36.55.1,1.26-.93,2.17a11.73,11.73,0,0,0-2.65,3.22,17.48,17.48,0,0,0-1.59,6.13,44.8,44.8,0,0,0-.61,6.83l-.19,3.5a5,5,0,0,0,.11,1.92,9.23,9.23,0,0,0,3.16,1.22c1.51.63,4.51,1.56,9,2.83a93.76,93.76,0,0,0,9.66,2.35c3.69,1,6.29,1,7.84-.12.95-.68,1.59-.94,1.93-.71a2.18,2.18,0,0,1,.57.71A1.2,1.2,0,0,1,180.29,91.41Z"/><path class="cls-1" d="M220.38,59.77q.66,2.29,2,6.68c.07.29.13.58.17.87a.8.8,0,0,1-.33.76A16.42,16.42,0,0,1,220,69.19c-1.58.76-2.42,1.13-2.48,1.16-2.16,1.08-4.72,2.36-7.51,3.91l-9.2,4.89c-.6.39-1.41.82-2.45,1.37-.48.33-1.35.79-2.47,1.46s-1.49.94-1.2.78a1,1,0,0,1-.76.11,1.71,1.71,0,0,1-.83-.74c-.27-.52-.31-.86-.09-1.13a8.21,8.21,0,0,1,1.63-1.23c1.61-1,2.34-2,2.17-3a20.35,20.35,0,0,0-1.76-4L183.24,50.5l-.67-1.26c-1-1.9-2-2.93-2.9-3a5,5,0,0,0-2.46.64c-.23.12-.61.25-1.16.46a.68.68,0,0,1-.7-.21c-.75-.86-.79-1.5-.13-1.92a12.45,12.45,0,0,1,1.23-.73c1.24-.58,2.59-1.23,4.18-2,1.18-.55,2.56-1.28,4.17-2.14L194,35.46q3.15-1.77,5.25-3a7.28,7.28,0,0,1,1.56-.83c.43,0,.91.48,1.52,1.48a7.85,7.85,0,0,1,.61,1c.33.49,1.3,2.18,2.92,4.94a1.22,1.22,0,0,1,.08,1.13,1,1,0,0,1-1,.67c-.38,0-.86-.36-1.57-1a10.82,10.82,0,0,0-3.29-2.31,6.62,6.62,0,0,0-2.69-.2,19.66,19.66,0,0,0-5.92,2.33c-1.52.88-2.46,1.46-2.9,1.76-.62.48-1,.9-1,1.22a2.8,2.8,0,0,0,.47,1.59l5,9.49c.52,1,1,1.55,1.29,1.6a3.7,3.7,0,0,0,1.94-.66l4.2-2.23c.94-.57,1.52-.88,1.72-1.06a2.37,2.37,0,0,0,1.24-1.54,8.28,8.28,0,0,0-.51-3.19,3.93,3.93,0,0,1-.18-1.6,1.89,1.89,0,0,1,.88-.55c.44-.16.73-.16.88,0a6.49,6.49,0,0,1,.52,1c.34.65.71,1.61,1.23,2.74.4.89.8,1.64,1.07,2.16s.55,1,1,1.81l1.24,2.07c.61,1,.91,1.57,1,1.69A.93.93,0,0,1,210.1,57a1.85,1.85,0,0,1-.74.4.76.76,0,0,1-.62-.34c-1-1.17-1.53-1.77-1.56-1.82a3.38,3.38,0,0,0-2.1-1c-1-.07-2.84.62-5.48,2-1,.55-2,1.13-2.88,1.68-.72.45-.81,1.24-.29,2.22l4.42,8.34c1.32,2.48,2.54,3.81,3.8,4.1S208,72.3,211,70.74c2.76-1.46,4.53-2.69,5.33-3.71a8.41,8.41,0,0,0,1.55-5.83,9.34,9.34,0,0,0-.09-1.43,3.83,3.83,0,0,1,.17-1.34,1.24,1.24,0,0,1,.91-.64.77.77,0,0,1,.91.33A5,5,0,0,1,220.38,59.77Z"/><path class="cls-1" d="M289,46.07l-4.51,1-3.07.86c-1.38.38-3,.82-4.75,1.39-2.37.72-3.55,1.12-3.48,1.1a1.13,1.13,0,0,1-1-.34,1,1,0,0,1-.27-1c0-.35.42-.66,1.14-1a21,21,0,0,0,2.09-1,2.32,2.32,0,0,0,1-2,16.3,16.3,0,0,0-.27-1.68c-.14-.5-.33-1.19-.58-2.07l-6.47-21.12c-.27-.94-.58-2.07-1-3.52l-.19.06c-.59,3.47-2,15.16-4.33,35A1.42,1.42,0,0,1,262.19,53a1.21,1.21,0,0,1-1.51-.53q-3-4.14-22-27.7l-.19.06c.38,1.38,1.22,4.86,2.48,10.39,1.67,7.45,2.89,12.32,3.7,14.53a15,15,0,0,0,1.4,3.33,3.13,3.13,0,0,0,1.7,1.22,7.69,7.69,0,0,0,3.16-.27,1.12,1.12,0,0,1,1.11.57c.4.7.39,1.17,0,1.42a26.13,26.13,0,0,1-3.45,1c-1.61.31-2.82.58-3.76.84-1.31.37-2.38.66-3.12.94-.36.16-1,.35-2,.68a2.14,2.14,0,0,1-1.29.22c-.47-.21-.65-.63-.59-1.39,0-.35.36-.64.91-.86a16.5,16.5,0,0,0,1.9-.67,3,3,0,0,0,1.1-.91c.25-.54.09-2.33-.48-5.35-.84-3.75-1.87-8.2-3-13.35-1-4.86-2.07-9.16-3.11-12.87a11.61,11.61,0,0,0-1.31-3.49c-.31-.18-1.31-.1-3,.29a8.76,8.76,0,0,1-1.68.26,1.12,1.12,0,0,1-.82-1c-.13-.71,0-1.09.6-1.25,1.21-.26,3.11-.73,5.64-1.36-.25.07,1-.34,3.79-1.19a4,4,0,0,1,1.67-.33,3.82,3.82,0,0,1,1.12,1.11c2.61,3.33,5.12,6.49,7.65,9.5,1,1.21,2.93,3.51,5.71,6.94,3.07,3.74,5.35,6.35,6.78,7.85.84-5.24,1.9-13.11,3.16-23.67.12-.78.3-3.06.57-6.72a8.53,8.53,0,0,1,.21-1.88,1.39,1.39,0,0,1,.87-.51l5.38-1.36,4.26-1.19a1.2,1.2,0,0,1,.91.09,1.4,1.4,0,0,1,.51.87,1.43,1.43,0,0,1-.05,1,2.08,2.08,0,0,1-.79.56,14.94,14.94,0,0,0-2.09.78c-.57.36-.71,1.08-.51,2,0-.06.12.44.42,1.51q1.65,5.64,8,25.78c.42,1.3.69,2.24.94,2.91a13,13,0,0,0,1.26,2.36c.56.31,1.7.27,3.27-.17a1.67,1.67,0,0,1,1.52.12,1.47,1.47,0,0,1,.38,1.11A.74.74,0,0,1,289,46.07Z"/><path class="cls-1" d="M346.16,42.64c-1.11.11-2.61.1-4.5.11H337c-1.3,0-2.8.11-4.49.24-2.28.15-3.45.26-3.45.26a.81.81,0,0,1-.67-.63,1.11,1.11,0,0,1,0-.91c.06-.2.77-.48,2.06-.73a14.7,14.7,0,0,0,2-.59,1.33,1.33,0,0,0,.66-1.59c-.07-.07-.73-1.93-2-5.6-.3-.84-.73-2-1.31-3.6-.29-.84-1.09-1.2-2.39-1.15l-1.5.06-4.82.12a31.85,31.85,0,0,0-3.25.19,3.32,3.32,0,0,0-1.09.56c-.06.13-.24.59-.54,1.32-.76,2.18-1.52,4.62-2.26,7.2a6.25,6.25,0,0,0-.32,2c0,.91,1.1,1.4,3.19,1.51a3.9,3.9,0,0,1,1.11.09c.52.11.79.3.86.55.24,1-.07,1.57-.84,1.66h-6.52a11.87,11.87,0,0,0-2.15.08c-1,.1-2,.2-2.73.23a7.72,7.72,0,0,0-1.36.12,1.33,1.33,0,0,1-.79,0c-.2-.06-.27-.32-.35-.77a1.22,1.22,0,0,1,.15-1c.13-.2.52-.34,1.16-.43.2-.08.46-.08.78-.16a5.34,5.34,0,0,0,1.61-.39c.84-.36,1.52-1.3,2.17-3,.18-.53.94-2.77,2.29-6.67l6.52-18.83c.81-2.83,1.73-6,2.78-9.36a11.12,11.12,0,0,1,1.62-1.95C324.24.49,325-.06,325.33,0s.87.61,1.23,1.58L329,7.94c.36,1,4,9.89,10.65,26.52a34.23,34.23,0,0,0,1.64,3.78,3.8,3.8,0,0,0,3.21,2c1.5,0,2.23.3,2.31.76C346.86,42.09,346.64,42.62,346.16,42.64ZM327.58,23.77,323.8,13.61c-.21-.51-.43-1.22-.79-2-.22-.51-.29-.77-.35-.7a5.08,5.08,0,0,0-.54,1.25c-.18.47-.41,1.19-.71,2.12-.11.39-.28,1-.58,1.84l-2.75,8.26c-.06.06-.05.26-.11.46-.11.46-.1.78,0,.84a1.79,1.79,0,0,0,1.12.16l7.61-.29c.59,0,.91-.1,1-.24s.11-.33,0-.78A4.81,4.81,0,0,1,327.58,23.77Z"/><path class="cls-1" d="M388.17,44.33a13.68,13.68,0,0,1-7.52,3,26.52,26.52,0,0,1-6.6-.36c-4.3-.73-7.58-2.1-9.9-4.17a2.42,2.42,0,0,1-.83-2.3c.19-.83.53-2.16.95-4.07l.66-2.54c.22-1,.44-1.58.73-1.73a.91.91,0,0,1,1.22.19,2.86,2.86,0,0,1,.21,1.22c0,.72.07,1.26.09,1.59.58,5.63,3.25,8.81,7.94,9.6a9.78,9.78,0,0,0,6.59-.83,6.32,6.32,0,0,0,3-4.61,8.29,8.29,0,0,0-1-5.82,16.8,16.8,0,0,0-3.13-3.65c-1.22-1-2.49-2.17-3.72-3.21A45.33,45.33,0,0,1,371.21,21a10.81,10.81,0,0,1,2.68-15.07,10.57,10.57,0,0,1,1.21-.74,16.56,16.56,0,0,1,10-1,23,23,0,0,1,7.72,2.57A4.83,4.83,0,0,1,394.4,8a7.27,7.27,0,0,1,0,1.32c0,.53-.15,2.68-.53,6.44a1.23,1.23,0,0,1-.4.87,1.06,1.06,0,0,1-.9.25c-.51-.08-.81-.32-.86-.79a11,11,0,0,1-.37-1.9c-.94-4.56-3.19-7.09-6.79-7.71a8.41,8.41,0,0,0-5.3.63,5.66,5.66,0,0,0-3.08,4.14c-.45,2.5.81,5,3.7,7.63.52.47,2.22,1.86,5.09,4.21a22.45,22.45,0,0,1,5.43,5.78A12.55,12.55,0,0,1,392,37.51,11.23,11.23,0,0,1,388.17,44.33Z"/><path class="cls-1" d="M450.69,67.07c-.22.41-.37.63-.57.62a2,2,0,0,1-1.21-.3c-.79-.3-2.11-.86-4-1.62-1.38-.58-2.42-1-3-1.17-1-.39-2.32-.86-3.87-1.37l-2.92-.94c-.94-.28-1.44-.6-1.56-.85a1.34,1.34,0,0,1,.1-1c.22-.4.37-.63.51-.64a6,6,0,0,1,1.62.32c2,.52,3.31.25,4-1,.27-.53.78-1.73,1.44-3.5l3.48-9.41a3.21,3.21,0,0,0,.33-1.83,6.12,6.12,0,0,0-1.76-.86L429,38.23a4.35,4.35,0,0,0-2-.46c-.31.09-.64.6-1,1.51l-3.44,9.49c-1,2.75-1.42,4.41-1.2,4.91a3.33,3.33,0,0,0,1.46,1.51c.59.29,1.3.62,2.17,1.08a.92.92,0,0,1,.38,1.23v0c-.19.7-.63,1-1.18.75,0,0-2.11-.85-6.43-2.52l-2.48-1c-.92-.34-2-.69-3.41-1.13l-2.59-.88c-1.06-.33-1.41-.88-1.14-1.61a1.37,1.37,0,0,1,.67-.86c.51.12,1.14.28,2,.51,1.66.41,2.84,0,3.5-1.2.32-.65.81-1.79,1.4-3.38l9-24.44a14.82,14.82,0,0,0,.92-3.41c.07-1.15-.7-2.06-2.37-2.82a2.79,2.79,0,0,1-.87-.46,1,1,0,0,1-.37-.69,1.2,1.2,0,0,1,.22-1,.79.79,0,0,1,.92-.42c.06,0,1.51.63,4.42,1.78,1.5.62,2.6,1,3.27,1.28,1.17.43,2.57,1,4.24,1.5,2.16.73,3.29,1.08,3.29,1.08.28.17.39.42.42.92a1.45,1.45,0,0,1-.36,1c-.3.23-.86.24-1.73,0-1.64-.47-2.82-.28-3.49.59a12.77,12.77,0,0,0-1.61,3.22l-3.12,8.43c-.38,1-.47,1.64-.27,1.85a4.79,4.79,0,0,0,1.71.84l14.43,5.32c1.1.41,1.73.57,2,.46s.59-.83,1.06-2.11l2.92-7.88c1-2.63,1.11-4.32.35-5.08a6.48,6.48,0,0,0-1.82-1.09c-.36-.22-.72-.43-1.09-.62a.87.87,0,0,1-.33-.61,1.64,1.64,0,0,1,.38-1,.91.91,0,0,1,.9-.36c.19.07,1.16.43,2.91,1.15.77.36,1.94.78,3.46,1.35l2.61,1c1,.36,2.2.81,3.63,1.27,1.79.6,2.73.87,2.73.87.59.29.57.91,0,1.82-.19.34-.75.34-1.69.07-1.7-.49-2.88-.31-3.54.56a12.87,12.87,0,0,0-1.62,3.23l-9,24.44-1,2.74a3.14,3.14,0,0,0,.22,2.8,11.75,11.75,0,0,0,2,1.36,4.54,4.54,0,0,1,1.49,1A1.84,1.84,0,0,1,450.69,67.07Z"/><path class="cls-1" d="M500.64,50.88c-.68-.25-1.51-.51-2.54-.81a2.72,2.72,0,0,0-2.65.78,21.56,21.56,0,0,0-1.6,2.46L480.64,75.66a20.24,20.24,0,0,0-2,3.9c-.21,1,.5,2.1,2.06,3.17.25.22.61.51.94.86a.86.86,0,0,1,0,1.21h0c-.42.59-.86.7-1.29.53a9.54,9.54,0,0,1-1.65-1c-.51-.29-1.26-.81-2.29-1.5-1.54-1-2.61-1.6-3.12-1.9-1.46-.86-2.89-1.63-4.27-2.36-2.17-1.2-3.24-1.83-3.18-1.79-.51-.3-.57-.71-.2-1.33s.81-.73,1.6-.42a5.91,5.91,0,0,0,1.88.65,3.4,3.4,0,0,0,2.14,0A4.65,4.65,0,0,0,473,74a21.52,21.52,0,0,0,1.24-2L487,50.17l.75-1.29a10.22,10.22,0,0,0,1.06-2.18,2.42,2.42,0,0,0-.29-2.21A12.33,12.33,0,0,0,487.11,43a5.1,5.1,0,0,1-.91-.76.82.82,0,0,1-.26-1.14.79.79,0,0,1,.12-.15c.35-.48.68-.66,1.05-.52,0,0,.51.3,1.43.92l2.83,1.74c1.43.91,2.44,1.5,3.06,1.87,1.29.76,2.64,1.55,4.19,2.38,2.11,1.17,3.21,1.74,3.26,1.77.48.36.54.77.17,1.39a1,1,0,0,1-1.34.46Z"/><path class="cls-1" d="M551.7,86.66c-.58.61-2.59,2.85-6.06,6.57a1.25,1.25,0,0,1-1.71-.41.54.54,0,0,1,0-.11c-.11-.18,0-.7.27-1.47.44-1.15.69-1.87.81-2.11A5.86,5.86,0,0,0,545.3,87c0-1.44-.89-2.92-2.65-4.37l-3-2.44c-.81-.66-1.3-1-1.58-1s-.79.44-1.57,1.4l-18.15,22.16a20,20,0,0,0-2.53,3.48c-.41,1,.08,2.17,1.5,3.42a6.58,6.58,0,0,1,1.33,1.77,1.29,1.29,0,0,1-.6.94c-.4.27-.71.34-1,.19l-3.81-3.38c-1.32-1.16-2.32-2-2.88-2.44-1.05-.87-2.46-1.94-4.11-3.21-2.05-1.6-3.1-2.38-3.15-2.42-.42-.42-.41-.84,0-1.39s.92-.6,1.56-.16a9.26,9.26,0,0,0,2.06,1.1,3.59,3.59,0,0,0,3.18-.08A11.83,11.83,0,0,0,512.52,98l18.59-22.67a2.26,2.26,0,0,0,.59-1,2.48,2.48,0,0,0-1.13-1.6,29,29,0,0,0-4.47-3.07,8.05,8.05,0,0,0-7.07,0,10.14,10.14,0,0,1-2.65.86,1,1,0,0,1-.81-.66,1.08,1.08,0,0,1,0-1.07s.47-.37,1.42-1c2.07-1.59,4.48-3.4,7.19-5.47a.83.83,0,0,1,1.17,0,.08.08,0,0,0,0,0,1.07,1.07,0,0,1,.34,1,1.6,1.6,0,0,0,.07,1.66,9.94,9.94,0,0,0,2,1.94l19.33,15.87c1.46,1.2,2.64,1.82,3.46,1.74a9.07,9.07,0,0,0,1-.24,1,1,0,0,1,.81.15c.35.29.46.56.31.85A7.1,7.1,0,0,1,551.7,86.66Z"/><path class="cls-1" d="M564.93,151.25c-1.4.78-3.43,1.91-6.09,3.41a7.17,7.17,0,0,1-.81.36.77.77,0,0,1-.82-.16,16,16,0,0,1-1.56-1.92c-1.09-1.38-1.64-2.12-1.68-2.17-1.52-1.87-3.33-4.09-5.46-6.48l-6.78-7.91c-.51-.51-1.11-1.2-1.87-2.09-.43-.4-1.06-1.15-2-2.09s-1.24-1.26-1-1a1,1,0,0,1-.27-.71,1.74,1.74,0,0,1,.54-1c.44-.38.77-.49,1.09-.33a9.62,9.62,0,0,1,1.46,1.32c1.33,1.35,2.45,1.85,3.4,1.46a19,19,0,0,0,3.53-2.59L565.77,113l1.09-.93c1.63-1.4,2.42-2.58,2.25-3.47a5.18,5.18,0,0,0-1.16-2.27,10,10,0,0,1-.71-1,.71.71,0,0,1,.06-.74c.67-.91,1.29-1.1,1.84-.55.35.32.68.65,1,1l2.86,3.64c.8,1,1.82,2.22,3,3.61l6.78,7.92c1.61,1.79,3,3.28,4.08,4.48A7.28,7.28,0,0,1,588,126c.1.43-.26,1-1.11,1.81a6.48,6.48,0,0,1-.85.81c-.4.43-1.85,1.75-4.19,3.93a1.17,1.17,0,0,1-1.09.33c-.46,0-.71-.33-.86-.81a3.12,3.12,0,0,1,.64-1.75,10.37,10.37,0,0,0,1.54-3.71,6.77,6.77,0,0,0-.39-2.67,19.69,19.69,0,0,0-3.57-5.27c-1.19-1.29-2-2.09-2.35-2.44a2.54,2.54,0,0,0-1.42-.76,3,3,0,0,0-1.45.81l-8.17,7c-.84.72-1.3,1.29-1.28,1.61a3.79,3.79,0,0,0,1.07,1.75l3.09,3.61a16.2,16.2,0,0,0,1.42,1.45,2.35,2.35,0,0,0,1.78.88,8.3,8.3,0,0,0,3-1.2,4.24,4.24,0,0,1,1.52-.53,2,2,0,0,1,.73.75c.25.39.32.67.21.85l-.84.72c-.59.41-1.42,1-2.41,1.8-.78.59-1.43,1.14-1.87,1.52s-.89.76-1.54,1.4c-.85.81-1.4,1.37-1.75,1.67-.85.81-1.34,1.24-1.44,1.32a.92.92,0,0,1-1.14-.23,1.71,1.71,0,0,1-.55-.64.67.67,0,0,1,.19-.68c.93-1.22,1.39-1.88,1.44-1.92a3.36,3.36,0,0,0,.55-2.27c-.15-1-1.23-2.64-3.18-4.91-.76-.89-1.53-1.69-2.26-2.44s-1.39-.53-2.23.19l-7.18,6.15c-2.12,1.82-3.17,3.31-3.17,4.6s1,3.23,3.2,5.75,3.63,3.84,4.79,4.39a8.29,8.29,0,0,0,6,.24c.34-.11.76-.22,1.37-.4a4.76,4.76,0,0,1,1.36-.13,1.3,1.3,0,0,1,.81.76.75.75,0,0,1-.12,1A4.45,4.45,0,0,1,564.93,151.25Z"/><path class="cls-1" d="M511.8,569.69c.23-5.8,2.69-10.92,7.47-15.34a20.63,20.63,0,0,1,15.63-5.84A22.74,22.74,0,0,1,556,571.6a22.33,22.33,0,0,1-22.68,21.33c-5.76-.27-10.82-2.77-15.11-7.41S511.64,575.44,511.8,569.69Zm17.84,14.57a18.64,18.64,0,0,0,8.9,3.39,11.11,11.11,0,0,0,8.82-2.83,10.93,10.93,0,0,0,3.68-8,16.38,16.38,0,0,0-2.54-9.18,34.75,34.75,0,0,0-4.21-5.6c-3.8-4.12-7.76-6.76-11.86-7.85-4.65-1.28-8.61-.38-11.81,2.58s-4.18,6.62-3.21,11.22c.82,3.76,3.07,7.63,6.65,11.51A28.52,28.52,0,0,0,529.64,584.26Z"/><path class="cls-1" d="M445,606.82c-.17.1,1.22-.62,4.11-2.14l2.76-1.59c1.24-.72,2.66-1.53,4.26-2.53,2.11-1.29,3.15-2,3.09-1.93a1.21,1.21,0,0,1,1,.08,1,1,0,0,1,.52.91c0,.34-.25.74-.86,1.24-1,.82-1.64,1.32-1.78,1.48a2.36,2.36,0,0,0-.48,2.16c.11.31.31.8.67,1.56l1.08,1.87,11.56,18.84c.49.84,1.07,1.86,1.82,3.16l.17-.1c-.29-3.51-1.83-15.18-4.52-35a1.4,1.4,0,0,1,.73-1.47,1.24,1.24,0,0,1,1.58.14c2.61,2.18,12,9.33,28.17,21.36l.17-.1c-.71-1.24-2.39-4.41-5-9.45q-3.27-6.73-7.2-13.14a15.26,15.26,0,0,0-2.18-2.88,3.15,3.15,0,0,0-2-.76,7.74,7.74,0,0,0-3,1.05,1.08,1.08,0,0,1-1.21-.28c-.56-.58-.67-1-.34-1.38a31.6,31.6,0,0,1,3.1-1.79c1.48-.7,2.58-1.26,3.43-1.75,1.18-.68,2.14-1.23,2.79-1.68.3-.25.92-.61,1.74-1.15a2.45,2.45,0,0,1,1.19-.54c.5.09.79.45.92,1.2.05.35-.19.71-.67,1.06a17.93,17.93,0,0,0-1.5,1.17,3.09,3.09,0,0,0-.84,1.16q-.18.89,1.79,5.06,2.63,5.16,6.27,12.18c2.18,4.45,4.28,8.35,6.2,11.68a10.89,10.89,0,0,0,2.14,3.06,6.23,6.23,0,0,0,2.8-1,9.44,9.44,0,0,1,1.56-.68,1.19,1.19,0,0,1,1,.76c.3.65.24,1.06-.27,1.35-1.1.57-2.83,1.48-5.12,2.73.22-.13-.87.57-3.38,2.1a4.08,4.08,0,0,1-1.53.73,3.41,3.41,0,0,1-1.36-.8c-3.37-2.57-6.57-5-9.77-7.3-1.28-.91-3.72-2.67-7.26-5.29-3.91-2.86-6.77-4.82-8.52-5.91.48,5.28,1.42,13.16,2.83,23.7.07.78.47,3,1.12,6.65a9.25,9.25,0,0,1,.26,1.88c-.07.26-.32.48-.72.71l-4.86,2.65-3.77,2.22a1.12,1.12,0,0,1-.89.14c-.27-.07-.49-.33-.72-.72a1.26,1.26,0,0,1-.2-1,2.31,2.31,0,0,1,.62-.74,14.86,14.86,0,0,0,1.82-1.27c.47-.5.43-1.23,0-2.1l-.78-1.36q-3-5-14.15-23c-.73-1.15-1.22-2-1.64-2.58a12.73,12.73,0,0,0-1.81-2c-.62-.17-1.71.16-3.12,1a1.65,1.65,0,0,1-1.5.26,1.42,1.42,0,0,1-.64-1A.73.73,0,0,1,445,606.82Z"/><path class="cls-1" d="M399,630.83c-.16-1.58-.41-3.9-.75-6.94a4.31,4.31,0,0,1,0-.88.77.77,0,0,1,.46-.69,16.18,16.18,0,0,1,2.38-.68c1.7-.47,2.59-.68,2.65-.7,2.32-.66,5.07-1.46,8.1-2.48,5.34-1.68,8.64-2.71,9.94-3.13.67-.27,1.54-.55,2.66-.9.54-.24,1.47-.53,2.69-1s1.64-.65,1.33-.56a1,1,0,0,1,.76,0,1.79,1.79,0,0,1,.69.87c.17.56.15.91-.12,1.14a8.29,8.29,0,0,1-1.79.83c-1.77.69-2.66,1.52-2.68,2.55a18.74,18.74,0,0,0,1,4.26l7.56,24.05c.29.94.43,1.37.43,1.37.64,2,1.43,3.24,2.31,3.44a5,5,0,0,0,2.54-.18c.25-.08.64-.14,1.22-.25a.72.72,0,0,1,.65.34c.58,1,.51,1.62-.22,1.91a13.55,13.55,0,0,1-1.34.5c-1.33.34-2.78.73-4.47,1.2-1.27.33-2.76.79-4.5,1.34l-9.94,3.13q-3.42,1.17-5.73,2a6.76,6.76,0,0,1-1.67.53c-.43-.07-.82-.63-1.23-1.73a5.39,5.39,0,0,1-.41-1.1c-.24-.54-.89-2.39-2-5.39a1.17,1.17,0,0,1,.12-1.13,1,1,0,0,1,1.08-.48c.37.09.77.51,1.36,1.28a10.11,10.11,0,0,0,2.81,2.87,6.26,6.26,0,0,0,2.61.69,19.32,19.32,0,0,0,6.24-1.22c1.66-.59,2.7-1,3.17-1.2.71-.36,1.15-.7,1.26-1a3,3,0,0,0-.18-1.65l-3.23-10.25c-.33-1.06-.66-1.7-1-1.81a3.9,3.9,0,0,0-2,.29l-4.53,1.43c-1,.39-1.66.59-1.89.73a2.43,2.43,0,0,0-1.51,1.29,8.17,8.17,0,0,0-.07,3.23,4.83,4.83,0,0,1-.11,1.61,2,2,0,0,1-1,.38c-.45.07-.74,0-.86-.14l-.33-1.06c-.16-.7-.41-1.72-.71-2.92-.24-1-.49-1.76-.67-2.32s-.35-1.11-.69-2c-.41-1.1-.7-1.82-.84-2.25-.42-1.11-.61-1.73-.65-1.85a.94.94,0,0,1,.65-1,1.88,1.88,0,0,1,.81-.25c.21,0,.39.15.55.44.76,1.33,1.18,2,1.2,2.08a3.29,3.29,0,0,0,1.88,1.39c1,.25,2.9-.09,5.76-1,1.12-.35,2.16-.75,3.13-1.12.79-.32,1-1.08.7-2.13l-2.84-9c-.84-2.68-1.8-4.22-3-4.73s-3.37-.31-6.54.69c-3,.94-5,1.83-5.92,2.68a8.4,8.4,0,0,0-2.59,5.46c0,.35-.09.78-.16,1.41a4.83,4.83,0,0,1-.42,1.3,1.23,1.23,0,0,1-1,.45.74.74,0,0,1-.84-.49A4.29,4.29,0,0,1,399,630.83Z"/><path class="cls-1" d="M339.38,652.16a18.74,18.74,0,0,1,.44-6.06,20.14,20.14,0,0,1,4.4-8.5,23.07,23.07,0,0,1,13.47-8.21c1.48-.19,3.56-.45,6.27-.75-.25,0,2-.18,6.89-.55.13,0,.65-.06,1.57-.08s1.82-.09,2.6-.16,1.87-.3,3.54-.58a1.08,1.08,0,0,1,1.15.35,1.2,1.2,0,0,1,.17,1.23c-.05.2-.29.35-.68.45a13.45,13.45,0,0,0-1.53.47c-.5.24-.81.33-.88.4a3.15,3.15,0,0,0-.89,1,5.64,5.64,0,0,0-.33,2.84c.05.58.15,1.69.29,3.24l1.9,21.23c.05.65.19,2.21.47,4.6a4.14,4.14,0,0,0,1,2.73,2.4,2.4,0,0,0,1.55.52h2.35a1,1,0,0,1,.65.73,1.66,1.66,0,0,1-.09,1.12c-.1.33-.42.49-1,.55-2.54.09-5.21.26-8.13.53-1.42.19-3.63.39-6.55.71a58.38,58.38,0,0,1-9.35,0A23.19,23.19,0,0,1,347,665.71a18.65,18.65,0,0,1-6.74-9.48A16.67,16.67,0,0,1,339.38,652.16Zm13.54,11.74c3.42,3.1,8,4.4,13.63,3.89,2.14-.19,3.42-.57,3.82-1.13s.56-1.81.38-3.82l-2.2-24.67c-.3-3.31-.87-5.35-1.8-6.19-1-1-2.74-1.39-5.27-1.16-5.06.45-8.87,2.56-11.34,6.31a20.59,20.59,0,0,0-3.05,13.56C347.64,656.33,349.56,660.77,352.92,663.9Z"/><path class="cls-1" d="M284.69,633.55c.53-1.51,1.27-3.71,2.24-6.61a7.27,7.27,0,0,1,.37-.81.8.8,0,0,1,.71-.43,18.61,18.61,0,0,1,2.45.38c1.73.29,2.63.47,2.69.48,2.39.38,5.22.81,8.4,1.15,5.55.73,9,1.17,10.34,1.34a25.21,25.21,0,0,1,2.78.3c.59,0,1.56.14,2.86.24s1.77.09,1.44,0a1.07,1.07,0,0,1,.68.35,1.89,1.89,0,0,1,.25,1.09c-.07.58-.24.89-.58,1a7.44,7.44,0,0,1-2,0c-1.89-.11-3.06.26-3.51,1.19a18.7,18.7,0,0,0-.88,4.29l-3.24,25-.19,1.43c-.27,2.13-.06,3.54.66,4.09a5,5,0,0,0,2.38.9,8,8,0,0,1,1.21.29.73.73,0,0,1,.45.58c.11,1.13-.22,1.68-1,1.65a11.18,11.18,0,0,1-1.42-.12c-1.35-.24-2.83-.5-4.57-.79-1.28-.24-2.83-.44-4.64-.67l-10.34-1.34c-2.4-.24-4.41-.44-6-.58a6.42,6.42,0,0,1-1.75-.23c-.36-.24-.47-.92-.39-2.09a5.77,5.77,0,0,1,.09-1.17c0-.59.2-2.53.48-5.72a1.16,1.16,0,0,1,.58-1,1,1,0,0,1,1.18,0,3.34,3.34,0,0,1,.7,1.73,10.08,10.08,0,0,0,1.35,3.79,6.23,6.23,0,0,0,2.07,1.71,19.41,19.41,0,0,0,6.18,1.53c1.75.16,2.86.24,3.39.24a2.48,2.48,0,0,0,1.56-.39,2.9,2.9,0,0,0,.53-1.57l1.38-10.67c.14-1.1.11-1.82-.13-2a3.94,3.94,0,0,0-2-.58l-4.72-.61c-.67-.07-1.34-.12-2-.13a2.46,2.46,0,0,0-1.92.54,8,8,0,0,0-1.42,2.9,4.63,4.63,0,0,1-.78,1.41,1.7,1.7,0,0,1-1-.07c-.44-.12-.68-.28-.72-.49A3.16,3.16,0,0,1,289,654c.14-.72.35-1.72.58-2.94.19-1,.3-1.8.37-2.38s.15-1.17.2-2.08c.09-1.17.13-2,.19-2.41.08-1.17.17-1.82.18-1.95a.94.94,0,0,1,1-.59,2,2,0,0,1,.84.11.69.69,0,0,1,.31.63c.13,1.53.22,2.33.22,2.4a3.22,3.22,0,0,0,1.11,2c.77.63,2.68,1.14,5.65,1.53,1.16.14,2.27.22,3.32.29.84,0,1.38-.54,1.52-1.64l1.21-9.37c.36-2.78.14-4.58-.72-5.55s-2.94-1.69-6.23-2.12c-3.1-.4-5.27-.41-6.5,0a8.37,8.37,0,0,0-4.64,3.91c-.17.31-.42.67-.75,1.22a4,4,0,0,1-.92,1,1.21,1.21,0,0,1-1.11,0,.76.76,0,0,1-.56-.8A4.69,4.69,0,0,1,284.69,633.55Z"/><path class="cls-1" d="M220,649.18c.34-.77,1.43-3.57,3.38-8.27a1.24,1.24,0,0,1,1.74-.21l.1.08c.16.13.26.64.26,1.47v2.26a5.65,5.65,0,0,0,.43,2.15c.5,1.34,1.86,2.42,4,3.16l3.64,1.25c1,.34,1.56.46,1.81.34s.58-.69,1-1.86l9.24-27.12a20.25,20.25,0,0,0,1.15-4.15c0-1.09-.83-2-2.59-2.68a6,6,0,0,1-1.87-1.19,1.23,1.23,0,0,1,.24-1.09c.27-.39.54-.57.87-.53l4.74,1.84c1.64.63,2.88,1,3.55,1.28,1.3.44,3,1,5,1.57,2.49.78,3.74,1.14,3.8,1.16.54.25.68.64.45,1.32s-.65.88-1.41.69a11.26,11.26,0,0,0-2.3-.31,3.58,3.58,0,0,0-3,1.2,11.18,11.18,0,0,0-1.55,3.32l-9.5,27.73a2.25,2.25,0,0,0-.2,1.17c.14.4.7.79,1.62,1.11a27.75,27.75,0,0,0,5.26,1.32c2.3.32,4.52-.51,6.64-2.48a10.39,10.39,0,0,1,2.17-1.73,1,1,0,0,1,1,.34,1.07,1.07,0,0,1,.34,1s-.31.51-1,1.45c-1.38,2.22-3,4.76-4.82,7.65a.83.83,0,0,1-1.11.39l-.05,0a1,1,0,0,1-.67-.85,1.64,1.64,0,0,0-.65-1.53,10.83,10.83,0,0,0-2.5-1.13l-23.61-8.1c-1.79-.62-3.11-.79-3.85-.43-.27.19-.6.35-.89.59a.88.88,0,0,1-.81.14c-.43-.15-.63-.35-.59-.68A6.36,6.36,0,0,1,220,649.18Z"/><path class="cls-1" d="M183.11,587.45c5.63-1.4,11.22-.46,16.8,2.91a20.59,20.59,0,0,1,10,13.39,22.76,22.76,0,0,1-16.32,26.67,22.35,22.35,0,0,1-26.8-15.87c-1.33-5.6-.34-11.16,2.93-16.57C173,592.4,177.52,588.87,183.11,587.45Zm-9.06,21.16a18.83,18.83,0,0,0-.78,9.5,11.06,11.06,0,0,0,5.18,7.69,10.84,10.84,0,0,0,8.72,1.31,16.11,16.11,0,0,0,8.11-5,33.87,33.87,0,0,0,4.22-5.59c2.89-4.8,4.33-9.33,4.23-13.58,0-4.83-2-8.37-5.76-10.63s-7.51-2.18-11.66,0c-3.39,1.83-6.48,5.06-9.21,9.58a28.87,28.87,0,0,0-3,6.72Z"/><path class="cls-1" d="M140.1,586.77c5.58-5.35,9.81-9.28,12.78-11.81,1.07-.88,1.83-1.18,2.28-.8s.29,1.08-.35,2.24c-.8,1.46-2.17,3.71-4.2,6.85-2.27,3.62-4.06,6.37-5.46,8.34a53.59,53.59,0,0,1-4,5.44c-1.52,1.71-3.32,1.73-5.37,0s-2.24-3.41-.82-5.2C135.17,591.59,136.91,589.91,140.1,586.77Zm20.24-23.57a4.06,4.06,0,0,1,3.13.93,3.61,3.61,0,0,1,1.41,2.79,4.54,4.54,0,0,1-1.15,3.19,4.66,4.66,0,0,1-2.95,1.7,3.83,3.83,0,0,1-3.08-.88,3.48,3.48,0,0,1-1.37-2.93,5,5,0,0,1,1.15-3.11,4.75,4.75,0,0,1,2.86-1.65Z"/><path class="cls-1" d="M117.93,566.07c6-4.82,10.62-8.36,13.8-10.61,1.16-.78,1.94-1,2.35-.59s.18,1.11-.56,2.21c-.92,1.38-2.49,3.49-4.8,6.43-2.59,3.41-4.62,6-6.19,7.82a53,53,0,0,1-4.53,5c-1.66,1.57-3.46,1.42-5.34-.47s-1.93-3.6-.36-5.25C112.58,570.38,114.47,568.87,117.93,566.07Zm22.3-21.64a4.07,4.07,0,0,1,3,1.21,3.6,3.6,0,0,1,1.14,2.9,4.92,4.92,0,0,1-4.52,4.5,3.79,3.79,0,0,1-3-1.15,3.55,3.55,0,0,1-1.1-3,5,5,0,0,1,1.44-3A4.74,4.74,0,0,1,140.23,544.43Z"/></svg>