<?xml version="1.0" encoding="utf-8"?>
<!-- Generator: Adobe Illustrator 22.0.1, SVG Export Plug-In . SVG Version: 6.00 Build 0)  -->
<svg version="1.1" id="レイヤー_1" xmlns="http://www.w3.org/2000/svg" xmlns:xlink="http://www.w3.org/1999/xlink" x="0px"
	 y="0px" viewBox="0 0 1190.6 1190.6" style="enable-background:new 0 0 1190.6 1190.6;" xml:space="preserve">
<style type="text/css">
	.st0{fill:none;stroke:#000000;stroke-width:18.6796;stroke-miterlimit:10;}
	.st1{fill:none;stroke:#000000;stroke-width:13.3089;stroke-miterlimit:10;}
	.st2{fill:none;stroke:#000000;stroke-width:13.3089;stroke-linecap:round;stroke-linejoin:round;stroke-miterlimit:10;}
	.st3{fill:none;stroke:#E8404D;stroke-width:22.1652;stroke-miterlimit:10;}
	.st4{fill:none;stroke:#000000;stroke-width:20.8313;stroke-linecap:round;stroke-linejoin:round;stroke-miterlimit:10;}
	.st5{fill:#E8404D;}
	.st6{fill:none;stroke:#E8404D;stroke-width:23.1299;stroke-miterlimit:10;}
	.st7{fill:none;stroke:#E8404D;stroke-width:23.1299;stroke-linecap:round;stroke-miterlimit:10;}
	.st8{fill:none;stroke:#000000;stroke-width:22.8411;stroke-miterlimit:10;}
	.st9{fill:none;stroke:#E8404D;stroke-width:22.9788;stroke-miterlimit:10;}
	.st10{fill:none;stroke:#000000;stroke-width:22.1211;stroke-linecap:round;stroke-miterlimit:10;}
	.st11{fill:none;stroke:#E8404D;stroke-width:25.3285;stroke-linecap:round;stroke-miterlimit:10;}
</style>
<g>
	<path class="st5" d="M352.9,525.4c-35.2,0-63.9,28.7-63.9,63.9l0,37.9c0,35.2,28.7,63.9,63.9,63.9c35.2,0,63.9-28.7,63.9-63.9
		l0-37.9C416.8,554.1,388.1,525.4,352.9,525.4 M394.6,627.2c0,23-18.7,41.7-41.7,41.7c-23,0-41.7-18.7-41.7-41.7l0-37.9
		c0-23,18.7-41.7,41.7-41.7c23,0,41.7,18.7,41.7,41.7L394.6,627.2z"/>
	<path class="st5" d="M519.2,547.9c23.3-3,43.5,13.3,46.8,35.1c0.5,3.6,3.5,6.2,7.1,6.2h7.9c4.3,0,7.7-3.8,7.2-8.1
		c-4.2-33.4-34.4-58.9-69.6-55.6c-33.1,3.1-57.8,32.2-57.8,65.5l0,34.2c0,33.3,24.6,62.4,57.8,65.5c35.2,3.3,65.4-22.1,69.6-55.6
		c0.5-4.3-2.9-8.1-7.2-8.1H573c-3.6,0-6.6,2.7-7.1,6.2c-3.3,21.8-23.5,38.1-46.7,35.1c-21-2.7-36.2-21.6-36.2-42.8l0-35
		C483,569.6,498.2,550.7,519.2,547.9"/>
	<path class="st5" d="M834.6,525.4c-35.2,0-63.9,28.7-63.9,63.9l0,37.9c0,35.2,28.7,63.9,63.9,63.9c35.2,0,63.9-28.7,63.9-63.9
		l0-37.9C898.5,554.1,869.8,525.4,834.6,525.4 M876.3,627.2c0,23-18.7,41.7-41.7,41.7c-23,0-41.7-18.7-41.7-41.7l0-37.9
		c0-23,18.7-41.7,41.7-41.7c23,0,41.7,18.7,41.7,41.7L876.3,627.2z"/>
	<path class="st5" d="M636.1,549.8h27.3c4,0,7.2,3.2,7.2,7.2l0,124.7c0,4,3.2,7.2,7.2,7.2h7.8c4,0,7.2-3.2,7.2-7.2l0-124.7
		c0-4,3.2-7.2,7.2-7.2h27.3c4,0,7.2-3.2,7.2-7.2v-7.8c0-4-3.2-7.2-7.2-7.2h-91.3c-4,0-7.2,3.2-7.2,7.2v7.8
		C628.9,546.5,632.1,549.8,636.1,549.8"/>
</g>
</svg>
