<svg xmlns="http://www.w3.org/2000/svg" viewBox="7254.459 5679.459 577.03 178.681"><defs><style>.a{fill:none;stroke:#000;stroke-miterlimit:10;stroke-width:1.081px;}</style></defs><g transform="translate(7254.5 5679.5)"><g transform="translate(19.73 21.449)"><path d="M16.5,25.331c-3.283,0-3.6-3.752-3.6-5.159,0-1.72.313-5.472,3.6-5.472a2.851,2.851,0,0,1,2.658,1.563,6.411,6.411,0,0,1,.938,3.752C20.092,21.266,19.935,25.331,16.5,25.331Zm0-9.068c-.938,0-1.563.625-1.563,3.752,0,3.283.782,3.752,1.72,3.752,1.094,0,1.563-.782,1.563-3.752C18.215,16.732,17.434,16.263,16.5,16.263Z" transform="translate(-12.744 -13.449)"/><path d="M19.2,22.076V20.2h1.876v1.876Z" transform="translate(-9.194 -10.351)"/><path d="M31.372,16.463v8.6H29.5v-8.6H25.9V14.9h9.224v1.563Z" transform="translate(-5.42 -13.337)"/><path d="M37.89,25.062V20.685c0-.782-.313-1.72-1.251-1.72a1.608,1.608,0,0,0-1.563,1.72v4.534H33.2V14.9h1.876v3.127l-.156.938A2.773,2.773,0,0,1,37.265,17.4a2.554,2.554,0,0,1,2.5,2.814v5H37.89Z" transform="translate(-1.307 -13.337)"/><path d="M40.72,20.934A1.936,1.936,0,0,0,42.6,22.81,1.542,1.542,0,0,0,44,21.872h1.876A3.377,3.377,0,0,1,42.6,24.217c-2.032,0-3.6-1.407-3.6-3.908,0-2.658,1.72-3.908,3.6-3.908a3.547,3.547,0,0,1,2.814,1.407,5.492,5.492,0,0,1,.782,3.127Zm1.72-2.97c-1.407,0-1.563,1.251-1.72,1.72H44A1.524,1.524,0,0,0,42.439,17.963Z" transform="translate(1.961 -12.492)"/><path d="M54.011,24.161V19.627c0-.938-.313-1.563-1.094-1.563a1.421,1.421,0,0,0-1.407,1.563v4.534H49.634V19.627c0-.625-.156-1.563-1.251-1.563a1.5,1.5,0,0,0-1.407,1.407v4.69H45.1v-7.5h1.876v1.094A2.322,2.322,0,0,1,49.165,16.5a2.772,2.772,0,0,1,2.189,1.251A3.111,3.111,0,0,1,53.7,16.5c1.72,0,2.345,1.251,2.345,2.97v4.846H54.011Z" transform="translate(5.397 -12.435)"/><path d="M55.476,20.934a1.936,1.936,0,0,0,1.876,1.876,1.542,1.542,0,0,0,1.407-.938h1.72A3.377,3.377,0,0,1,57.2,24.217c-2.032,0-3.6-1.407-3.6-3.908,0-2.658,1.72-3.908,3.6-3.908a3.547,3.547,0,0,1,2.814,1.407,5.492,5.492,0,0,1,.782,3.127Zm1.72-2.97c-1.407,0-1.563,1.251-1.72,1.72h3.283C58.6,18.589,58.134,17.963,57.2,17.963Z" transform="translate(10.186 -12.492)"/><path d="M66,20.12V18.4h3.6v1.72Z" transform="translate(17.172 -11.365)"/><path d="M69.7,20.12V18.4h3.6v1.72Z" transform="translate(19.256 -11.365)"/><path d="M73.4,20.12V18.4H77v1.72Z" transform="translate(21.341 -11.365)"/><path d="M77.2,20.12V18.4h3.6v1.72Z" transform="translate(23.482 -11.365)"/><path d="M80.9,20.12V18.4h3.6v1.72Z" transform="translate(25.566 -11.365)"/><path d="M84.6,20.12V18.4h3.6v1.72Z" transform="translate(27.651 -11.365)"/><path d="M88.4,20.12V18.4H92v1.72Z" transform="translate(29.792 -11.365)"/><path d="M92.1,20.12V18.4h3.6v1.72Z" transform="translate(31.876 -11.365)"/><path d="M95.8,20.12V18.4h3.6v1.72Z" transform="translate(33.961 -11.365)"/><path d="M99.6,20.12V18.4h3.6v1.72Z" transform="translate(36.101 -11.365)"/><path d="M103.3,20.12V18.4h3.439v1.72Z" transform="translate(38.186 -11.365)"/><path d="M115.846,15.038l-.313.156a10.507,10.507,0,0,1-.938,1.876c.156.156.313.156.313.313s0,.156-.156.156l-.156.156v8.286h-1.563v-6.41c-.156.313-.469.625-.782,1.094L111,19.885a19.056,19.056,0,0,0,3.127-5.785l1.563.469c.313.156.313.156.313.313A.153.153,0,0,1,115.846,15.038Zm6.41,11.256c-1.094,0-2.032-1.094-2.345-1.407a11.288,11.288,0,0,1-2.032-5.472l-2.5.313-.156-1.563,2.5-.313a25.363,25.363,0,0,1-.156-3.6h1.563a.685.685,0,0,1,.469.156c0,.156,0,.156-.156.313s-.156.156-.156.469a17.9,17.9,0,0,0,.156,2.345l4.065-.625.156,1.563L119.6,19.1c.782,4.065,2.345,5.315,2.658,5.315s.469-.938.469-1.251l1.251.782C123.507,25.356,123.038,26.294,122.256,26.294Zm-.782-9.537c-.313-.469-.625-1.094-1.094-1.72l1.094-.782c.469.625.938,1.251,1.251,1.72Z" transform="translate(42.524 -13.787)"/><path d="M132.413,26.038a9.656,9.656,0,0,1-5.159-4.846,7.026,7.026,0,0,1-1.407.938v1.876c.782-.156,1.563-.313,2.658-.625v1.251c-1.094.313-2.97.938-5.315,1.563-.313,0-.313.156-.313.156,0,.156,0,.156-.156.156s-.156-.156-.313-.313l-.469-1.563a16.259,16.259,0,0,0,2.345-.313V22.911a22.938,22.938,0,0,1-2.189.938L121,22.755a11.64,11.64,0,0,0,4.846-2.658h-4.534V18.846h5v-.625h-3.439V16.97h3.439v-.625h-4.69V15.094h4.69V14l1.563.156c.156,0,.313,0,.313.156s0,.156-.156.156l-.156.156v.469h4.846v1.251h-4.846v.625h3.6v1.251h-3.6v.625h5.159V20.1h-1.72l.782.782a.546.546,0,0,1,.156.313c0,.156,0,.156-.313.156-.156,0-.156,0-.313.156a6.941,6.941,0,0,1-1.72,1.251,12.781,12.781,0,0,0,3.127,1.876ZM128.348,20.1a4.434,4.434,0,0,0,1.251,1.72,4.541,4.541,0,0,0,1.72-1.72Z" transform="translate(48.158 -13.844)"/><path d="M135.734,25.825a5.194,5.194,0,0,1-3.127-.625,2.756,2.756,0,0,1-1.407-2.345c0-1.72,1.407-2.658,2.97-3.6a3.922,3.922,0,0,1-.782-1.251,22.639,22.639,0,0,1-.782-3.6l1.876-.313a8.353,8.353,0,0,0,.469,3.283,1.6,1.6,0,0,0,.782.938c1.563-.782,1.876-.782,3.6-1.72l.469,1.72a25.042,25.042,0,0,0-5.159,2.189c-.625.469-1.72,1.094-1.72,2.032s1.094,1.563,2.658,1.563a21.114,21.114,0,0,0,4.377-.625v1.876A15.733,15.733,0,0,1,135.734,25.825Z" transform="translate(53.904 -13.787)"/><path d="M147.2,16.051a19.817,19.817,0,0,1-1.876,3.6c.625.625,1.094,1.251,1.876,2.189l-1.251,1.251a10.037,10.037,0,0,0-1.563-2.032,17.914,17.914,0,0,1-4.377,3.6L138.6,23.4a14.527,14.527,0,0,0,4.69-3.6,18.715,18.715,0,0,0-2.189-1.876l.938-1.251c.938.625,1.72,1.251,2.345,1.72a15.216,15.216,0,0,0,1.72-3.6l1.563.782s.313.156.313.313A2.092,2.092,0,0,1,147.2,16.051Z" transform="translate(58.073 -13.393)"/><path d="M149.214,17.67a12.265,12.265,0,0,0-2.814-1.72l.782-1.251a14.545,14.545,0,0,1,2.97,1.72Zm4.065,3.908a17.861,17.861,0,0,1-5.315,3.127,1.575,1.575,0,0,1-.156.469c-.156,0-.156-.156-.313-.313l-.938-1.72a13.449,13.449,0,0,0,5.159-2.5,16.061,16.061,0,0,0,4.065-4.377l.938,1.407A13.609,13.609,0,0,1,153.279,21.579Z" transform="translate(62.468 -13.449)"/><path d="M163.868,17.9a20.163,20.163,0,0,1-1.563,3.439,10.206,10.206,0,0,0,1.251,1.094l-1.094,1.251c-.313-.156-.469-.469-1.094-1.094a12.584,12.584,0,0,1-4.534,3.439l-1.251-1.251a10.5,10.5,0,0,0,4.534-3.127,10.252,10.252,0,0,0-2.345-1.407l.782-1.094a7.728,7.728,0,0,1,2.345,1.407,7.684,7.684,0,0,0,1.251-2.658h-3.6a11.355,11.355,0,0,1-2.5,2.814l-1.251-.938a11.567,11.567,0,0,0,3.908-5.472l1.563.469a.546.546,0,0,1,.313.156c0,.156-.156.156-.313.156a14.089,14.089,0,0,1-.782,1.407h3.283a1.185,1.185,0,0,0,.625-.313l1.094,1.094C164.18,17.427,163.868,17.583,163.868,17.9Z" transform="translate(67.2 -13.675)"/><path d="M162.8,19.12V17.4h10.006v1.72Z" transform="translate(71.707 -11.928)"/><path d="M177.354,18.039a5.177,5.177,0,0,0-1.72,3.439,2.672,2.672,0,0,0,.938,1.876,6.427,6.427,0,0,0,2.5.782l-.625,1.72a6.59,6.59,0,0,1-3.439-1.563,3.689,3.689,0,0,1-1.094-2.5,5.043,5.043,0,0,1,.938-2.814,9.449,9.449,0,0,1,1.876-2.189c-1.876.156-3.908.313-5.315.469l-.313-1.563A41.778,41.778,0,0,0,181.106,14.6v1.563A5.284,5.284,0,0,0,177.354,18.039Zm2.97,2.345L179.23,19.29l.625-.625a3.653,3.653,0,0,1,1.094,1.094Zm1.251-1.251a7.224,7.224,0,0,0-1.094-1.094l.625-.625a3.491,3.491,0,0,1,1.094,1.094Z" transform="translate(76.383 -13.506)"/><path d="M186.21,19.659a6.111,6.111,0,0,1-.938,3.6,7.631,7.631,0,0,1-3.127,2.658l-1.407-1.094c2.814-.938,3.752-2.345,3.752-5.159H179.8V18.252h10.631v1.407Zm-4.377-3.6V14.5h6.879v1.563Z" transform="translate(81.285 -13.562)"/><path d="M188.5,19.12V17.4h10.006v1.72Z" transform="translate(86.186 -11.928)"/><path d="M207.018,17.276c-.313.313-2.345,2.345-4.065,4.221.469.625.782.938,1.251,1.563L202.8,24.155a16.808,16.808,0,0,0-3.6-4.221l1.094-1.094c.469.469.938.782,1.563,1.407,1.094-1.094,1.876-1.876,2.814-2.97H196.7V15.713h9.068a1.185,1.185,0,0,0,.625-.313l1.094,1.407C207.487,16.963,207.175,17.12,207.018,17.276Z" transform="translate(90.806 -13.055)"/><path d="M212.479,21.092v2.814h-1.563V21.717c-.469.313-2.032.938-2.032,2.032,0,.938,1.094,1.094,2.189,1.094a14.194,14.194,0,0,0,3.6-.469v1.563a32.429,32.429,0,0,1-3.283.156,4.651,4.651,0,0,1-3.283-.938,2.316,2.316,0,0,1-.469-1.407c0-1.72,1.251-2.345,3.439-3.439-.156-.469-.313-.938-1.094-.938-1.407,0-2.189,1.251-2.97,2.5l-1.407-.782a19.322,19.322,0,0,0,2.814-3.908h-1.876l-.156-1.407a14.827,14.827,0,0,0,2.658,0c.313-.782.469-1.251.782-1.876l1.72.313s.313,0,.313.156,0,.156-.156.156l-.313.156a5.139,5.139,0,0,1-.469.938,12.125,12.125,0,0,0,2.814-.782l-.156,1.563a13.942,13.942,0,0,1-3.439.469c-.469.782-.625,1.094-.782,1.407a2.02,2.02,0,0,1,1.251-.313,1.839,1.839,0,0,1,1.876,1.407c1.72-.782,1.876-.782,2.5-1.094l.469,1.563A15.2,15.2,0,0,1,212.479,21.092Z" transform="translate(95.82 -13.9)"/><path d="M215.576,22.03a8.7,8.7,0,0,1-.469,2.97l-1.407-.313a9.427,9.427,0,0,0,.625-3.283l1.251.156c.156,0,.313,0,.313.156A.336.336,0,0,1,215.576,22.03Zm2.814-.938c0-.156-.156-.313-.156-.469-.313,0-.625.156-.938.156v5.628h-1.407V20.935c-.313,0-.938.156-1.251.156h-.156a.153.153,0,0,0-.156.156.153.153,0,0,1-.156-.156l-.313-1.563h1.094a4.751,4.751,0,0,0,.782-1.094,16.556,16.556,0,0,0-1.876-1.563l.782-1.094c.156,0,.156.156.469.313.469-.782.782-1.563,1.094-2.189l1.407.625.156.156a.153.153,0,0,1-.156.156c-.156,0-.156,0-.313.313a19.939,19.939,0,0,1-1.094,1.876l.469.469a7.16,7.16,0,0,0,1.251-2.032l1.251.782.156.156a.153.153,0,0,1-.156.156h-.313s-2.189,2.658-2.345,2.97a3.885,3.885,0,0,0,1.251-.156c-.156-.469-.156-.625-.313-.782l1.251-.469a14.124,14.124,0,0,1,.782,2.5Zm-.313,2.97c-.156-.782-.156-1.563-.313-2.345l1.094-.313a22.278,22.278,0,0,0,.469,2.5Zm.625,2.032V24.687h1.407V14.525h5.315V24.687h.938v1.407Zm5.159-10.162h-2.345v1.876h2.345Zm0,3.283h-2.345v2.032h2.345Zm0,3.439h-2.345v2.032h2.345Z" transform="translate(100.383 -13.9)"/><path d="M231.873,25.244a10.751,10.751,0,0,1-3.752.469c-.782,0-2.658,0-2.658-1.251,0-.156,0-.625.156-.782a1.966,1.966,0,0,1-1.72-2.189,2.141,2.141,0,0,1,2.345-2.345v-.938c-.625,0-1.251.156-2.189.156L223.9,16.8a9.663,9.663,0,0,0,2.345-.156V14.3l1.563.156c.313,0,.313,0,.313.156s0,.156-.156.156a.153.153,0,0,0-.156.156l-.156,1.563c1.094-.313,1.72-.469,2.345-.625v1.563c-.938.313-1.72.469-2.345.625v2.032a.812.812,0,0,1,.313.625,3.5,3.5,0,0,1-.469,1.563,5.1,5.1,0,0,0-.469,1.563c0,.313.156.625,1.094.625,2.814,0,3.283-.469,3.283-1.251a3.372,3.372,0,0,0-.625-1.876l1.407-.469a6,6,0,0,1,.782,2.814A1.451,1.451,0,0,1,231.873,25.244Zm-5.941-5a1.066,1.066,0,0,0-.782,1.094.552.552,0,0,0,.625.625c.469,0,.782-.625.782-1.094C226.4,20.554,226.245,20.241,225.932,20.241Zm7.5-1.876a7.814,7.814,0,0,0-2.345-2.032l.782-1.251a10.946,10.946,0,0,1,2.5,2.189Z" transform="translate(106.13 -13.675)"/><path d="M15.814,44.062V36.87H13V35.62h.782A2.248,2.248,0,0,0,15.97,33.9h1.563V44.218h-1.72Z" transform="translate(-12.687 -2.632)"/><path d="M19.2,41.076V39.2h1.876v1.876Z" transform="translate(-9.194 0.354)"/><path d="M26.3,44.118V33.8h1.876V44.118Z" transform="translate(-5.194 -2.689)"/><path d="M38.311,43.161V38.627c0-.938-.313-1.563-1.094-1.563a1.421,1.421,0,0,0-1.407,1.563v4.534H33.934V38.627c0-.625-.156-1.563-1.251-1.563a1.5,1.5,0,0,0-1.407,1.407v4.69H29.4v-7.5h1.876v1.094A2.322,2.322,0,0,1,33.465,35.5a2.772,2.772,0,0,1,2.189,1.251A3.111,3.111,0,0,1,38,35.5c1.72,0,2.345,1.251,2.345,2.97v4.846H38.311Z" transform="translate(-3.448 -1.731)"/><path d="M43.215,43.161a2.661,2.661,0,0,1-.156-1.094c-.156.469-.625,1.251-2.5,1.251-2.032,0-2.658-1.251-2.658-2.189,0-1.72,1.563-2.189,3.283-2.5.782-.156,1.72-.313,1.72-.938s-.625-.782-1.251-.782a2.083,2.083,0,0,0-1.407.469.919.919,0,0,0-.313.782h-1.72C38.369,35.813,40.4,35.5,41.5,35.5c1.72,0,3.283.782,3.283,2.658v4.221a.936.936,0,0,0,.469.938H43.215Zm-1.563-3.439c-.782.156-1.72.313-1.72,1.251,0,.469.469.938,1.251.938a1.733,1.733,0,0,0,1.876-1.563v-.782l.156-.469A1.813,1.813,0,0,1,41.652,39.721Z" transform="translate(1.341 -1.731)"/><path d="M50.266,37.276c0,.156.156.313.156.625,0,1.251-.938,2.345-3.127,2.345h-.782c-.313.156-.469.156-.469.469s.625.469,1.094.469c1.876.156,2.814.156,3.283.782a1.775,1.775,0,0,1,.469,1.251c0,1.407-1.407,2.032-3.908,2.032-1.72,0-3.283-.313-3.283-1.563a1.2,1.2,0,0,1,1.251-1.251c-.313-.156-.938-.313-.938-1.094s.625-1.094,1.094-1.407c-.156-.469-.938-.938-.938-2.032,0-1.563,1.407-2.5,3.283-2.5,1.407,0,2.032.469,2.189.782.625-.625.782-.782,1.563-.782v1.407C50.892,36.807,50.735,36.807,50.266,37.276Zm-2.814-.469c-.938,0-1.407.469-1.407,1.094,0,.938,1.094.938,1.407.938s1.407,0,1.407-.938A1.338,1.338,0,0,0,47.452,36.807Zm.469,5.628H46.67c-.469.156-.782.313-.782.625s0,.625,1.563.625c1.407,0,1.563-.313,1.563-.625S48.39,42.592,47.921,42.435Z" transform="translate(4.608 -1.787)"/><path d="M50.1,35.676V33.8h1.876v1.876Zm0,8.442v-7.5h1.876v7.5Z" transform="translate(8.214 -2.689)"/><path d="M57.946,43.161V38.314c0-.782-.313-1.407-1.251-1.407a1.549,1.549,0,0,0-1.72,1.72V43H53.1V35.5h1.876v1.407A2.476,2.476,0,0,1,57.321,35.5a2.349,2.349,0,0,1,2.5,2.658v5Z" transform="translate(9.904 -1.731)"/><path d="M64.215,43.161a2.66,2.66,0,0,1-.156-1.094c-.156.469-.625,1.251-2.5,1.251-2.032,0-2.658-1.251-2.658-2.189,0-1.72,1.563-2.189,3.283-2.5.782-.156,1.72-.313,1.72-.938s-.625-.782-1.251-.782a2.083,2.083,0,0,0-1.407.469.919.919,0,0,0-.313.782h-1.72C59.369,35.813,61.4,35.5,62.5,35.5c1.72,0,3.283.782,3.283,2.658v4.221a.936.936,0,0,0,.469.938H64.215ZM62.5,39.721c-.782.156-1.72.313-1.72,1.251,0,.469.469.938,1.251.938A1.733,1.733,0,0,0,63.9,40.346v-.782l.156-.469A1.813,1.813,0,0,1,62.5,39.721Z" transform="translate(13.172 -1.731)"/><path d="M67.57,37.8v4.221a.415.415,0,0,0,.469.469h.782v1.407H67.727c-1.407,0-2.032-.625-2.032-1.72V37.952H64.6V36.389h1.094V34.2H67.57v2.189h1.251v1.563H67.57Z" transform="translate(16.383 -2.463)"/><path d="M68.9,35.676V33.8h1.876v1.876Zm0,8.442v-7.5h1.876v7.5Z" transform="translate(18.806 -2.689)"/><path d="M75.708,43.373A3.593,3.593,0,0,1,71.8,39.465,3.907,3.907,0,0,1,75.708,35.4a3.814,3.814,0,0,1,3.908,4.065A3.593,3.593,0,0,1,75.708,43.373Zm.156-6.41c-1.094,0-2.032.782-2.032,2.5a2.226,2.226,0,0,0,2.189,2.5c1.72,0,2.032-1.563,2.032-2.5C77.9,37.745,76.8,36.963,75.865,36.963Z" transform="translate(20.439 -1.787)"/><path d="M83.246,43.161V38.314c0-.782-.313-1.407-1.251-1.407a1.549,1.549,0,0,0-1.72,1.72V43H78.4V35.5h1.876v1.407A2.476,2.476,0,0,1,82.621,35.5a2.349,2.349,0,0,1,2.5,2.658v5Z" transform="translate(24.158 -1.731)"/><path d="M88.2,39.12V37.4h3.6v1.72Z" transform="translate(29.679 -0.661)"/><path d="M91.9,39.12V37.4h3.6v1.72Z" transform="translate(31.763 -0.661)"/><path d="M95.7,39.12V37.4h3.6v1.72Z" transform="translate(33.904 -0.661)"/><path d="M99.4,39.12V37.4h3.439v1.72Z" transform="translate(35.989 -0.661)"/><path d="M103.1,39.12V37.4h3.6v1.72Z" transform="translate(38.073 -0.661)"/><path d="M117.51,38.659a6.111,6.111,0,0,1-.938,3.6,7.631,7.631,0,0,1-3.127,2.658l-1.407-1.094c2.814-.938,3.752-2.345,3.752-5.159H111.1V37.252h10.631v1.407Zm-4.377-3.6V33.5h6.879v1.563Z" transform="translate(42.58 -2.858)"/><path d="M119.8,38.12V36.4h10.006v1.72Z" transform="translate(47.482 -1.224)"/><path d="M138.418,36.276c-.313.313-2.345,2.345-4.065,4.221.469.625.782.938,1.251,1.563L134.2,43.155a16.809,16.809,0,0,0-3.6-4.221l1.094-1.094c.469.469.938.782,1.563,1.407,1.094-1.094,1.876-1.876,2.814-2.97H128.1V34.713h9.068a1.185,1.185,0,0,0,.625-.313l1.094,1.407Z" transform="translate(52.158 -2.351)"/><path d="M144.092,43.093a2.185,2.185,0,0,1-2.189,1.094,3.885,3.885,0,0,1-1.251-.156l-.156-1.72a3.048,3.048,0,0,0,1.251.156c.469,0,.625,0,.782-.313a7.346,7.346,0,0,0,.782-3.439c0-.782-.156-1.251-1.094-1.251h-.782a22.43,22.43,0,0,1-2.97,6.566l-1.563-.782a13.811,13.811,0,0,0,2.814-5.472,14.521,14.521,0,0,0-2.032.625l-.625-1.72c1.094-.156,2.345-.313,2.97-.469a15.49,15.49,0,0,0,.313-2.814l1.72.313a1.575,1.575,0,0,1,.469.156.153.153,0,0,1-.156.156c-.313.156-.313.156-.313.313a6.881,6.881,0,0,1-.313,1.563c.313,0,.782-.156,1.094-.156,1.876,0,2.032,1.563,2.032,2.345A8.943,8.943,0,0,1,144.092,43.093Zm2.5-2.658-.938-1.407q.938,0,.938-.469A6.092,6.092,0,0,0,145.03,35.9l1.094-.782c1.876,2.032,2.189,3.6,2.189,4.065C148.313,39.966,147.531,40.279,146.593,40.435Z" transform="translate(57.116 -2.914)"/><path d="M148.589,44.925l-.782-1.72c.469,0,1.094.156,1.72.156,2.658,0,3.752-1.407,3.752-2.658,0-.938-.782-1.407-1.72-1.407s-2.345.625-3.908,2.189l-1.251-.625a28.317,28.317,0,0,1,1.094-5.315l1.563.625a18.286,18.286,0,0,0-.782,3.127,5.85,5.85,0,0,1,3.439-1.407,3.125,3.125,0,0,1,3.127,3.127C155,44.925,150.308,44.925,148.589,44.925Zm3.127-8.755a12.9,12.9,0,0,0-3.283-1.563l.625-1.407a19.983,19.983,0,0,1,3.439,1.407Z" transform="translate(62.468 -3.027)"/><path d="M165.838,41.542a14.466,14.466,0,0,1-1.563-.469v4.221h-1.72v-.313h-4.221v.469h-1.72V41.23a11.875,11.875,0,0,1-1.72.625L153.8,40.6a14.833,14.833,0,0,0,5.472-2.5c-.469-.625-.782-.938-1.407-1.72a14.321,14.321,0,0,1-2.189,2.189l-1.407-.938a10.668,10.668,0,0,0,4.065-4.534l1.563.313a.546.546,0,0,1,.313.156c0,.156,0,.156-.313.313-.156,0-.156.156-.469.469h3.439l.938.938a19.047,19.047,0,0,1-2.345,2.814,10.878,10.878,0,0,0,5.159,2.032Zm-3.283,0h-4.221v1.876h4.221Zm-2.189-2.5a18.519,18.519,0,0,1-1.876,1.251h3.752A6.541,6.541,0,0,1,160.366,39.041Zm-1.094-3.6a5.678,5.678,0,0,0,1.094,1.407,4.869,4.869,0,0,0,1.094-1.407Z" transform="translate(66.637 -3.083)"/><path d="M172.161,45.138v-.782h-6.1v.782H164.5V34.663h2.658a5.1,5.1,0,0,0,.469-1.563l1.876.156c.156,0,.156,0,.156.156a.153.153,0,0,1-.156.156c-.313.156-.313.156-.313.313,0,0-.313.782-.469.782h5V45.138Zm0-9.068h-6.1v1.251h6.1Zm0,2.658h-6.1v1.407h6.1Zm0,2.814h-6.1v1.563h6.1Z" transform="translate(72.665 -3.083)"/><path d="M180.7,39.741l-1.251-1.094a9.38,9.38,0,0,0,2.5-2.97H173.2V34.113h9.537c.156,0,.469-.156.469-.313l1.251,1.251A28.809,28.809,0,0,1,180.7,39.741ZM179.454,36.3a.546.546,0,0,0-.156.313s-.156.938-.156,1.251a8.862,8.862,0,0,1-3.6,6.41l-1.563-.938c2.97-2.032,3.6-4.221,3.6-7.192l1.72.156c.156-.156.156-.156.156,0Z" transform="translate(77.566 -2.689)"/><path d="M191.58,34.707c-.156,0-.313,0-.469.313a30.007,30.007,0,0,1-2.345,2.189v7.5h-1.72V38.459a22.5,22.5,0,0,1-3.6,2.032L182.2,39.241a20.319,20.319,0,0,0,8.13-5.941l1.251.938s.313.156.313.313S191.893,34.707,191.58,34.707Z" transform="translate(82.637 -2.97)"/><path d="M196.854,39c0,3.283-1.407,5-4.065,6.254L191.538,44c2.5-.938,3.752-2.032,3.752-5H190.6V37.59h10.631V39Zm-4.377-3.439V33.994h6.879v1.563Zm9.224.782c-.625-.625-1.094-.782-1.407-1.094l.469-.782a4.868,4.868,0,0,1,1.407,1.094Zm.313-1.72a9.971,9.971,0,0,0-1.407-.938l.469-.782a4.8,4.8,0,0,1,1.407.938Z" transform="translate(87.369 -3.196)"/><path d="M207.4,39.741l-1.251-1.094a9.38,9.38,0,0,0,2.5-2.97H199.9V34.113h9.537c.156,0,.469-.156.469-.313l1.251,1.251A28.809,28.809,0,0,1,207.4,39.741ZM206.154,36.3a.546.546,0,0,0-.156.313s-.156.938-.156,1.251a8.862,8.862,0,0,1-3.6,6.41l-1.563-.938c2.97-2.032,3.6-4.221,3.6-7.192L206,36.3c.156-.156.313-.156.156,0Z" transform="translate(92.608 -2.689)"/><path d="M216.079,40.092v2.814h-1.563V40.717c-.469.313-2.032.938-2.032,2.032,0,.938,1.094,1.094,2.189,1.094a14.194,14.194,0,0,0,3.6-.469v1.563a32.431,32.431,0,0,1-3.283.156,4.651,4.651,0,0,1-3.283-.938,2.316,2.316,0,0,1-.469-1.407c0-1.72,1.251-2.345,3.439-3.439-.156-.469-.313-.938-1.094-.938-1.407,0-2.189,1.251-2.97,2.5l-1.407-.782a19.322,19.322,0,0,0,2.814-3.908h-1.876l-.156-1.407a14.827,14.827,0,0,0,2.658,0c.313-.782.469-1.251.782-1.876l1.72.313s.313,0,.313.156,0,.156-.156.156l-.313.156a5.14,5.14,0,0,1-.469.938,12.126,12.126,0,0,0,2.814-.782l-.156,1.563a13.942,13.942,0,0,1-3.439.469c-.469.782-.625,1.094-.782,1.407a2.02,2.02,0,0,1,1.251-.313,1.839,1.839,0,0,1,1.876,1.407c1.72-.782,1.876-.782,2.5-1.094l.469,1.563A20.6,20.6,0,0,1,216.079,40.092Z" transform="translate(97.848 -3.196)"/><path d="M228.744,40.079c-.156.156-.156.156-.156.313v4.69h-1.563v-.625h-7.661v.782H217.8V39.923l1.72.156c.156,0,.156,0,.156.156a.153.153,0,0,1-.156.156l-.156.156v2.345h2.97V38.984h-4.221V34.138l1.72.156a.156.156,0,1,1,0,.313l-.156.156v2.658h2.658V33.2l1.876.313c.156,0,.156,0,.156.156s0,.156-.156.156a.153.153,0,0,0-.156.156v3.439h2.658V34.138l1.72.156c.156,0,.156,0,.156.156a.153.153,0,0,1-.156.156c-.156.156-.313.156-.313.313v4.065H223.9v3.908h2.97V39.766l1.72.156c.156-.156.156,0,.156.156Z" transform="translate(102.693 -3.027)"/><path d="M233.285,43.875a5.261,5.261,0,0,1-2.814.938,2.7,2.7,0,0,1-2.032-.782c-.625-.625-.938-1.251-.938-4.69,0-.782.156-5,0-5.941l1.876.313a.685.685,0,0,1,.469.156c0,.156-.156.156-.469.469a39.893,39.893,0,0,0-.469,5.628,6.48,6.48,0,0,0,.313,2.5,1.355,1.355,0,0,0,1.251.625c.782,0,2.658-.469,4.065-3.127l1.407,1.094A10.475,10.475,0,0,1,233.285,43.875Z" transform="translate(108.158 -2.914)"/><path d="M235.838,38.2a7.5,7.5,0,0,1,3.127,3.127l-1.407,1.094a12.819,12.819,0,0,0-2.658-3.127Z" transform="translate(112.327 -0.21)"/><path d="M249.98,36.934a13.828,13.828,0,0,1-2.5,4.69,10.6,10.6,0,0,1-4.221,3.439l-1.563-1.251a11.9,11.9,0,0,0,4.69-3.752,8.6,8.6,0,0,0,1.72-3.439h-7.5V35.058h7.973c.156,0,.313-.156.469-.156l1.407,1.251A1.671,1.671,0,0,0,249.98,36.934Zm.938-1.72a1.277,1.277,0,0,1-1.251-1.407,1.378,1.378,0,0,1,1.251-1.407,1.417,1.417,0,0,1,0,2.814Zm0-2.032a.782.782,0,1,0,.782.782A.837.837,0,0,0,250.918,33.182Z" transform="translate(115.538 -3.477)"/><path d="M258.13,43.48v-.625h-6.41v.469H250V34.1h9.693v9.224H258.13Zm0-7.661h-6.41v5.472h6.41Z" transform="translate(120.834 -2.52)"/><path d="M261.614,39.366a9.5,9.5,0,0,0-2.814-1.407l.782-1.407a7.935,7.935,0,0,1,2.814,1.407Zm4.377,2.5a24.5,24.5,0,0,1-4.69,3.127c-.156.156-.156.156-.313.156,0,.156,0,.313-.156.313s-.313-.313-.313-.313l-.782-1.407a18.534,18.534,0,0,0,8.286-6.879l1.094,1.407A19.13,19.13,0,0,1,265.992,41.868Zm-2.814-5.785a7.076,7.076,0,0,0-2.814-1.251l.782-1.407a7.44,7.44,0,0,1,2.814,1.251Zm4.221-.313a4.868,4.868,0,0,0-1.407-1.094l.625-.782a8.592,8.592,0,0,1,1.407,1.094Zm1.407-1.094c-.469-.469-1.094-.782-1.407-1.094l.625-.782a15.349,15.349,0,0,1,1.563,1.094Z" transform="translate(125.792 -3.252)"/><path d="M267.4,42.792V41.541h3.439v-4.69h-2.658V35.6h6.566v1.251H272.09v4.69h3.439v1.251Z" transform="translate(130.637 -1.675)"/><path d="M284.024,36.8a15.933,15.933,0,0,1-2.5,4.846,12.371,12.371,0,0,1-3.752,3.283l-1.563-1.094a12.371,12.371,0,0,0,4.377-3.6,11.607,11.607,0,0,0,1.876-3.752h-3.6a25.662,25.662,0,0,1-2.658,3.127l-1.407-.938a12.358,12.358,0,0,0,3.908-5.472l1.407.625a.336.336,0,0,1,.313.313c0,.156-.156.156-.313.156a3.417,3.417,0,0,0-.469.782h3.127a1.185,1.185,0,0,0,.625-.313l1.094,1.407C284.337,36.327,284.024,36.483,284.024,36.8Z" transform="translate(134.806 -3.027)"/><path d="M289.484,41.217A15.629,15.629,0,0,0,285.42,38.4v6.1H283.7V33.4l1.72.313s.313,0,.313.156-.313.313-.313.313v3.752l.625-1.094a8.709,8.709,0,0,1,2.345,1.251c1.094.782,1.563,1.251,2.189,1.72Z" transform="translate(139.82 -2.914)"/><path d="M300.731,41.83a6.976,6.976,0,0,1-3.283,2.5l-1.094-1.407a4.106,4.106,0,0,0,2.5-1.563,4.6,4.6,0,0,0,.938-2.814,3.37,3.37,0,0,0-.938-2.5,3.789,3.789,0,0,0-2.345-.938,21.14,21.14,0,0,1-1.72,6.254c-.469.938-1.094,2.032-1.876,2.032a4.017,4.017,0,0,1-2.814-3.752,6.013,6.013,0,0,1,6.254-5.941,4.924,4.924,0,0,1,5.159,5.159A4.457,4.457,0,0,1,300.731,41.83Zm-7.5-5.472a4.711,4.711,0,0,0-1.407,3.127c0,1.094.625,1.72.938,1.72.782,0,1.876-3.6,2.189-5.941A7.64,7.64,0,0,0,293.227,36.358Z" transform="translate(143.425 -2.745)"/><path d="M311.182,38.472a13.956,13.956,0,0,1-5.472-3.752,12.549,12.549,0,0,1-5,4.065L299.3,37.377A8.754,8.754,0,0,0,304.615,33l1.876.313a.546.546,0,0,1,.313.156v.156a15.564,15.564,0,0,0,2.345,2.189,12.252,12.252,0,0,0,3.283,1.407Zm-10.944,6.879V43.787h1.876V39.1l1.563.156c.156,0,.313,0,.313.156a.153.153,0,0,1-.156.156l-.156.156v3.908h1.407V36.283l1.563.156c.156,0,.313,0,.313.156a.153.153,0,0,1-.156.156l-.156.156v2.345h2.97v1.563h-2.97v2.658h4.534v1.563H300.238Z" transform="translate(148.608 -3.139)"/><path d="M316.223,34.807V35.9h2.814v6.254H312V35.9h2.814V34.807H309.5V33.4h11.882v1.407Zm5.316,1.251c-.156.156-.156.156-.156.313v8.6h-1.407V44.5H311.22v.469h-1.407V35.745l1.407.156c.156,0,.313,0,.313.156v.156c-.156.156-.156.156-.156.313v6.723h8.755v-7.5l1.407.156a.546.546,0,0,1,.313.156Zm-6.723,1.094h-1.407V38.4h1.407Zm0,2.5h-1.407v1.407h1.407Zm2.814-2.5h-1.407V38.4h1.407Zm0,2.5h-1.407v1.407h1.407Z" transform="translate(154.355 -2.914)"/><path d="M321.889,43.975l-1.094.469a7.622,7.622,0,0,1-.469-1.094A11.1,11.1,0,0,1,319.7,39.6c0-.938.156-1.876.156-2.814a31.237,31.237,0,0,1,.625-3.283l1.407.469a.336.336,0,0,1,.313.313v.156a.546.546,0,0,1-.313.156,15.373,15.373,0,0,0-.782,4.846,8.974,8.974,0,0,0,.156,1.876,9.581,9.581,0,0,1,.625-.938l.782.469A30.393,30.393,0,0,0,321.889,43.975Zm5.159-.469c-2.5,0-3.127-.625-3.127-3.127l1.563-.156c0,1.407.156,1.72,1.563,1.72a12.278,12.278,0,0,0,3.283-.469v1.72A17.964,17.964,0,0,1,327.048,43.506ZM325.8,36.314h-1.563V34.751c.469,0,1.094.156,1.876.156a8.994,8.994,0,0,0,3.283-.625v1.563A14.124,14.124,0,0,1,325.8,36.314Z" transform="translate(160.101 -2.858)"/><path d="M336.917,44.087a20.169,20.169,0,0,0-2.5-1.407c0,1.407-.469,2.032-2.189,2.032-1.876,0-3.127-.625-3.127-1.876,0-.469.156-2.032,3.283-1.876h.469V39.554h-1.407c-1.251,0-1.876-.469-1.876-.938,0-.625.938-1.407,1.563-1.72l.782.625q-.469.235-.469.469c0,.156.313.156.469.156h.938v-1.72a23.692,23.692,0,0,0-3.6.313V35.176h3.6V33.3l1.72.156c.313,0,.313,0,.313.156l-.156.156a.546.546,0,0,0-.156.313v.938a32.912,32.912,0,0,1,3.6-.156v1.563h-3.6v1.72c1.251-.156,1.72-.313,2.97-.469v1.563a28.643,28.643,0,0,1-2.97.313v1.72a13.111,13.111,0,0,1,3.6,1.563Zm-4.846-1.876c-.938,0-1.407.313-1.407.625,0,.469.938.469,1.094.469.938,0,.938-.313.938-1.094Z" transform="translate(165.397 -2.97)"/><path d="M341.634,44.825a5.194,5.194,0,0,1-3.127-.625,2.756,2.756,0,0,1-1.407-2.345c0-1.72,1.407-2.658,2.97-3.6a3.922,3.922,0,0,1-.782-1.251,22.632,22.632,0,0,1-.782-3.6l1.876-.313a8.354,8.354,0,0,0,.469,3.283,1.6,1.6,0,0,0,.782.938c1.563-.782,1.876-.782,3.6-1.72l.469,1.72a25.041,25.041,0,0,0-5.159,2.189c-.625.469-1.72,1.094-1.72,2.032s1.094,1.563,2.658,1.563a21.113,21.113,0,0,0,4.377-.625v1.876A15.732,15.732,0,0,1,341.634,44.825Z" transform="translate(169.904 -3.083)"/><path d="M354.337,43.362a6.041,6.041,0,0,1-2.97,1.563l-.938-1.407a5,5,0,0,0,2.658-1.251,3.662,3.662,0,0,0,1.094-2.658,2.726,2.726,0,0,0-2.658-2.658,21.706,21.706,0,0,1-1.563,4.065,9.571,9.571,0,0,1,.625.938l-1.094,1.251a2.746,2.746,0,0,0-.625-.782,3.988,3.988,0,0,1-2.345,1.407c-.938,0-1.72-.938-1.72-2.345a5.76,5.76,0,0,1,1.876-4.065,11.988,11.988,0,0,1-.782-2.658l1.72-.625a15.512,15.512,0,0,0,.469,2.345,5.949,5.949,0,0,1,2.345-.782,15.217,15.217,0,0,0,.156-2.5l1.563.156c.156,0,.469,0,.469.156a.153.153,0,0,1-.156.156l-.156.156c-.156.938-.156,1.094-.313,1.72a5.518,5.518,0,0,1,2.5,1.094,4.079,4.079,0,0,1,1.407,3.127A4.567,4.567,0,0,1,354.337,43.362ZM347.3,38.985a3.964,3.964,0,0,0-.938,2.5c0,.469.156.782.625.782.625,0,1.094-.782,1.407-.938A16.794,16.794,0,0,1,347.3,38.985Zm1.251-.938c.156.469.469,1.094.625,1.72a10.326,10.326,0,0,0,.782-2.345A2.179,2.179,0,0,0,348.552,38.046Z" transform="translate(174.242 -3.027)"/><path d="M358.9,44.6c-1.72,0-2.658-.938-2.658-1.876a1.933,1.933,0,0,1,2.032-1.876,3.7,3.7,0,0,1,2.814,1.72,2.672,2.672,0,0,0,.938-1.876c0-1.407-1.407-1.876-2.345-1.876a3.923,3.923,0,0,0-1.563.313,14.849,14.849,0,0,0-2.97,2.5L353.9,40.379a29.007,29.007,0,0,0,5.159-5,14.226,14.226,0,0,1-3.283.313l-.313-1.563c.313,0,1.094.156,1.563.156a12.783,12.783,0,0,0,4.221-.782l.782,1.094c-.782.782-1.094.938-3.127,2.97.469,0,1.094-.156,1.407-.156a3.133,3.133,0,0,1,3.127,3.127C363.593,42.88,361.4,44.6,358.9,44.6Zm-.469-2.658a.707.707,0,0,0-.782.625c0,.469.625.625,1.094.625a5.527,5.527,0,0,0,.938-.156A1.339,1.339,0,0,0,358.434,41.942Z" transform="translate(179.369 -2.858)"/><path d="M12.9,63.175c.313-1.876.938-2.97,3.283-4.69,1.563-1.094,2.032-1.72,2.032-2.5a1.607,1.607,0,0,0-1.563-1.72c-1.407,0-1.407,1.407-1.407,2.189h-1.72c0-.938.156-3.752,3.283-3.752a3.162,3.162,0,0,1,3.439,3.283c0,1.72-1.094,2.5-2.5,3.439a5.686,5.686,0,0,0-2.189,2.189h4.69v1.407H12.9Z" transform="translate(-12.744 7.959)"/><path d="M19.2,60.076V58.2h1.876v1.876Z" transform="translate(-9.194 11.058)"/><path d="M31.19,59.523H28.376v3.6H26.5V52.8h4.69a3.245,3.245,0,0,1,3.439,3.283A3.371,3.371,0,0,1,31.19,59.523Zm-.313-5h-2.5V57.8h2.5a1.564,1.564,0,0,0,1.72-1.72C32.6,54.832,31.815,54.52,30.877,54.52Z" transform="translate(-5.082 8.015)"/><path d="M37.108,56.22A1.94,1.94,0,0,0,35.076,58.1v4.065H33.2v-7.5h1.876v.625l-.156,1.094C35.7,54.969,36.17,54.5,37.734,54.5v1.876h-.625Z" transform="translate(-1.307 8.973)"/><path d="M39.12,58.934A1.936,1.936,0,0,0,41,60.81a1.542,1.542,0,0,0,1.407-.938h1.876A3.377,3.377,0,0,1,41,62.217c-2.032,0-3.6-1.407-3.6-3.908,0-2.658,1.72-3.908,3.6-3.908a3.547,3.547,0,0,1,2.814,1.407,5.493,5.493,0,0,1,.782,3.127H39.12Zm1.72-2.97c-1.407,0-1.563,1.251-1.72,1.72H42.4C42.246,56.589,41.777,55.963,40.839,55.963Z" transform="translate(1.059 8.917)"/><path d="M46.327,62.373a3.849,3.849,0,0,1-2.5-.938,1.948,1.948,0,0,1-.625-1.72h1.876a1.246,1.246,0,0,0,1.407,1.251c.156,0,1.094,0,1.094-.782,0-.469-.313-.625-1.563-1.094-1.563-.625-2.658-.938-2.658-2.345,0-1.251,1.251-2.345,2.97-2.345a3.155,3.155,0,0,1,2.189.782,1.948,1.948,0,0,1,.625,1.72H47.265a.988.988,0,0,0-1.094-1.094c-.782,0-1.094.469-1.094.782s.313.469.938.782c1.876.782,2.032.782,2.345,1.094a1.924,1.924,0,0,1,.782,1.563C49.454,61.592,48.046,62.373,46.327,62.373Z" transform="translate(4.327 8.917)"/><path d="M50.476,58.934a1.936,1.936,0,0,0,1.876,1.876,1.542,1.542,0,0,0,1.407-.938h1.72A3.377,3.377,0,0,1,52.2,62.217c-2.032,0-3.6-1.407-3.6-3.908,0-2.658,1.72-3.908,3.6-3.908a3.547,3.547,0,0,1,2.814,1.407,5.492,5.492,0,0,1,.782,3.127H50.476Zm1.72-2.97c-1.407,0-1.563,1.251-1.72,1.72h3.283C53.6,56.589,53.134,55.963,52.2,55.963Z" transform="translate(7.369 8.917)"/><path d="M59.446,62.161V57.314c0-.782-.313-1.407-1.251-1.407a1.549,1.549,0,0,0-1.72,1.72V62H54.6V54.5h1.876v1.407A2.476,2.476,0,0,1,58.821,54.5a2.349,2.349,0,0,1,2.5,2.658v5Z" transform="translate(10.749 8.973)"/><path d="M63.17,56.8v4.221a.415.415,0,0,0,.469.469h.782v1.407H63.327c-1.407,0-2.032-.625-2.032-1.72V56.952H60.2V55.389h1.094V53.2H63.17v2.189h1.251v1.563H63.17Z" transform="translate(13.904 8.241)"/><path d="M69.415,62.161a2.661,2.661,0,0,1-.156-1.094c-.156.469-.625,1.251-2.5,1.251-2.032,0-2.658-1.251-2.658-2.189,0-1.72,1.563-2.189,3.283-2.5.782-.156,1.72-.313,1.72-.938s-.625-.782-1.251-.782a2.083,2.083,0,0,0-1.407.469.919.919,0,0,0-.313.782h-1.72C64.569,54.813,66.6,54.5,67.7,54.5c1.72,0,3.283.782,3.283,2.658v4.221a.936.936,0,0,0,.469.938H69.415Zm-1.563-3.439c-.782.156-1.72.313-1.72,1.251,0,.469.469.938,1.251.938a1.733,1.733,0,0,0,1.876-1.563v-.782l.156-.469A1.813,1.813,0,0,1,67.852,58.721Z" transform="translate(16.101 8.973)"/><path d="M72.77,56.8v4.221a.415.415,0,0,0,.469.469h.782v1.407H72.927c-1.407,0-2.032-.625-2.032-1.72V56.952H69.8V55.389h1.094V53.2H72.77v2.189h1.251v1.563H72.77Z" transform="translate(19.313 8.241)"/><path d="M74.1,54.676V52.8h1.876v1.876Zm0,8.442v-7.5h1.876v7.5Z" transform="translate(21.735 8.015)"/><path d="M81.008,62.373A3.593,3.593,0,0,1,77.1,58.465,3.907,3.907,0,0,1,81.008,54.4a3.814,3.814,0,0,1,3.908,4.065A3.676,3.676,0,0,1,81.008,62.373Zm0-6.41c-1.094,0-2.032.782-2.032,2.5a2.226,2.226,0,0,0,2.189,2.5c1.72,0,2.032-1.563,2.032-2.5C83.041,56.745,82.1,55.963,81.008,55.963Z" transform="translate(23.425 8.917)"/><path d="M88.546,62.161V57.314c0-.782-.313-1.407-1.251-1.407a1.549,1.549,0,0,0-1.72,1.72V62H83.7V54.5h1.876v1.407A2.476,2.476,0,0,1,87.921,54.5a2.349,2.349,0,0,1,2.5,2.658v5Z" transform="translate(27.144 8.973)"/><path d="M95.8,58.12V56.4h3.439v1.72Z" transform="translate(33.961 10.044)"/><path d="M99.5,58.12V56.4h3.6v1.72Z" transform="translate(36.045 10.044)"/><path d="M103.2,58.12V56.4h3.439v1.72Z" transform="translate(38.13 10.044)"/><path d="M120.68,55.934a13.828,13.828,0,0,1-2.5,4.69,10.6,10.6,0,0,1-4.221,3.439l-1.563-1.251a11.9,11.9,0,0,0,4.69-3.752,8.6,8.6,0,0,0,1.72-3.439h-7.5V54.058h7.973c.156,0,.313-.156.469-.156l1.407,1.251C121.149,55.308,120.837,55.465,120.68,55.934Zm.938-1.72a1.277,1.277,0,0,1-1.251-1.407,1.378,1.378,0,0,1,1.251-1.407,1.277,1.277,0,0,1,1.251,1.407A1.14,1.14,0,0,1,121.618,54.214Zm0-2.032a.782.782,0,1,0,.782.782A.739.739,0,0,0,121.618,52.182Z" transform="translate(42.693 7.227)"/><path d="M121.638,63.018l-.938-.938V52.7l1.72.156c.156,0,.313,0,.313.156a.153.153,0,0,1-.156.156c-.156.156-.156.156-.156.313v7.035a11.054,11.054,0,0,0,3.439-1.563,14.06,14.06,0,0,0,3.439-2.97l.782,1.563A19.744,19.744,0,0,1,121.638,63.018Z" transform="translate(47.989 7.959)"/><path d="M138.718,57.272c-1.094,1.563-2.032,2.814-2.345,3.283l-1.407-.782a17.344,17.344,0,0,0,1.876-2.5l-3.908.469v3.283c0,.782.156,1.094,1.72,1.094a27.91,27.91,0,0,0,3.6-.313v1.72a20.953,20.953,0,0,1-3.127.156c-3.439,0-3.6-.469-3.6-2.032V57.9l-2.97.313-.156-1.563,3.127-.313v-3.6l1.407.156c.313,0,.469,0,.469.156a.153.153,0,0,1-.156.156c-.156.156-.156.156-.156.313v2.658l4.534-.469a.812.812,0,0,0,.625-.313l1.251,1.251A1.1,1.1,0,0,0,138.718,57.272Zm-.313-2.5a8.937,8.937,0,0,0-1.251-1.094l.625-.625a8.939,8.939,0,0,1,1.251,1.094Zm1.407-1.251a8.934,8.934,0,0,0-1.251-1.094l.625-.625a8.935,8.935,0,0,1,1.251,1.094Z" transform="translate(52.327 7.452)"/><path d="M140.314,55.67a12.264,12.264,0,0,0-2.814-1.72l.782-1.251a14.545,14.545,0,0,1,2.97,1.72Zm4.065,3.908a17.861,17.861,0,0,1-5.315,3.127,1.575,1.575,0,0,1-.156.469c-.156,0-.156-.156-.313-.313l-.938-1.72a13.449,13.449,0,0,0,5.159-2.5,16.061,16.061,0,0,0,4.065-4.377l.938,1.407A13.608,13.608,0,0,1,144.379,59.579Z" transform="translate(57.454 7.959)"/><path d="M152.679,59.092v2.814h-1.563V59.717c-.469.313-2.032.938-2.032,2.032,0,.938,1.094,1.094,2.189,1.094a14.194,14.194,0,0,0,3.6-.469v1.563a32.431,32.431,0,0,1-3.283.156,4.651,4.651,0,0,1-3.283-.938,2.316,2.316,0,0,1-.469-1.407c0-1.72,1.251-2.345,3.439-3.439-.156-.469-.313-.938-1.094-.938-1.407,0-2.189,1.251-2.97,2.5l-1.407-.782a19.322,19.322,0,0,0,2.814-3.908h-1.876l-.156-1.407a14.827,14.827,0,0,0,2.658,0c.313-.782.469-1.251.782-1.876l1.72.313s.313,0,.313.156,0,.156-.156.156l-.313.156a5.14,5.14,0,0,1-.469.938,12.125,12.125,0,0,0,2.814-.782l-.156,1.563a13.943,13.943,0,0,1-3.439.469c-.469.782-.625,1.094-.782,1.407a2.02,2.02,0,0,1,1.251-.313,1.839,1.839,0,0,1,1.876,1.407c1.72-.782,1.876-.782,2.5-1.094l.469,1.563A15.2,15.2,0,0,1,152.679,59.092Z" transform="translate(62.13 7.508)"/><path d="M160.285,62.875a5.261,5.261,0,0,1-2.814.938,2.7,2.7,0,0,1-2.032-.782c-.625-.625-.938-1.251-.938-4.69,0-.782.156-5,0-5.941l1.876.313a.685.685,0,0,1,.469.156c0,.156-.156.156-.469.469a39.9,39.9,0,0,0-.469,5.628,6.48,6.48,0,0,0,.313,2.5,1.355,1.355,0,0,0,1.251.625c.782,0,2.658-.469,4.065-3.127l1.407,1.094A13.881,13.881,0,0,1,160.285,62.875Z" transform="translate(67.031 7.79)"/><path d="M168.679,55.527a5.51,5.51,0,0,0-2.345,3.908,2.429,2.429,0,0,0,1.094,2.032,4.2,4.2,0,0,0,2.5.625l-.469,1.72c-1.094-.313-4.69-.938-4.69-4.065,0-2.345,2.032-4.377,2.658-5-1.72.156-3.752.313-5.315.625l-.313-1.72A43.384,43.384,0,0,0,172.118,52.4v1.72A5.489,5.489,0,0,0,168.679,55.527Z" transform="translate(71.144 7.79)"/><path d="M171.538,57.2a7.5,7.5,0,0,1,3.127,3.127l-1.407,1.094a12.818,12.818,0,0,0-2.658-3.127Z" transform="translate(76.101 10.494)"/><path d="M184.1,58.741l-1.251-1.094a9.38,9.38,0,0,0,2.5-2.97H176.6V53.113h9.537c.156,0,.469-.156.469-.313l1.251,1.251A28.809,28.809,0,0,1,184.1,58.741ZM182.854,55.3a.546.546,0,0,0-.156.313s-.156.938-.156,1.251a8.862,8.862,0,0,1-3.6,6.41l-1.563-.938c2.97-2.032,3.6-4.221,3.6-7.192l1.72.156c.156-.156.156-.156.156,0Z" transform="translate(79.482 8.015)"/><path d="M194.98,53.707c-.156,0-.313,0-.469.313a30.013,30.013,0,0,1-2.345,2.189v7.5h-1.72V57.459a22.5,22.5,0,0,1-3.6,2.032L185.6,58.241a20.319,20.319,0,0,0,8.13-5.941l1.251.938s.313.156.313.313S195.293,53.707,194.98,53.707Z" transform="translate(84.552 7.734)"/><path d="M200.254,58c0,3.283-1.407,5-4.065,6.254L194.938,63c2.5-.938,3.752-2.032,3.752-5H194V56.59h10.631V58Zm-4.377-3.439V52.994h6.879v1.563Zm9.224.782c-.625-.625-1.094-.782-1.407-1.094l.469-.782a4.868,4.868,0,0,1,1.407,1.094Zm.313-1.72a9.969,9.969,0,0,0-1.407-.938l.469-.782a4.8,4.8,0,0,1,1.407.938Z" transform="translate(89.285 7.508)"/><path d="M210.8,58.741l-1.251-1.094a9.38,9.38,0,0,0,2.5-2.97H203.3V53.113h9.537c.156,0,.469-.156.469-.313l1.251,1.251A28.808,28.808,0,0,1,210.8,58.741ZM209.553,55.3a.546.546,0,0,0-.156.313s-.156.938-.156,1.251a8.862,8.862,0,0,1-3.6,6.41l-1.563-.938c2.97-2.032,3.6-4.221,3.6-7.192l1.72.156c.156-.156.313-.156.156,0Z" transform="translate(94.524 8.015)"/><path d="M221.724,57.446a11.761,11.761,0,0,1-2.345,3.908,11.445,11.445,0,0,1-3.908,2.658l-1.251-1.251a9.064,9.064,0,0,0,3.908-2.5,5.978,5.978,0,0,0,1.72-2.97H212.5V55.727h7.973a1.185,1.185,0,0,0,.625-.313l1.094,1.251A1.428,1.428,0,0,0,221.724,57.446Zm-7.661-3.283V52.6h6.723v1.563Z" transform="translate(99.707 7.903)"/><path d="M230.08,54.776a16.014,16.014,0,0,1-2.814,5.315,11.99,11.99,0,0,1-3.908,3.127l-1.563-1.251a11.069,11.069,0,0,0,6.41-7.192h-7.5v-1.72h7.973c.156,0,.313-.156.469-.156l1.407,1.251A2.158,2.158,0,0,0,230.08,54.776Z" transform="translate(104.327 8.072)"/><path d="M235.879,59.092v2.814h-1.563V59.717c-.469.313-2.032.938-2.032,2.032,0,.938,1.094,1.094,2.189,1.094a14.194,14.194,0,0,0,3.6-.469v1.563a32.432,32.432,0,0,1-3.283.156,4.651,4.651,0,0,1-3.283-.938,2.316,2.316,0,0,1-.469-1.407c0-1.72,1.251-2.345,3.439-3.439-.156-.469-.313-.938-1.094-.938-1.407,0-2.189,1.251-2.97,2.5L229,59.092a19.322,19.322,0,0,0,2.814-3.908h-1.876l-.156-1.407a14.827,14.827,0,0,0,2.658,0c.313-.782.469-1.251.782-1.876l1.72.313s.313,0,.313.156,0,.156-.156.156l-.313.156a5.14,5.14,0,0,1-.469.938,12.125,12.125,0,0,0,2.814-.782l-.156,1.563a13.942,13.942,0,0,1-3.439.469c-.469.782-.625,1.094-.782,1.407A2.02,2.02,0,0,1,234,55.965a1.839,1.839,0,0,1,1.876,1.407c1.72-.782,1.876-.782,2.5-1.094l.469,1.563A15.2,15.2,0,0,1,235.879,59.092Z" transform="translate(109.003 7.508)"/><path d="M237.4,57.276V55.4h11.882v1.876Z" transform="translate(113.735 9.48)"/><path d="M257.987,64.138a9.387,9.387,0,0,1-4.69-5.159,9.838,9.838,0,0,1-4.69,5.159L247.2,62.731a7.145,7.145,0,0,0,2.97-2.032,8.191,8.191,0,0,0,2.189-5.785V52.1h1.563c.156,0,.625,0,.625.156a.153.153,0,0,1-.156.156s-.313.156-.313.313v1.251c0,5.628,2.658,7.192,5.159,8.6Z" transform="translate(119.256 7.621)"/><path d="M267.318,55.765h-3.752V57.8a2.819,2.819,0,0,1,.313,1.563,8.1,8.1,0,0,1-2.5,5.472l-1.563-.782a5.145,5.145,0,0,0,2.032-2.345,1.7,1.7,0,0,1-.782.156,1.775,1.775,0,0,1-1.251-.469,2.319,2.319,0,0,1-.625-1.72c0-1.563.782-2.658,2.189-2.658.313,0,.469,0,.625.156V56.077c-.938,0-3.127.156-5,.313V54.827a42.722,42.722,0,0,0,5-.156,13.753,13.753,0,0,0-.156-2.189h1.563c.313,0,.469,0,.469.156a.153.153,0,0,1-.156.156.153.153,0,0,0-.156.156v1.407c.469,0,.782,0,3.752-.156v1.563Zm-5.785,2.345c-.469,0-.938.469-.938,1.251s.313,1.094.782,1.094c.313,0,.938-.313.938-1.251C262.315,58.735,262.159,58.11,261.534,58.11Zm4.534-4.69a3.653,3.653,0,0,0-1.094-1.094l.782-.625,1.094,1.094Zm1.876,0c-.313-.469-.625-.782-.938-1.251l.782-.469a8.672,8.672,0,0,1,.938,1.251Z" transform="translate(124.777 7.396)"/><path d="M274.768,61.017a12.241,12.241,0,0,1-4.846,1.094l-.782-1.876h1.407c2.345,0,5-.938,5-3.283a2.451,2.451,0,0,0-2.658-2.345,12.3,12.3,0,0,0-3.127.625c-.469.156-2.814.782-3.283.938l-.782-1.72c1.407-.156,2.658-.469,3.6-.625a12.323,12.323,0,0,1,3.6-.625c1.876,0,4.377.938,4.377,3.908A3.9,3.9,0,0,1,274.768,61.017Z" transform="translate(129.679 8.241)"/><path d="M278.683,55.6v1.563a4.087,4.087,0,0,1,1.251-.469v1.72c-.313.156-.469.156-1.251.469v4.377c0,.938-1.876,1.094-2.345,1.094l-.625-1.563h1.251c.156,0,.156-.156.156-.313V59.661c-.313.156-.469.156-.625.313-.469.156-.469.156-.625.313-.156.313-.156.313-.313.313s-.156-.156-.156-.469V58.566a9.689,9.689,0,0,0,1.72-.469V55.908H275.4V54.5h1.72V52h1.251c.469,0,.469.156.469.156,0,.156,0,.156-.156.156l-.156.156v1.407h1.407v1.407h-1.251Zm8.442,8.755h-2.032a5.684,5.684,0,0,1-2.97-.782c-.313-.156-.469-.469-.782-.938a6.186,6.186,0,0,1-1.407,2.032l-1.251-.938a5.046,5.046,0,0,0,1.876-4.065l1.407.156a.685.685,0,0,1,.469.156c0,.156,0,.156-.156.313l-.156.156s-.156.782-.156.938c.156.625.469.782.938,1.094v-3.6h-2.5V57.472h7.5v1.407h-3.752v.938h2.658v1.407h-2.658v1.72a24.263,24.263,0,0,0,3.6-.156Zm-6.566-7.5V52.313h6.41v4.534Zm4.846-3.439h-3.44v.625h3.44Zm0,1.563h-3.44V55.6h3.44Z" transform="translate(135.144 7.565)"/><path d="M293.43,61.38a6.461,6.461,0,0,0,3.6,1.72l-.782,1.251a8.435,8.435,0,0,1-4.221-2.5v2.345h-1.563V62.006a14.983,14.983,0,0,1-4.221,2.5l-.938-1.251a9.093,9.093,0,0,0,3.908-1.876h-3.752V60.286h5.159V59.5h1.563s.313,0,.313.156a.153.153,0,0,1-.156.156l-.156.156v.313h5.315V61.38Zm1.251-4.846a4.6,4.6,0,0,1-1.251,1.251,22.8,22.8,0,0,1,2.97,1.094l-.938,1.094a25.737,25.737,0,0,0-3.283-1.407,11.544,11.544,0,0,1-5.472,1.251l-.625-1.251h.782a11.24,11.24,0,0,0,3.439-.625c-.469-.156-.782-.156-1.251-.313-.313.156-.313.313-.469.313l-1.407-.625c.313-.156.469-.469,1.094-.938h-2.814V55.283h3.908c.313-.469.469-.625.782-1.094h-2.97v.625h-1.563V52.938h4.846V52l1.72.156c.156,0,.313,0,.313.156a.153.153,0,0,1-.156.156l-.156.156v.313h4.846v1.876h-1.563v-.625h-4.846l.782.156c.313,0,.313.156.313.156,0,.156-.156.156-.313.156a1.2,1.2,0,0,1-.313.469h6.254v1.094H294.68Zm-4.534,0-.313.313a15.074,15.074,0,0,0,1.876.313c.313-.313.625-.469.782-.782h-2.345Z" transform="translate(140.721 7.565)"/><path d="M16.5,82.331a4.513,4.513,0,0,1-2.658-.938,3.774,3.774,0,0,1-.938-2.5h1.876c0,1.407.782,1.876,1.563,1.876a1.64,1.64,0,0,0,1.72-1.72c0-1.094-.782-1.563-1.876-1.563H15.4V76.234h.782a1.477,1.477,0,0,0,1.563-1.563,1.378,1.378,0,0,0-1.407-1.407,1.46,1.46,0,0,0-1.563,1.72h-1.72a3.276,3.276,0,0,1,.469-1.876A3.434,3.434,0,0,1,16.5,71.7a2.852,2.852,0,0,1,3.127,2.658,2.625,2.625,0,0,1-1.251,2.189,2.833,2.833,0,0,1,1.563,2.5C20.092,81.08,18.372,82.331,16.5,82.331Z" transform="translate(-12.744 18.663)"/><path d="M19.2,79.076V77.2h1.876v1.876Z" transform="translate(-9.194 21.762)"/><path d="M31.034,82.118H26.5V71.8h4.534c2.814,0,4.377,2.189,4.377,5S33.848,82.118,31.034,82.118Zm0-8.6H28.376v7.035h2.658c1.876,0,2.345-2.5,2.345-3.752C33.379,74.3,32.128,73.52,31.034,73.52Z" transform="translate(-5.082 18.72)"/><path d="M35.52,77.934A1.936,1.936,0,0,0,37.4,79.81a1.542,1.542,0,0,0,1.407-.938h1.876A3.377,3.377,0,0,1,37.4,81.217c-2.032,0-3.6-1.407-3.6-3.908,0-2.658,1.72-3.908,3.6-3.908a3.547,3.547,0,0,1,2.814,1.407,5.493,5.493,0,0,1,.782,3.127Zm1.72-2.97c-1.407,0-1.563,1.251-1.72,1.72H38.8C38.646,75.589,38.177,74.963,37.239,74.963Z" transform="translate(-0.969 19.621)"/><path d="M43.721,81.1H41.845L39.5,73.6h1.876l1.094,4.065.156,1.251.156-1.251L43.877,73.6h1.876Z" transform="translate(2.242 19.734)"/><path d="M46.876,77.877a1.936,1.936,0,0,0,1.876,1.876,1.542,1.542,0,0,0,1.407-.938h1.876a3.377,3.377,0,0,1-3.283,2.345C46.563,81.317,45,79.91,45,77.408c0-2.658,1.72-3.908,3.6-3.908a3.547,3.547,0,0,1,2.814,1.407,5.492,5.492,0,0,1,.782,3.127H46.876Zm1.72-2.97c-1.407,0-1.563,1.251-1.72,1.72h3.283C50,75.532,49.534,74.907,48.6,74.907Z" transform="translate(5.341 19.677)"/><path d="M51.3,82.118V71.8h1.876V82.118Z" transform="translate(8.89 18.72)"/><path d="M58.108,81.373A3.593,3.593,0,0,1,54.2,77.465,3.907,3.907,0,0,1,58.108,73.4a3.814,3.814,0,0,1,3.908,4.065A3.593,3.593,0,0,1,58.108,81.373Zm.156-6.41c-1.094,0-2.032.782-2.032,2.5a2.226,2.226,0,0,0,2.189,2.5c1.72,0,2.032-1.563,2.032-2.5C60.3,75.745,59.2,74.963,58.265,74.963Z" transform="translate(10.524 19.621)"/><path d="M64.808,81.317a3.278,3.278,0,0,1-1.72-.625,1.671,1.671,0,0,1-.469-.782l.156,1.407v1.72H60.9v-9.38h1.876v1.094A2.243,2.243,0,0,1,64.808,73.5c2.189,0,2.97,1.876,2.97,3.752C67.779,79.285,66.685,81.317,64.808,81.317Zm-.469-6.254c-1.094,0-1.563,1.251-1.563,2.345,0,.938.156,2.345,1.563,2.345,1.251,0,1.563-1.563,1.563-2.5C65.9,76.158,65.434,75.063,64.339,75.063Z" transform="translate(14.299 19.677)"/><path d="M75.811,81.161V76.627c0-.938-.313-1.563-1.094-1.563a1.421,1.421,0,0,0-1.407,1.563v4.534H71.434V76.627c0-.625-.156-1.563-1.251-1.563a1.5,1.5,0,0,0-1.407,1.407v4.69H66.9v-7.5h1.876v1.094A2.322,2.322,0,0,1,70.965,73.5a2.772,2.772,0,0,1,2.189,1.251A3.111,3.111,0,0,1,75.5,73.5c1.72,0,2.345,1.251,2.345,2.97v4.846H75.811Z" transform="translate(17.679 19.677)"/><path d="M77.12,77.934A1.936,1.936,0,0,0,79,79.81a1.542,1.542,0,0,0,1.407-.938h1.876A3.377,3.377,0,0,1,79,81.217c-2.032,0-3.6-1.407-3.6-3.908,0-2.658,1.72-3.908,3.6-3.908a3.547,3.547,0,0,1,2.814,1.407,5.493,5.493,0,0,1,.782,3.127Zm1.72-2.97c-1.407,0-1.563,1.251-1.72,1.72H80.4A1.524,1.524,0,0,0,78.839,74.963Z" transform="translate(22.468 19.621)"/><path d="M86.246,81.161V76.314c0-.782-.313-1.407-1.251-1.407a1.549,1.549,0,0,0-1.72,1.72V81H81.4V73.5h1.876v1.407A2.476,2.476,0,0,1,85.621,73.5a2.349,2.349,0,0,1,2.5,2.658v5H86.246Z" transform="translate(25.848 19.677)"/><path d="M89.97,75.8v4.221a.415.415,0,0,0,.469.469h.782v1.407H90.127c-1.407,0-2.032-.625-2.032-1.72V75.952H87V74.389h1.094V72.2H89.97v2.189h1.251v1.563H89.97Z" transform="translate(29.003 18.945)"/><path d="M95.2,77.12V75.4h3.6v1.72Z" transform="translate(33.623 20.748)"/><path d="M98.9,77.12V75.4h3.439v1.72Z" transform="translate(35.707 20.748)"/><path d="M102.7,77.12V75.4h3.439v1.72Z" transform="translate(37.848 20.748)"/><path d="M115.734,82.062h-1.72V74.87H111.2V73.62h.782a2.248,2.248,0,0,0,2.189-1.72h1.563Z" transform="translate(42.637 18.776)"/><path d="M126.968,80.017a12.241,12.241,0,0,1-4.846,1.094l-.782-1.876h1.407c2.345,0,5-.938,5-3.283a2.451,2.451,0,0,0-2.658-2.345,12.3,12.3,0,0,0-3.127.625c-.469.156-2.814.782-3.283.938l-.782-1.72c1.407-.156,2.658-.469,3.6-.625a12.306,12.306,0,0,1,3.439-.625c1.876,0,4.377.938,4.377,3.908A3.611,3.611,0,0,1,126.968,80.017Z" transform="translate(46.411 18.945)"/><path d="M130.189,81.975l-1.094.469a7.624,7.624,0,0,1-.469-1.094A11.1,11.1,0,0,1,128,77.6c0-.938.156-1.876.156-2.814a31.243,31.243,0,0,1,.625-3.283l1.407.469a.336.336,0,0,1,.313.313v.156a.546.546,0,0,1-.313.156,15.374,15.374,0,0,0-.782,4.846,8.972,8.972,0,0,0,.156,1.876,9.576,9.576,0,0,1,.625-.938l.782.469A8.35,8.35,0,0,0,130.189,81.975Zm5-.469c-2.5,0-3.127-.625-3.127-3.127l1.563-.156c0,1.407.156,1.72,1.563,1.72a12.278,12.278,0,0,0,3.283-.469v1.72A17.964,17.964,0,0,1,135.192,81.506ZM134.1,74.314h-1.563V72.751c.469,0,1.094.156,1.876.156a8.994,8.994,0,0,0,3.283-.625v1.563A15.354,15.354,0,0,1,134.1,74.314Z" transform="translate(52.101 18.551)"/><path d="M149.151,82.925h-6.1c-2.814,0-3.283-.625-3.752-1.407l-.469.469c-.156.156-.782.625-.782.625l-.156.313a.153.153,0,0,1-.156-.156l-.938-1.407a14.153,14.153,0,0,0,1.72-.938v-2.97h-1.407V76.2h2.97v4.065c0,.938.782,1.407,2.658,1.407,1.563,0,3.127,0,4.846-.156a10.11,10.11,0,0,1-2.5-1.407l.625-.625h-2.032l.625.625.156.156c0,.156,0,.156-.313.156a9.032,9.032,0,0,1-2.189,1.094l-.782-.938c1.251-.313,1.72-.782,1.876-1.094h-2.189V78.392h1.876V77.61h-1.72V76.515h1.72V75.89h-.625c-.782,0-1.251,0-1.251-.625V73.076h2.189v-.625h-2.189V71.356H144.3V74.17h-2.189v.469c0,.313.156.469.313.469h.782c.313,0,.469-.469.625-.782l.938.469a1.194,1.194,0,0,1-.313.782c-.156.313-.313.313-.782.313h.469c.156,0,.313,0,.313.156s-.156.156-.313.156v.313h1.407v-.782c-.156,0-.156,0-.313-.156s-.156-.156-.156-.469V72.92h2.189v-.469H144.93V71.356h3.752V74.17h-2.345v.469c0,.313.156.313.469.313h.782c.469,0,.782-.625.782-.782l1.094.469c-.156,1.094-.782,1.251-1.563,1.251h-.625c.156,0,.313,0,.313.156s-.156.156-.313.156v.313h1.876V77.61h-1.876v.782h2.189v1.094h-2.814a7.177,7.177,0,0,0,2.189,1.094l-.625.938a4.862,4.862,0,0,0,1.72-.156ZM138.832,74.17a8.891,8.891,0,0,0-1.72-1.876l1.094-1.094a4.97,4.97,0,0,1,1.72,1.876ZM145.4,77.61h-1.407v.782H145.4Z" transform="translate(57.059 18.382)"/><path d="M151.759,73.358c-.625,1.094-2.032,3.127-2.032,5.472a2.226,2.226,0,0,0,2.189,2.5c2.658,0,2.658-3.283,2.658-3.908a12.833,12.833,0,0,0-1.094-4.69l1.563-.782a16.176,16.176,0,0,0,3.752,5L157.7,78.2a18.442,18.442,0,0,1-2.032-2.814c0,.313.156,1.251.156,2.345,0,3.6-1.876,5-3.908,5a3.868,3.868,0,0,1-3.908-3.908,9.58,9.58,0,0,1,1.251-4.377,6.012,6.012,0,0,1-1.876.782l-.782-1.407a7.57,7.57,0,0,0,3.752-1.72Zm5.941.469a7.22,7.22,0,0,0-1.094-1.094l.625-.625a7.223,7.223,0,0,1,1.094,1.094Zm.938-1.407a7.222,7.222,0,0,0-1.094-1.094l.625-.625a6.8,6.8,0,0,1,1.094.938Z" transform="translate(62.58 18.1)"/><path d="M159.5,82.387c-2.345,0-3.6-1.407-3.6-3.127a3.4,3.4,0,0,1,1.563-2.658,2.275,2.275,0,0,1-1.407-2.189c0-1.407,1.094-2.814,3.283-2.814s3.283,1.251,3.283,2.814a2.407,2.407,0,0,1-1.407,2.189,2.933,2.933,0,0,1,1.72,2.658C163.092,80.98,161.685,82.387,159.5,82.387Zm0-4.846a1.715,1.715,0,0,0-1.72,1.72,1.632,1.632,0,0,0,1.72,1.72,1.73,1.73,0,0,0,1.72-1.72C161.059,78.479,160.746,77.541,159.5,77.541Zm0-4.221a1.312,1.312,0,0,0-1.407,1.407A1.407,1.407,0,1,0,159.5,73.32Z" transform="translate(67.82 18.607)"/><path d="M173.087,83.138a9.387,9.387,0,0,1-4.69-5.159,9.838,9.838,0,0,1-4.69,5.159L162.3,81.731a7.145,7.145,0,0,0,2.97-2.032,8.191,8.191,0,0,0,2.189-5.785V71.1h1.563c.156,0,.625,0,.625.156a.153.153,0,0,1-.156.156s-.313.156-.313.313v1.251c0,5.628,2.658,7.192,5.159,8.6Z" transform="translate(71.425 18.325)"/><path d="M178.253,75.039a5.177,5.177,0,0,0-1.72,3.439,2.672,2.672,0,0,0,.938,1.876,6.427,6.427,0,0,0,2.5.782l-.625,1.72a6.59,6.59,0,0,1-3.439-1.563,3.689,3.689,0,0,1-1.094-2.5,5.043,5.043,0,0,1,.938-2.814,9.449,9.449,0,0,1,1.876-2.189c-1.876.156-3.908.313-5.315.469L172,72.694A41.778,41.778,0,0,0,182.006,71.6v1.563A4.867,4.867,0,0,0,178.253,75.039Zm2.97,2.345L180.13,76.29l.625-.625a3.652,3.652,0,0,1,1.094,1.094Zm1.094-1.251a7.224,7.224,0,0,0-1.094-1.094l.625-.625a3.491,3.491,0,0,1,1.094,1.094Z" transform="translate(76.89 18.607)"/><path d="M189.611,82.087a9.266,9.266,0,0,0-2.97-1.72c.156,1.407-.313,2.189-2.658,2.189-2.5,0-3.283-1.094-3.283-2.032,0-1.251,1.251-2.189,3.283-2.189h1.094c-.156-3.283-.156-3.6-.156-6.1V71.3l1.72.313s.313,0,.313.156l-.156.156a.153.153,0,0,0-.156.156V73.8h.625a6.861,6.861,0,0,0,2.814-.469V74.9a7.771,7.771,0,0,1-2.5.313h-.938a29.006,29.006,0,0,0,.156,3.439,12.863,12.863,0,0,1,3.908,1.876Zm-5.784-2.345c-.938,0-1.407.313-1.407.782,0,.625,1.094.782,1.563.782,1.094,0,1.094-.782,1.094-1.251A2.946,2.946,0,0,0,183.827,79.742Z" transform="translate(81.792 18.438)"/><path d="M191.176,79.53h-1.251a10.51,10.51,0,0,1-.625-3.752,22.662,22.662,0,0,1,.469-4.221l1.563.156c.156,0,.313,0,.313.156a.153.153,0,0,1-.156.156c-.313.313-.469,2.97-.469,3.752a1.693,1.693,0,0,0,.156.938c.156-.469.469-1.251.782-2.032l.938.625A16.011,16.011,0,0,0,191.176,79.53Zm5.159.469a6.167,6.167,0,0,1-2.032,2.814l-1.72-.938a6.367,6.367,0,0,0,2.032-2.345,7.723,7.723,0,0,0,.782-3.752,32.3,32.3,0,0,0-.313-4.377h1.72s.313,0,.313.156-.313.156-.313.313,0,.782.156.782a18.92,18.92,0,0,1,.156,2.97A8.332,8.332,0,0,1,196.335,80Z" transform="translate(86.637 18.494)"/><path d="M208.225,77.085a8.609,8.609,0,0,1-2.189-1.407v.782H205.1v1.407h2.814v1.251H205.1v2.032a.415.415,0,0,0,.469.469h1.407c.313,0,.625-.469.782-1.407l1.251.938a6.535,6.535,0,0,1-.625,1.563c-.156.313-.469.469-1.251.469h-2.5c-.625,0-1.094-.313-1.094-.938V79.43h-1.407a4.985,4.985,0,0,1-3.908,4.065l-.938-1.407a3.809,3.809,0,0,0,3.439-2.658h-2.5V78.179h2.5V76.772H200.1v-.625a8.935,8.935,0,0,1-2.5,1.72L196.5,76.772a9.331,9.331,0,0,0,2.345-1.407l-1.251-1.251.938-.938h-.782V71.925h4.69l.313.313a18.071,18.071,0,0,1-2.032,3.127h4.534a9.927,9.927,0,0,1-2.345-3.6l1.407-.469a5.554,5.554,0,0,0,.625,1.407,7.828,7.828,0,0,0,1.094-1.251l1.094.625a.546.546,0,0,1,.156.313.153.153,0,0,1-.156.156c-.313,0-.313,0-.313.156a7.058,7.058,0,0,1-1.094,1.094c.156.313.313.313.625.625.469-.469.782-.938,1.251-1.407l1.094.625a.546.546,0,0,1,.156.313.153.153,0,0,1-.156.156h-.313c-.156,0-1.094,1.094-1.251,1.251a12.656,12.656,0,0,0,2.032.938ZM199,73.02a5.842,5.842,0,0,1,.938,1.094,3.919,3.919,0,0,0,.625-1.094Zm4.69,3.439h-1.251v1.407h1.251Z" transform="translate(90.693 18.438)"/><path d="M217.656,83.025a6.9,6.9,0,0,1-2.345-1.251,9.655,9.655,0,0,1-2.345-2.814h-.625v2.345c.625-.156,1.251-.156,1.876-.313V82.4c-1.876.469-3.283.625-4.065.782a.574.574,0,0,0-.469.156.546.546,0,0,1-.313.156c-.156,0-.156-.156-.156-.313l-.156-1.407a13.537,13.537,0,0,0,1.72-.156v-2.5h-1.563a13.654,13.654,0,0,1-1.251,3.908l-1.563-.469a10.9,10.9,0,0,0,.782-2.032,17.874,17.874,0,0,0,.469-4.377c0-1.407-.156-3.283-.156-4.846h10.944v3.283H215l.938.156c.156,0,.469,0,.469.156a.153.153,0,0,1-.156.156v.469h2.345v1.251h-2.345v.938h2.658v1.251h-1.563l.782.782.156.156a.153.153,0,0,1-.156.156c-.156,0-.313,0-.313.156a4.989,4.989,0,0,0-1.094.938,6.168,6.168,0,0,0,2.345.938Zm-6.566-6.41h-1.407V75.365h1.407v-.938h-1.876v3.127h1.876Zm5.941-4.377H209.37v.782h7.661Zm-2.5,2.189H211.4l.938.156s.469,0,.469.156l-.156.156v.469h2.032v-.938Zm0,2.189H212.5v.938h2.032Zm0,2.189a12.683,12.683,0,0,0,.938,1.251,9.433,9.433,0,0,0,1.251-1.251Z" transform="translate(96.27 18.438)"/><path d="M224.317,79.613a5.357,5.357,0,0,0-3.283-1.251c-1.094,0-2.032.625-2.032,1.563,0,1.094.938,1.563,2.658,1.563a7.247,7.247,0,0,0,2.189-.313L224,82.739a10.322,10.322,0,0,1-2.189.156,4.572,4.572,0,0,1-3.752-1.407,2.576,2.576,0,0,1-.625-1.72,3.034,3.034,0,0,1,3.283-2.97,6.649,6.649,0,0,1,1.72.313c-.469-.782-.782-1.251-1.251-2.189a11.283,11.283,0,0,1-3.908.782L216.5,74.3h1.094a18.848,18.848,0,0,0,2.97-.625c-.313-.782-.625-1.563-.938-2.5l1.407-.156c.156,0,.469-.156.469.156a1.575,1.575,0,0,0-.156.469,12.767,12.767,0,0,0,.625,1.72A7.888,7.888,0,0,0,224,72.265l.782,1.407c-.469.313-.938.469-2.189,1.094a14.435,14.435,0,0,0,2.658,3.752Z" transform="translate(101.961 18.255)"/><path d="M232.942,75.608a6,6,0,0,1-.313,2.5c-.156.625-.625.938-1.72.938h-.782l-.313-1.407a6.772,6.772,0,0,0,.782.156c.782,0,.938-.313.938-1.72a14.8,14.8,0,0,0-2.97.469v2.345c0,1.563.313,2.032,2.345,2.032a13.023,13.023,0,0,0,3.6-.469l-.156,1.72c-.625,0-1.876.156-3.752.156-3.127,0-3.6-.938-3.6-3.6V76.859c-1.094.156-1.251.156-2.5.313V75.608c1.094-.156,1.563-.156,2.658-.313a21,21,0,0,0-.156-2.97l1.563.156c.313,0,.469,0,.469.313,0,0,0,.156-.313.156l-.156.156v1.876c.782-.156,1.407-.156,2.97-.313a23.343,23.343,0,0,0-.156-2.97l1.407.156c.469,0,.469.156.469.156a.153.153,0,0,1-.156.156.153.153,0,0,0-.156.156v2.032c.782-.156,1.251-.156,2.5-.313v1.563A6.5,6.5,0,0,0,232.942,75.608Z" transform="translate(106.468 18.663)"/><path d="M238.5,82.6c-1.72,0-2.658-.938-2.658-1.876a1.933,1.933,0,0,1,2.032-1.876,3.7,3.7,0,0,1,2.814,1.72,2.672,2.672,0,0,0,.938-1.876c0-1.407-1.407-1.876-2.345-1.876a3.923,3.923,0,0,0-1.563.313,14.85,14.85,0,0,0-2.97,2.5L233.5,78.379a29.009,29.009,0,0,0,5.159-5,14.227,14.227,0,0,1-3.283.313l-.313-1.563c.313,0,1.094.156,1.563.156a12.783,12.783,0,0,0,4.221-.782l.782,1.094c-.782.782-1.094.938-3.127,2.97.469,0,1.094-.156,1.407-.156a3.133,3.133,0,0,1,3.127,3.127C243.193,80.88,241,82.6,238.5,82.6Zm-.469-2.658a.707.707,0,0,0-.782.625c0,.469.625.625,1.094.625a5.529,5.529,0,0,0,.938-.156C239.128,80.724,238.815,79.942,238.034,79.942Z" transform="translate(111.538 18.551)"/><path d="M18.9,98.873v2.189H17.021V98.873H12.8V97.466L16.865,90.9H18.9v6.723H20.3v1.251Zm-2.032-5.941-2.5,4.221-.469.469.469-.156h2.814V92.307Z" transform="translate(-12.8 29.48)"/><path d="M19.2,98.076V96.2h1.876v1.876Z" transform="translate(-9.194 32.466)"/><path d="M30.477,101.6c-1.72,0-4.221-.469-4.377-3.439h1.876a2.034,2.034,0,0,0,2.345,1.876c.469,0,2.5,0,2.5-1.563,0-.782-.469-1.094-1.407-1.251l-2.5-.625c-1.251-.313-2.814-1.094-2.814-2.97,0-2.189,2.189-3.127,4.065-3.127a5.144,5.144,0,0,1,3.127.938c.625.469.782,1.094.938,2.189H32.354c0-1.563-1.72-1.563-2.189-1.563-.313,0-2.189,0-2.189,1.407,0,.625.313,1.094,1.407,1.251l2.658.625a2.864,2.864,0,0,1,2.5,2.814C34.7,100.193,33.135,101.6,30.477,101.6Z" transform="translate(-5.307 29.255)"/><path d="M37.89,100.1v-.625l.156-.782a2.215,2.215,0,0,1-2.345,1.563c-1.72,0-2.5-1.094-2.5-2.814V92.6h1.876v4.846c0,1.094.625,1.407,1.251,1.407.938,0,1.563-.782,1.563-1.876V92.6h1.876v7.5Z" transform="translate(-1.307 30.438)"/><path d="M48.168,100.161V95.627c0-.938-.313-1.563-1.094-1.563a1.421,1.421,0,0,0-1.407,1.563v4.534H43.634V95.627c0-.625-.156-1.563-1.251-1.563a1.5,1.5,0,0,0-1.407,1.407v4.69H39.1v-7.5h1.876v1.094A2.322,2.322,0,0,1,43.165,92.5a2.772,2.772,0,0,1,2.189,1.251A3.111,3.111,0,0,1,47.7,92.5c1.72,0,2.345,1.251,2.345,2.97v4.846H48.168Z" transform="translate(2.017 30.382)"/><path d="M56.811,100.161V95.627c0-.938-.313-1.563-1.094-1.563a1.421,1.421,0,0,0-1.407,1.563v4.534H52.434V95.627c0-.625-.156-1.563-1.251-1.563a1.5,1.5,0,0,0-1.407,1.407v4.69H47.9v-7.5h1.876v1.094A2.322,2.322,0,0,1,51.965,92.5a2.772,2.772,0,0,1,2.189,1.251A3.111,3.111,0,0,1,56.5,92.5c1.72,0,2.345,1.251,2.345,2.97v4.846H56.811Z" transform="translate(6.975 30.382)"/><path d="M61.715,100.161a2.661,2.661,0,0,1-.156-1.094c-.156.469-.625,1.251-2.5,1.251-2.032,0-2.658-1.251-2.658-2.189,0-1.72,1.563-2.189,3.283-2.5.782-.156,1.72-.313,1.72-.938s-.625-.782-1.251-.782a2.083,2.083,0,0,0-1.407.469.919.919,0,0,0-.313.782h-1.72C56.869,92.813,58.9,92.5,60,92.5c1.72,0,3.283.782,3.283,2.658v4.221a.936.936,0,0,0,.469.938H61.715ZM60,96.721c-.782.156-1.72.313-1.72,1.251,0,.469.469.938,1.251.938A1.733,1.733,0,0,0,61.4,97.346v-.782l.156-.469C61.246,96.565,60.934,96.721,60,96.721Z" transform="translate(11.763 30.382)"/><path d="M66.308,94.22A1.94,1.94,0,0,0,64.276,96.1v4.065H62.4v-7.5h1.876v.625l-.156,1.094C64.9,92.969,65.37,92.5,66.934,92.5v1.876h-.625Z" transform="translate(15.144 30.382)"/><path d="M71.09,100.061a2.75,2.75,0,0,1-2.814,2.032c-.469,0-.625,0-.782-.156V100.53h.625a1.125,1.125,0,0,0,1.094-.625L66.4,92.556h1.876l1.563,4.534.313.938.313-1.094L72.028,92.4h2.032Z" transform="translate(17.397 30.325)"/><path d="M77.7,96.12V94.4h3.6v1.72Z" transform="translate(23.763 31.452)"/><path d="M81.4,96.12V94.4H85v1.72Z" transform="translate(25.848 31.452)"/><path d="M85.1,96.12V94.4h3.6v1.72Z" transform="translate(27.932 31.452)"/><path d="M88.9,96.12V94.4h3.6v1.72Z" transform="translate(30.073 31.452)"/><path d="M92.6,96.12V94.4h3.6v1.72Z" transform="translate(32.158 31.452)"/><path d="M96.3,96.12V94.4h3.6v1.72Z" transform="translate(34.242 31.452)"/><path d="M100.1,96.12V94.4h3.6v1.72Z" transform="translate(36.383 31.452)"/><path d="M103.8,96.12V94.4h3.439v1.72Z" transform="translate(38.468 31.452)"/><path d="M119.748,99.842v-.469H112.4V97.81h7.348V92.963H112.4V91.4h9.068v8.442Z" transform="translate(43.313 29.762)"/><path d="M123.214,93.67a12.263,12.263,0,0,0-2.814-1.72l.782-1.251a14.547,14.547,0,0,1,2.97,1.72Zm4.065,3.908a17.861,17.861,0,0,1-5.316,3.127,1.575,1.575,0,0,1-.156.469c-.156,0-.156-.156-.313-.313l-.938-1.72a13.448,13.448,0,0,0,5.159-2.5,16.06,16.06,0,0,0,4.065-4.377l.938,1.407A13.609,13.609,0,0,1,127.279,97.579Z" transform="translate(47.82 29.368)"/><path d="M138.862,94.834a26.556,26.556,0,0,1-2.345,3.283l-1.251-.782a20.608,20.608,0,0,0,1.876-2.5l-3.908.469v3.283c0,.782.156,1.094,1.72,1.094a28.08,28.08,0,0,0,3.439-.313v1.72a29.972,29.972,0,0,1-3.127.156c-3.439,0-3.6-.469-3.6-2.032V95.459l-2.814.313-.156-1.563,2.97-.313V90.3l1.407.156c.313,0,.469,0,.469.156l-.156.156c-.156.156-.156.156-.156.313v2.658l4.534-.469a.812.812,0,0,0,.625-.313l1.251,1.251A4.28,4.28,0,0,0,138.862,94.834Z" transform="translate(52.496 29.142)"/><path d="M146.68,93.934a13.828,13.828,0,0,1-2.5,4.69,10.6,10.6,0,0,1-4.221,3.439l-1.563-1.251a11.905,11.905,0,0,0,4.69-3.752,8.6,8.6,0,0,0,1.72-3.439h-7.5V92.058h7.973c.156,0,.313-.156.469-.156l1.407,1.251A1.671,1.671,0,0,0,146.68,93.934Zm.938-1.72a1.277,1.277,0,0,1-1.251-1.407,1.378,1.378,0,0,1,1.251-1.407,1.417,1.417,0,0,1,0,2.814Zm0-2.032a.782.782,0,1,0,.782.782A.837.837,0,0,0,147.618,90.182Z" transform="translate(57.341 28.635)"/><path d="M152.685,98.217A15.63,15.63,0,0,0,148.62,95.4v6.1H146.9V90.4l1.72.313s.313,0,.313.156-.313.313-.313.313v3.752l.625-1.094a8.707,8.707,0,0,1,2.345,1.251c1.094.782,1.563,1.251,2.189,1.72Z" transform="translate(62.749 29.199)"/><path d="M157.065,97.2c-.156,0-.156,0-.313.156a10.994,10.994,0,0,1-2.345,2.814L153,99.237a9.168,9.168,0,0,0,2.814-3.127l1.094.782s.313.156.313.313Zm2.658-2.345v5.315c0,1.407-.469,1.563-2.658,1.563l-.469-1.563c.313,0,.625.156,1.094.156s.625-.156.625-.469v-5h-4.065V93.452h4.065v-2.5l1.563.156c.313,0,.313.156.313.156a.153.153,0,0,1-.156.156l-.156.156v1.876h4.065v1.407Zm3.439,5a13.237,13.237,0,0,0-2.189-2.97l1.094-.938a14.494,14.494,0,0,1,2.345,2.814Zm.313-7.192a10.207,10.207,0,0,0-1.094-1.251l.625-.625a3.653,3.653,0,0,1,1.094,1.094Zm1.407-1.094a4.758,4.758,0,0,0-1.251-1.251l.625-.625a9.433,9.433,0,0,1,1.251,1.251Z" transform="translate(66.186 28.804)"/><path d="M162.4,95.12V93.4h10.006v1.72Z" transform="translate(71.482 30.889)"/><path d="M177.284,98.373a14.561,14.561,0,0,0-4.065-2.814V101.5H171.5V90.4l1.72.313s.313,0,.313.156-.313.313-.313.313v3.6l.625-.938a16.282,16.282,0,0,1,4.534,2.97Zm.313-4.846a9.436,9.436,0,0,0-1.251-1.251l.782-.625a4.758,4.758,0,0,1,1.251,1.251Zm1.72-.938a4.758,4.758,0,0,0-1.251-1.251l.782-.625a4.758,4.758,0,0,1,1.251,1.251Z" transform="translate(76.608 29.199)"/><path d="M181.089,100.975l-1.094.469a7.619,7.619,0,0,1-.469-1.094A11.1,11.1,0,0,1,178.9,96.6c0-.938.156-1.876.156-2.814a31.246,31.246,0,0,1,.625-3.283l1.407.469a.336.336,0,0,1,.313.313v.156a.546.546,0,0,1-.313.156,15.373,15.373,0,0,0-.782,4.846,8.972,8.972,0,0,0,.156,1.876,9.582,9.582,0,0,1,.625-.938l.782.469A13.057,13.057,0,0,0,181.089,100.975Zm5-.469c-2.5,0-3.127-.625-3.127-3.127l1.563-.156c0,1.407.156,1.72,1.563,1.72a12.278,12.278,0,0,0,3.283-.469v1.72A15.351,15.351,0,0,1,186.092,100.506ZM185,93.314h-1.563V91.751c.469,0,1.094.156,1.876.156a8.994,8.994,0,0,0,3.283-.625v1.563A15.355,15.355,0,0,1,185,93.314Z" transform="translate(80.777 29.255)"/><path d="M196.017,101.087a20.164,20.164,0,0,0-2.5-1.407c0,1.407-.469,2.032-2.189,2.032-1.876,0-3.127-.625-3.127-1.876,0-.469.156-2.032,3.283-1.876h.469V96.554h-1.407c-1.251,0-1.876-.469-1.876-.938,0-.625.938-1.407,1.563-1.72l.782.625q-.469.234-.469.469c0,.156.313.156.469.156h.938v-1.72a23.694,23.694,0,0,0-3.6.313V92.176h3.6V90.3l1.72.156c.313,0,.313,0,.313.156l-.156.156a.546.546,0,0,0-.156.313v.938a32.91,32.91,0,0,1,3.6-.156v1.563h-3.6v1.72c1.251-.156,1.72-.313,2.97-.469v1.563a28.637,28.637,0,0,1-2.97.313v1.72a13.11,13.11,0,0,1,3.6,1.563Zm-4.846-1.876c-.938,0-1.407.313-1.407.625,0,.469.938.469,1.094.469.938,0,.938-.313.938-1.094Z" transform="translate(86.017 29.142)"/><path d="M200.734,101.825a5.194,5.194,0,0,1-3.127-.625,2.756,2.756,0,0,1-1.407-2.345c0-1.72,1.407-2.658,2.97-3.6a3.922,3.922,0,0,1-.782-1.251,22.639,22.639,0,0,1-.782-3.6l1.876-.313a8.353,8.353,0,0,0,.469,3.283,1.6,1.6,0,0,0,.782.938c1.563-.782,1.876-.782,3.6-1.72l.469,1.72a25.042,25.042,0,0,0-5.159,2.189c-.625.469-1.72,1.094-1.72,2.032s1.094,1.563,2.658,1.563a21.113,21.113,0,0,0,4.377-.625v1.876A14.958,14.958,0,0,1,200.734,101.825Z" transform="translate(90.524 29.03)"/><path d="M213.437,100.362a6.041,6.041,0,0,1-2.97,1.563l-.938-1.407a5,5,0,0,0,2.658-1.251,3.661,3.661,0,0,0,1.094-2.658,2.726,2.726,0,0,0-2.658-2.658,21.71,21.71,0,0,1-1.563,4.065,9.569,9.569,0,0,1,.625.938l-1.094,1.251a2.745,2.745,0,0,0-.625-.782,3.988,3.988,0,0,1-2.345,1.407c-.938,0-1.72-.938-1.72-2.345a5.76,5.76,0,0,1,1.876-4.065,11.99,11.99,0,0,1-.782-2.658l1.72-.625a15.516,15.516,0,0,0,.469,2.345,5.949,5.949,0,0,1,2.345-.782,15.22,15.22,0,0,0,.156-2.5l1.563.156c.156,0,.469,0,.469.156a.153.153,0,0,1-.156.156l-.156.156c-.156.938-.156,1.094-.313,1.72a5.518,5.518,0,0,1,2.5,1.094A4.079,4.079,0,0,1,215,96.766,4.126,4.126,0,0,1,213.437,100.362ZM206.4,95.984a3.965,3.965,0,0,0-.938,2.5c0,.469.156.782.625.782.625,0,1.094-.782,1.407-.938A16.8,16.8,0,0,1,206.4,95.984Zm1.251-.938c.156.469.469,1.094.625,1.72a10.329,10.329,0,0,0,.782-2.345C208.746,94.421,208.434,94.577,207.652,95.046Z" transform="translate(94.862 29.086)"/><path d="M218.1,101.6c-1.72,0-2.658-.938-2.658-1.876a1.933,1.933,0,0,1,2.032-1.876,3.7,3.7,0,0,1,2.814,1.72,2.672,2.672,0,0,0,.938-1.876c0-1.407-1.407-1.876-2.345-1.876a3.923,3.923,0,0,0-1.563.313,14.85,14.85,0,0,0-2.97,2.5L213.1,97.379a29.009,29.009,0,0,0,5.159-5,14.226,14.226,0,0,1-3.283.313l-.313-1.563c.313,0,1.094.156,1.563.156a12.783,12.783,0,0,0,4.221-.782l.782,1.094c-.782.782-1.094.938-3.127,2.97.469,0,1.094-.156,1.407-.156a3.133,3.133,0,0,1,3.127,3.127A4.352,4.352,0,0,1,218.1,101.6Zm-.625-2.658a.707.707,0,0,0-.782.625c0,.469.625.625,1.094.625a5.528,5.528,0,0,0,.938-.156A1.339,1.339,0,0,0,217.477,98.942Z" transform="translate(100.045 29.255)"/></g><rect class="a" width="575.949" height="177.6" transform="translate(0.5 0.5)"/></g></svg>